<?xml version="1.0" standalone="no"?>
<!DOCTYPE svg PUBLIC "-//W3C//DTD SVG 20010904//EN"
 "http://www.w3.org/TR/2001/REC-SVG-20010904/DTD/svg10.dtd">
<svg version="1.0" xmlns="http://www.w3.org/2000/svg"
 width="900.000000pt" height="174.000000pt" viewBox="0 0 900.000000 174.000000"
 preserveAspectRatio="xMidYMid meet">
<metadata>
Created by potrace 1.10, written by Peter Selinger 2001-2011
</metadata>
<g transform="translate(0.000000,174.000000) scale(0.100000,-0.100000)"
fill="#ffffff" stroke="none">
<path d="M5806 1508 c-13 -44 -26 -125 -26 -156 0 -20 -7 -62 -15 -92 -8 -30
-15 -76 -15 -101 0 -26 -7 -63 -15 -82 -8 -20 -15 -56 -15 -79 0 -24 -7 -65
-15 -92 -8 -27 -15 -62 -15 -78 0 -28 1 -28 60 -28 l59 0 6 38 c3 20 10 56 16
79 5 23 9 61 9 85 1 88 65 155 128 132 27 -10 27 -11 24 -89 -1 -44 -9 -100
-17 -125 -8 -25 -15 -61 -17 -80 l-3 -35 63 -3 62 -3 0 37 c0 20 7 62 15 94 8
32 16 101 18 154 2 87 0 97 -21 118 -19 19 -33 23 -85 23 -43 0 -71 -6 -90
-17 -14 -10 -31 -18 -37 -18 -15 0 -12 42 5 83 8 20 15 52 15 70 0 19 7 54 15
77 8 23 15 55 15 71 0 29 -1 29 -60 29 -40 0 -62 -4 -64 -12z"/>
<path d="M7180 1453 c-6 -37 -16 -99 -20 -138 -4 -38 -13 -86 -19 -105 -6 -19
-11 -57 -11 -85 0 -46 -15 -130 -41 -230 -6 -22 -13 -53 -16 -68 l-5 -28 63 3
64 3 8 45 c4 25 12 81 17 125 9 81 23 158 41 230 6 22 14 69 19 105 4 36 12
77 18 91 6 14 12 46 14 70 l3 44 -61 3 -61 3 -13 -68z"/>
<path d="M3289 1467 c-14 -12 -31 -36 -38 -54 -12 -28 -11 -37 6 -65 28 -48
74 -51 119 -7 27 26 34 41 34 72 0 69 -68 100 -121 54z"/>
<path d="M2868 1432 c-17 -3 -28 -51 -28 -127 0 -27 -7 -72 -15 -99 -8 -27
-15 -68 -15 -90 0 -23 -7 -66 -15 -96 -8 -30 -15 -73 -15 -95 0 -22 -7 -51
-15 -65 -31 -54 -24 -60 75 -60 l90 0 0 45 c0 24 4 66 9 92 5 26 12 64 16 84
l5 36 87 -1 87 -1 7 35 c4 19 10 50 14 68 l8 33 -86 -2 c-48 -2 -89 0 -92 3
-11 10 7 107 20 112 8 3 51 1 97 -4 46 -4 86 -5 90 -2 3 4 8 27 10 52 3 25 6
52 9 60 3 13 -21 16 -162 20 -92 3 -173 4 -181 2z"/>
<path d="M4624 1427 c-9 -5 -14 -24 -14 -53 l0 -45 68 3 c66 3 67 3 65 -22 -6
-67 -22 -158 -32 -183 -6 -16 -11 -47 -11 -69 0 -23 -6 -64 -14 -92 -19 -67
-34 -155 -28 -161 3 -3 34 -5 69 -5 l63 0 0 38 c1 20 7 64 15 97 8 33 15 79
15 101 0 23 7 58 15 77 8 20 15 55 15 78 0 22 7 66 16 96 l16 55 57 -6 c77 -9
100 13 92 89 -1 12 -385 14 -407 2z"/>
<path d="M2614 1367 c-73 -75 -118 -114 -161 -140 -18 -10 -33 -23 -33 -28 0
-5 -5 -9 -11 -9 -6 0 -37 -20 -69 -45 -32 -25 -61 -45 -64 -45 -4 0 -25 -14
-48 -30 -47 -34 -72 -82 -82 -157 -6 -51 -6 -53 17 -53 14 0 30 7 37 15 7 8
24 15 39 15 14 1 37 7 51 15 14 8 42 14 62 15 20 0 67 7 105 16 37 9 82 13 99
11 17 -3 35 -2 41 1 12 9 23 49 33 127 11 86 29 170 52 247 36 119 18 131 -68
45z m-142 -319 c-15 -15 -26 -4 -18 18 5 13 9 15 18 6 9 -9 9 -15 0 -24z"/>
<path d="M4156 1310 c-7 -58 -11 -66 -48 -93 -9 -7 -20 -33 -23 -59 -7 -43 -6
-47 16 -50 27 -3 27 -6 6 -138 -8 -47 -19 -98 -26 -113 -22 -55 -18 -58 66
-55 l78 3 7 40 c5 22 12 84 18 139 5 54 15 105 21 112 8 9 23 12 43 9 17 -3
36 -2 43 3 13 8 21 108 9 119 -4 4 -23 6 -43 4 -35 -3 -36 -3 -29 31 4 18 10
50 13 71 l5 37 -75 0 -74 0 -7 -60z"/>
<path d="M3666 1233 c-21 -9 -50 -27 -64 -40 -33 -31 -42 -29 -42 7 l0 31 -67
-3 -68 -3 -12 -100 c-11 -87 -26 -179 -49 -292 l-6 -33 75 0 c87 0 83 -5 94
125 10 127 45 177 126 181 29 1 55 3 58 3 10 2 32 108 26 125 -8 20 -21 19
-71 -1z"/>
<path d="M3864 1235 c-10 -8 -26 -15 -35 -15 -9 0 -25 -12 -35 -27 -10 -14
-28 -36 -39 -47 -17 -17 -20 -31 -17 -73 3 -47 8 -55 37 -73 18 -11 48 -20 67
-20 56 0 77 -40 40 -73 -25 -23 -42 -21 -103 9 -51 26 -53 26 -65 8 -19 -27
-26 -37 -47 -61 -18 -20 -17 -21 19 -44 32 -20 51 -23 133 -23 82 0 101 4 133
23 63 38 88 81 88 150 0 57 -2 60 -34 80 -18 12 -49 21 -68 21 -38 0 -58 15
-58 42 0 31 43 43 92 27 38 -12 42 -12 52 6 6 10 22 29 34 41 l24 23 -34 21
c-41 25 -153 28 -184 5z"/>
<path d="M3226 1213 c-3 -10 -10 -56 -16 -103 -6 -47 -16 -100 -21 -118 -9
-28 -21 -95 -31 -167 -3 -18 4 -20 66 -23 38 -2 73 1 78 6 5 5 13 51 18 103 8
82 22 167 46 287 l6 32 -70 0 c-59 0 -72 -3 -76 -17z"/>
<path d="M5060 1223 c-14 -2 -32 -10 -40 -17 -8 -7 -23 -16 -32 -19 -20 -7
-78 -84 -78 -102 0 -7 -7 -26 -15 -41 -37 -71 -5 -184 61 -223 54 -32 180 -30
233 4 64 40 94 74 80 91 -19 23 -95 18 -118 -8 -29 -30 -102 -31 -130 -1 -25
26 -28 81 -5 90 8 3 75 6 147 7 l132 1 3 60 c4 67 -12 108 -54 138 -25 19
-134 31 -184 20z m119 -100 c20 -24 27 -41 21 -47 -5 -5 -46 -11 -90 -12 -72
-2 -80 -1 -80 16 0 24 68 80 97 80 13 0 34 -15 52 -37z"/>
<path d="M5523 1223 c-17 -2 -37 -11 -43 -19 -7 -8 -18 -14 -25 -14 -15 0 -95
-89 -95 -106 0 -7 -7 -25 -15 -40 -36 -69 -10 -165 60 -218 30 -23 43 -26 119
-26 94 0 95 1 112 68 9 36 9 45 -3 49 -7 3 -22 -2 -32 -11 -30 -27 -88 -21
-122 13 -37 38 -39 86 -4 141 35 56 65 73 117 67 102 -13 93 -17 96 32 2 24
-1 48 -6 53 -11 11 -112 18 -159 11z"/>
<path d="M6395 1223 c-11 -3 -28 -12 -38 -21 -17 -16 -20 -15 -32 1 -9 13 -27
17 -69 17 l-56 0 0 -45 c0 -24 -7 -70 -15 -102 -8 -31 -15 -74 -15 -94 0 -20
-7 -53 -15 -72 -8 -20 -15 -52 -15 -72 l0 -35 58 0 58 0 13 73 c7 39 16 97 19
127 11 92 50 140 112 140 39 0 51 -27 44 -98 -3 -37 -12 -87 -19 -112 -8 -25
-16 -63 -17 -85 l-3 -40 63 -3 62 -3 0 38 c0 21 7 71 16 112 8 41 16 110 17
152 2 68 -1 81 -19 99 -21 22 -107 35 -149 23z"/>
<path d="M6798 1223 c-20 -2 -42 -11 -48 -19 -7 -8 -18 -14 -24 -14 -14 0 -65
-54 -85 -90 -25 -43 -37 -131 -26 -180 13 -57 18 -66 66 -95 33 -21 51 -25
118 -25 96 0 144 21 198 86 64 76 85 169 54 236 -30 67 -77 98 -153 102 -35 2
-80 2 -100 -1z m126 -127 c31 -42 33 -73 5 -120 -44 -74 -119 -106 -165 -68
-55 47 -49 130 16 189 28 26 44 33 76 33 36 0 45 -5 68 -34z"/>
<path d="M7463 1223 c-17 -2 -37 -11 -43 -19 -7 -8 -18 -14 -24 -14 -18 0 -80
-70 -99 -113 -26 -58 -23 -169 5 -208 40 -54 76 -69 165 -69 156 0 247 86 260
246 6 72 -11 111 -66 152 -31 23 -129 35 -198 25z m125 -117 c17 -18 22 -36
22 -74 0 -47 -4 -54 -46 -96 -53 -53 -87 -59 -134 -24 -28 20 -30 27 -30 84 0
61 1 63 43 98 53 45 109 49 145 12z"/>
<path d="M7941 1223 c-93 -19 -159 -116 -176 -253 -6 -47 -3 -62 15 -93 31
-52 76 -77 140 -77 37 0 59 6 77 20 35 27 63 26 63 -2 0 -13 -7 -32 -15 -42
-8 -11 -15 -28 -15 -37 0 -23 -60 -59 -98 -59 -23 0 -38 9 -64 39 -28 33 -41
40 -81 44 -39 4 -49 1 -58 -14 -21 -41 19 -102 91 -139 53 -27 156 -27 209 0
46 23 121 107 121 135 1 11 7 31 15 45 8 14 14 46 15 71 0 25 7 68 15 95 8 27
15 70 15 95 0 26 7 66 15 89 26 74 23 80 -40 80 -40 0 -57 -4 -61 -15 -8 -19
-23 -19 -44 0 -18 16 -98 27 -139 18z m129 -114 c22 -19 25 -29 25 -82 -1 -58
-2 -61 -45 -98 -57 -49 -92 -51 -137 -7 -24 23 -33 41 -33 65 0 38 36 101 71
126 34 23 89 21 119 -4z"/>
<path d="M8680 1223 c-43 -4 -80 -25 -80 -46 0 -5 -13 -28 -28 -51 -15 -22
-37 -60 -48 -84 -16 -35 -23 -42 -44 -40 -22 3 -26 9 -31 58 -3 31 -11 65 -17
77 -7 12 -12 35 -12 52 l0 31 -75 0 c-41 0 -75 -4 -75 -9 0 -5 6 -22 14 -38
31 -65 65 -152 73 -193 3 -14 12 -33 20 -42 32 -37 21 -79 -45 -165 -34 -45
-62 -85 -62 -89 0 -5 -14 -23 -31 -40 -40 -41 -34 -70 12 -60 18 3 46 6 63 6
29 0 39 12 166 201 74 110 141 211 148 225 7 13 17 24 23 24 5 0 9 6 9 13 0 6
25 42 55 80 30 37 55 71 55 76 0 9 -26 22 -38 19 -4 -1 -27 -3 -52 -5z"/>
<path d="M2019 943 c-31 -23 -59 -40 84 -53 -11 -6 -33 -19 -50 -30 -16 -11
-37 -22 -45 -26 -8 -3 -22 -9 -30 -14 -8 -5 -76 -39 -150 -75 -74 -37 -147
-73 -162 -81 -14 -8 -33 -14 -41 -14 -8 0 -20 -7 -27 -15 -7 -8 -23 -15 -35
-15 -12 0 -28 -7 -35 -15 -7 -8 -20 -15 -29 -15 -10 0 -26 -7 -37 -15 -10 -8
-27 -15 -36 -15 -9 0 -30 -7 -47 -15 -17 -8 -45 -22 -62 -30 -17 -8 -38 -15
-48 -15 -9 0 -26 -7 -37 -15 -10 -8 -27 -15 -37 -15 -11 0 -31 -6 -45 -14 -30
-15 -81 -33 -127 -46 -39 -11 -91 -29 -133 -46 -18 -8 -43 -14 -55 -14 -12 -1
-33 -7 -47 -15 -14 -8 -38 -14 -53 -15 -16 0 -38 -5 -50 -12 -21 -11 -38 -15
-162 -38 -33 -6 -69 -15 -80 -20 -11 -5 -33 -14 -49 -20 -21 -8 -26 -14 -19
-21 8 -8 73 -8 225 1 196 11 1162 10 1213 -1 24 -5 33 26 12 49 -59 69 -35
237 48 330 30 35 127 113 155 125 78 36 177 98 187 118 6 13 14 48 18 77 8 58
-3 66 -46 35z m-489 -405 c32 -24 42 -71 16 -81 -19 -7 -31 -66 -17 -80 18
-18 13 -30 -10 -24 -15 4 -30 -3 -51 -26 -26 -28 -31 -30 -41 -16 -10 13 -37
15 -164 15 -174 -1 -199 7 -148 49 37 30 159 90 202 100 18 3 48 17 68 31 20
13 44 24 54 24 9 0 26 7 37 15 24 18 20 19 54 -7z"/>
<path d="M2455 660 c-16 -4 -51 -8 -76 -9 -26 0 -63 -8 -82 -16 -20 -8 -50
-15 -66 -15 -16 0 -39 -9 -52 -19 -21 -17 -22 -22 -11 -40 6 -11 12 -29 12
-40 0 -10 7 -24 15 -31 8 -7 15 -20 15 -30 0 -10 7 -23 15 -30 8 -7 15 -17 15
-22 0 -15 85 -122 125 -157 30 -26 44 -31 73 -29 37 3 37 3 44 58 4 30 11 68
17 83 6 16 11 45 11 66 0 21 6 56 14 77 7 22 17 67 21 102 l7 62 -34 -1 c-18
-1 -46 -5 -63 -9z m-62 -153 c3 -7 3 -25 0 -40 -8 -40 -40 36 -51 6 -5 17 -7
35 -5 40 7 12 51 8 56 -6z"/>
<path d="M2707 557 c-15 -10 -16 -15 -5 -30 12 -16 58 -17 752 -17 539 0 742
3 752 11 19 15 18 35 -2 43 -9 3 -345 6 -748 6 -574 0 -736 -3 -749 -13z"/>
<path d="M1990 515 c-7 -8 -19 -15 -27 -15 -7 0 -16 -7 -19 -15 -4 -8 -10 -15
-15 -15 -5 0 -31 -23 -58 -51 -40 -42 -50 -59 -55 -99 -4 -26 -2 -59 3 -73
l10 -26 98 5 c54 3 131 2 171 -3 88 -11 91 -4 32 73 -22 29 -40 59 -40 67 0 7
-7 22 -15 33 -8 10 -15 35 -15 54 -1 58 -10 80 -35 80 -12 0 -28 -7 -35 -15z"/>
<path d="M6031 498 c-5 -18 -11 -73 -13 -123 l-3 -90 25 0 c23 0 26 5 32 55 4
30 12 82 18 114 11 67 8 76 -25 76 -18 0 -26 -8 -34 -32z"/>
<path d="M7263 518 c-6 -7 -13 -64 -16 -125 l-7 -113 25 0 c29 0 32 11 45 121
14 124 14 129 -14 129 -13 0 -28 -6 -33 -12z"/>
<path d="M4955 502 c-6 -4 -16 -41 -23 -82 -6 -41 -15 -90 -18 -107 -6 -32 -5
-33 25 -33 17 0 32 5 32 13 1 6 3 19 4 27 1 8 3 21 4 29 2 19 40 -15 52 -46 6
-17 17 -23 39 -23 39 0 39 20 -1 70 -35 44 46 24 103 31 30 30 57 -2 57
-21 0 -45 -20 -61 -51 -16 -28 -30 -23 -30 10 0 17 -6 31 -16 35 -19 7 -17 7
-29 -2z"/>
<path d="M5631 502 c-16 -5 -14 -37 3 -51 7 -6 21 -9 30 -5 36 14 27 -26 -19
-86 -25 -33 -43 -65 -40 70 3 -6 44 -10 91 -10 83 0 85 1 82 23 -2 18 -10 23
-40 25 -21 2 -38 4 -38 6 0 14 37 70 69 106 24 27 36 49 31 54 -9 9 -148 15
-169 8z"/>
<path d="M6472 498 c-7 -7 -12 -26 -12 -42 -1 -17 -7 -58 -14 -91 -15 -74 -12
-85 24 -85 29 0 29 1 32 63 2 34 7 61 13 61 8 -1 47 -63 71 -111 9 -19 61 -16
68 3 3 9 6 29 6 44 0 16 7 55 15 87 13 49 13 59 1 71 -8 9 -22 11 -35 7 -18
-5 -21 -14 -21 -65 0 -32 -7 -61 -8 -64 -10 -6 -46 40 -56 70 -8 26 -43 64
-59 64 -7 0 -18 -5 -25 -12z"/>
<path d="M7454 493 c-3 -10 -13 -31 -21 -48 -10 -22 -13 -56 -11 -125 3 -87 5
-95 23 -95 19 0 20 7 20 100 0 80 4 105 19 127 10 16 16 35 12 43 -7 21 -35
19 -42 -2z"/>
<path d="M7996 501 c-3 -5 1 -25 9 -45 17 -40 20 -92 6 -100 -5 -4 -12 -24
-16 -45 -4 -22 -13 -42 -21 -45 -19 -7 -18 -35 2 -43 22 -8 64 35 64 67 0 14
5 31 11 37 17 17 13 128 -7 158 -16 25 -38 33 -48 16z"/>
<path d="M7539 473 c-19 -50 -31 -173 -18 -189 16 -20 39 0 39 35 0 21 8 30
40 44 45 19 62 50 48 86 -12 32 -37 50 -71 51 -21 0 -30 -7 -38 -27z m63 -65
c-20 -20 -36 5 -21 33 l12 24 10 -23 c7 -16 7 -26 -1 -34z"/>
<path d="M7675 490 c-8 -13 3 -30 20 -30 18 0 28 -35 17 -57 -15 -28 -23 -107
-13 -122 24 -37 61 38 61 123 0 46 33 80 61 63 10 -6 21 -24 24 -39 4 -15 11
-30 16 -33 13 -8 11 -59 -2 -72 -18 -18 -2 -43 26 -43 22 0 25 4 25 38 0 34
31 110 51 122 5 3 10 17 11 30 5 41 -25 34 -51 -12 l-24 43 -11 26c-21 51
-31 56 -120 58 -49 1 -87 -3 -91 -9z"/>
<path d="M8196 468 c-8 -18 -17 -65 -21 -104 -8 -81 2 -97 57 -92 25 2 34 8
36 25 2 16 -3 22 -20 25 -18 2 -22 8 -20 28 15 128 14 150 -2 150 -10 0 -23
-14 -30 -32z"/>
<path d="M8290 485 c0 -9 7 -18 15 -21 18 -7 21 -104 5 -134 -14 -26 -2 -52
24 -48 19 3 22 12 30 86 7 75 11 84 32 92 13 5 24 16 24 25 0 12 -13 15 -65
15 -52 0 -65 -3 -65 -15z"/>
<path d="M8445 463 c-3 -21 -10 -54 -15 -74 -6 -20 -10 -53 -10 -73 0 -34 2
-36 33 -37 84 -3 108 5 135 44 34 51 29 96 -13 140 -31 32 -42 37 -80 37 -43
0 -44 -1 -50 -37z m92 -25 c13 -12 23 -33 23 -48 0 -34 -35 -72 -63 -68 -19 3
-22 8 -19 48 6 95 17 108 59 68z"/>
<path d="M6938 458 c-6 -13 -13 -58 -14 -101 l-3 -78 27 3 c24 3 27 8 30 43 2
22 10 48 9 57 19 21 10 83 -13 92 -25 10 33 7 -46 -16z"/>
<path d="M5312 403 c-22 -28 -32 -34 -35 -23 -3 8 -8 23 -11 33 -9 29 -26 22
-60 -27 -13 -19 -14 -18 -27 10 -18 36 -52 40 57 6 -2 -13 2 -30 9 -38 6 -8
15 -29 18 -47 9 -43 46 -51 61 -13 12 33 33 33 48 1 14 -29 33 -32 53 -7 27
31 70 122 64 132 -12 19 -33 10 -63 -27z"/>
<path d="M5433 413 c-40 -38 -48 -65 -28 -103 15 -29 18 -30 80 -30 76 0 85 9
85 94 l0 56 -32 -1 c-18 -1 -42 2 -54 6 -15 5 -29 -1 -51 -22z m75 -60 c-3
-32 -44 -46 -54 -19 -10 26 4 46 31 46 23 0 26 -4 23 -27z"/>
<path d="M6237 433 c-4 -3 -7 -19 -7 -35 0 -40 -17 -68 -41 -68 -18 0 -20 4
-13 45 5 37 3 46 -11 51 -25 10 -37 -9 -43 -64 -6 -70 16 -89 98 -82 37 3 45
14 60 75 11 44 11 57 0 70 -13 16 -32 20 -43 8z"/>
<path d="M6741 414 c-26 -22 -31 -33 -31 -70 0 -33 5 -46 19 -54 23 -12 128
-14 134 -2 3 4 7 36 9 72 l3 65 -37 0 c-20 0 -40 3 -44 8 -12 12 -21 9 -53
-19z m86 -50 c5 -14 -24 -44 -42 -44 -16 0 -26 25 -18 46 6 17 54 16 60 -2z"/>
<path d="M7074 420 c-45 -29 -57 -107 -20 -132 20 -14 126 -9 132 5 3 8 6 40
7 73 l2 59 -32 -2 c-17 -2 -35 2 -38 7 -9 14 -16 13 -51 -10z m71 -50 c9 -14
-13 -50 -31 -50 -17 0 -28 24 -20 45 6 17 42 20 51 5z"/>
<path d="M5832 417 c-6 -7 -14 -31 -18 -54 -8 -55 18 -83 79 -83 57 0 64 7 78
68 13 61 8 82 -20 82 -19 0 -31 -25 -31 -67 0 -26 -37 -52 -45 -31 -3 7 -4 31
-3 53 3 42 -18 59 -40 32z"/>
<path d="M6324 385 c-10 -25 4 -45 30 -45 34 0 56 10 56 26 0 30 -76 47 -86
19z"/>
</g>
</svg>
