<?xml version="1.0" standalone="no"?>
<!DOCTYPE svg PUBLIC "-//W3C//DTD SVG 20010904//EN"
 "http://www.w3.org/TR/2001/REC-SVG-20010904/DTD/svg10.dtd">
<svg version="1.0" xmlns="http://www.w3.org/2000/svg"
 width="300.000000pt" height="58.000000pt" viewBox="0 0 300.000000 58.000000"
 preserveAspectRatio="xMidYMid meet">
<metadata>
Created by potrace 1.10, written by Peter Selinger 2001-2011
</metadata>
<g transform="translate(0.000000,58.000000) scale(0.100000,-0.100000)"
fill="#060709" stroke="none">
<path d="M1940 508 c0 -2 -9 -52 -20 -113 -24 -135 -24 -125 0 -125 14 0 21 9
25 38 11 63 16 72 37 72 19 0 20 -4 14 -55 -6 -50 -4 -55 13 -55 16 0 21 9 26
43 12 77 5 92 -38 92 -41 0 -40 -4 -20 83 4 17 1 22 -16 22 -12 0 -21 -1 -21
-2z"/>
<path d="M2400 505 c0 -13 -31 -202 -36 -217 -4 -13 0 -18 15 -18 23 0 22 -3
45 135 20 111 20 105 -4 105 -11 0 -20 -2 -20 -5z"/>
<path d="M1091 483 c-6 -12 -6 -25 -1 -34 12 -19 45 1 45 27 0 25 -31 30 -44
7z"/>
<path d="M870 454 c-14 -14 -50 -44 -81 -65 -55 -37 -69 -55 -69 -85 0 -11 6
-13 23 -8 12 4 47 12 76 18 l55 12 13 69 c7 39 12 74 10 78 -1 5 -14 -4 -27
-19z"/>
<path d="M942 391 c-7 -50 -15 -97 -18 -105 -5 -12 1 -16 24 -16 27 0 30 3 36
43 6 41 8 43 35 39 24 -3 29 0 33 22 5 23 2 26 -23 26 -23 0 -29 5 -29 21 0
18 5 21 34 17 30 -3 35 0 39 19 4 22 1 23 -58 23 l-61 0 -12 -89z"/>
<path d="M1540 465 c0 -9 9 -15 25 -15 21 0 25 -4 20 -22 -3 -13 -11 -53 -19
-90 l-14 -68 23 0 c21 0 24 7 35 73 16 103 18 107 46 107 15 0 24 6 24 15 0
12 -14 15 -70 15 -56 0 -70 -3 -70 -15z"/>
<path d="M1390 445 c0 -9 -8 -28 -17 -42 -13 -19 -14 -28 -5 -31 7 -2 10 -14
7 -28 -3 -13 -7 -35 -10 -49 -5 -21 -2 -25 19 -25 27 0 36 16 36 66 0 27 4 34
20 34 15 0 20 7 20 25 0 18 -4 23 -16 18 -12 -4 -14 0 -8 21 5 23 3 26 -20 26
-17 0 -26 -5 -26 -15z"/>
<path d="M1212 404 c-12 -8 -22 -10 -22 -5 0 6 -11 11 -24 11 -21 0 -24 -6
-30 -54 -3 -30 -9 -62 -12 -71 -6 -13 -1 -16 22 -13 25 3 29 8 32 38 4 41 18
60 42 60 16 0 30 19 30 41 0 13 -13 11 -38 -7z"/>
<path d="M1269 399 c-26 -26 -22 -63 9 -67 12 -2 22 -10 22 -18 0 -16 -18 -18
-39 -5 -16 10 -44 -16 -35 -31 11 -17 91 -8 108 11 24 27 17 65 -12 69 -13 2
-21 9 -19 15 2 7 12 11 22 9 19 -4 37 16 29 30 -10 16 -64 8 -85 -13z"/>
<path d="M1076 388 c-26 -121 -26 -118 3 -118 26 0 28 3 37 70 10 69 9 70 -13
70 -15 0 -24 -7 -27 -22z"/>
<path d="M1661 393 c-29 -24 -38 -84 -16 -106 23 -24 78 -22 100 3 19 21 19
21 -25 18 -36 -2 -45 0 -48 15 -3 14 4 17 47 17 47 0 51 2 51 23 0 13 -5 28
-12 35 -18 18 -73 15 -97 -5z m69 -18 c11 -13 8 -15 -20 -15 -28 0 -31 2 -20
15 7 8 16 15 20 15 4 0 13 -7 20 -15z"/>
<path d="M1822 403 c-16 -6 -42 -56 -42 -81 0 -46 92 -75 103 -32 4 16 1 18
-24 13 -35 -7 -47 16 -30 54 9 21 17 24 41 21 24 -4 30 -1 30 14 0 14 -7 18
-32 17 -18 0 -39 -3 -46 -6z"/>
<path d="M2066 371 c-3 -20 -8 -51 -12 -68 -6 -29 -4 -33 14 -33 15 0 21 9 26
38 12 62 17 72 38 72 19 0 20 -4 14 -55 -6 -50 -4 -55 13 -55 16 0 21 10 26
55 10 78 6 84 -58 84 l-55 -1 -6 -37z"/>
<path d="M2231 386 c-28 -30 -31 -84 -6 -102 34 -25 80 -17 109 17 14 17 26
41 26 53 0 55 -87 77 -129 32z m84 -27 c7 -22 -18 -59 -41 -59 -24 0 -35 35
-18 58 19 28 51 28 59 1z"/>
<path d="M2455 385 c-29 -28 -33 -76 -9 -99 21 -21 77 -20 103 2 29 23 38 83
16 105 -25 26 -81 22 -110 -8z m83 -31 c4 -26 -24 -56 -47 -52 -20 4 -27 44
-10 64 17 21 53 14 57 -12z"/>
<path d="M2620 392 c-11 -9 -23 -33 -26 -53 -8 -48 16 -73 63 -66 36 6 38 5
23 -24 -13 -23 -48 -25 -56 -4 -8 19 -44 20 -44 2 0 -23 35 -47 67 -47 46 0
71 35 88 124 8 43 15 79 15 81 0 2 -24 3 -54 4 -38 0 -61 -5 -76 -17z m75 -46
c0 -36 -26 -56 -49 -37 -20 17 -20 35 0 56 25 24 49 15 49 -19z"/>
<path d="M2782 351 l21 -58 -32 -47 c-31 -45 -32 -46 -9 -46 18 1 40 25 95
105 68 99 71 105 47 105 -18 0 -31 -10 -45 -35 -12 -19 -25 -35 -29 -35 -4 0
-11 16 -14 35 -6 29 -11 35 -31 35 l-24 0 21 -59z"/>
<path d="M665 311 c-19 -18 -212 -109 -305 -144 -52 -19 -131 -45 -175 -57
-44 -12 -88 -25 -99 -29 -10 -4 92 -7 228 -6 135 0 246 1 246 2 0 1 -4 13 -10
28 -19 49 24 111 109 157 19 11 31 25 31 38 0 21 -10 26 -25 11z m-148 -161
c-1 -17 -8 -30 -14 -30 -7 0 -13 -3 -13 -7 0 -5 -27 -6 -61 -5 -40 3 -59 8
-56 15 4 14 128 68 139 61 4 -3 6 -18 5 -34z"/>
<path d="M785 218 c-27 -5 -53 -13 -57 -17 -13 -12 55 -116 78 -119 18 -3 23
5 33 54 13 67 14 94 4 93 -5 -1 -30 -6 -58 -11z"/>
<path d="M905 180 c4 -6 98 -10 250 -10 152 0 246 4 250 10 4 7 -82 10 -250
10 -168 0 -254 -3 -250 -10z"/>
<path d="M641 154 c-18 -15 -31 -35 -31 -49 0 -21 5 -23 60 -27 62 -3 70 1 45
22 -8 7 -17 27 -21 46 -8 41 -13 42 -53 8z"/>
<path d="M2017 173 c-10 -10 -8 -73 2 -73 5 0 11 18 13 40 3 38 -1 48 -15 33z"/>
<path d="M2420 140 c0 -22 5 -40 10 -40 6 0 10 18 10 40 0 22 -4 40 -10 40 -5
0 -10 -18 -10 -40z"/>
<path d="M1647 138 c-5 -34 2 -53 10 -30 4 10 8 10 19 1 18 -15 32 -3 16 13
-9 9 -8 16 5 30 18 20 4 25 -15 6 -9 -9 -12 -9 -12 0 0 26 -18 10 -23 -20z"/>
<path d="M1880 160 c0 -5 5 -10 11 -10 7 0 5 -10 -5 -25 -16 -25 -16 -25 16
-24 24 0 28 2 15 8 -17 6 -17 8 3 34 l21 27 -30 0 c-17 0 -31 -4 -31 -10z"/>
<path d="M2156 148 c-8 -33 -7 -48 4 -48 6 0 10 10 10 23 l0 22 20 -25 c22
-29 27 -26 36 18 4 21 3 32 -5 32 -6 0 -11 -10 -12 -22 l0 -23 -16 23 c-8 12
-19 22 -23 22 -4 0 -10 -10 -14 -22z"/>
<path d="M2487 163 c-4 -3 -6 -25 -6 -47 l2 -41 7 45 c8 48 7 54 -3 43z"/>
<path d="M2517 163 c-4 -3 -7 -22 -6 -42 0 -20 3 -29 6 -21 4 8 15 21 25 28
15 11 16 17 7 28 -13 15 -22 18 -32 7z"/>
<path d="M2567 158 c4 -7 6 -26 5 -43 -2 -23 -1 -27 7 -15 6 8 11 25 11 38 0
13 6 22 15 22 14 0 19 -14 18 -47 -1 -19 14 -16 20 5 2 9 8 26 12 37 6 19 6
19 -8 2 -13 -15 -15 -16 -21 -2 -3 9 -18 15 -36 15 -22 0 -29 -4 -23 -12z"/>
<path d="M2674 154 c4 -12 2 -33 -3 -48 -6 -15 -7 -26 -1 -26 15 0 24 70 10
83 -10 9 -11 7 -6 -9z"/>
<path d="M2737 163 c-4 -3 -7 -21 -7 -40 0 -23 5 -33 15 -33 8 0 15 5 15 10 0
6 -4 10 -8 10 -5 0 -7 13 -4 30 4 30 1 36 -11 23z"/>
<path d="M2774 135 c0 -19 3 -35 8 -35 4 0 8 10 8 23 0 13 5 28 12 35 9 9 8
12 -7 12 -16 0 -20 -7 -21 -35z"/>
<path d="M2816 148 c-10 -39 -7 -48 19 -48 29 0 43 25 28 49 -16 25 -40 25
-47 -1z m40 -27 c-13 -20 -26 -11 -26 16 0 25 1 26 16 11 9 -9 13 -21 10 -27z"/>
<path d="M2317 153 c-10 -10 -8 -53 2 -53 8 0 20 32 21 53 0 9 -14 9 -23 0z"/>
<path d="M1710 139 c0 -23 14 -34 41 -35 19 -1 30 5 38 22 11 26 3 32 -17 12
-9 -9 -12 -9 -12 2 0 11 -3 11 -12 2 -8 -8 -15 -9 -25 -1 -10 9 -13 8 -13 -2z"/>
<path d="M1810 135 c-16 -19 -4 -35 26 -35 18 0 24 5 24 23 0 26 -32 34 -50
12z"/>
<path d="M1947 144 c-4 -4 -7 -16 -7 -26 0 -26 46 -25 53 2 7 28 -9 35 -18 7
l-7 -22 -6 23 c-4 13 -10 20 -15 16z"/>
<path d="M2047 137 c-9 -24 -1 -37 23 -37 16 0 30 18 30 41 0 18 -18 8 -25
-13 l-7 -23 -7 25 c-6 22 -8 23 -14 7z"/>
<path d="M2246 143 c-3 -3 -6 -15 -6 -25 0 -13 7 -18 25 -18 16 0 25 6 25 15
0 8 1 18 3 22 3 8 -39 14 -47 6z"/>
<path d="M2356 143 c-3 -4 -6 -15 -6 -25 0 -13 7 -18 25 -18 19 0 25 5 25 23
0 22 -29 35 -44 20z"/>
</g>
</svg>
