<?xml version="1.0" standalone="no"?>
<!DOCTYPE svg PUBLIC "-//W3C//DTD SVG 20010904//EN"
 "http://www.w3.org/TR/2001/REC-SVG-20010904/DTD/svg10.dtd">
<svg version="1.0" xmlns="http://www.w3.org/2000/svg"
 width="300.000000pt" height="67.000000pt" viewBox="0 0 300.000000 67.000000"
 preserveAspectRatio="xMidYMid meet">
<metadata>
Created by potrace 1.10, written by Peter Selinger 2001-2011
</metadata>
<g transform="translate(0.000000,67.000000) scale(0.100000,-0.100000)"
fill="#000000" stroke="none">
<path d="M1073 534 c-3 -8 -1 -20 4 -25 14 -14 43 0 43 22 0 24 -38 26 -47 3z"/>
<path d="M945 528 c-5 -17 -25 -152 -25 -173 0 -11 7 -15 23 -13 17 2 23 11
27 38 4 31 9 35 38 38 24 2 32 8 32 23 0 14 -7 19 -29 19 -24 0 -28 3 -24 19
3 14 15 21 36 23 21 2 33 9 35 21 3 14 -5 17 -53 17 -36 0 -57 -4 -60 -12z"/>
<path d="M836 489 c-27 -22 -62 -47 -78 -56 -15 -10 -32 -30 -38 -46 -9 -27
-8 -29 13 -23 12 3 45 9 74 12 l52 7 11 56 c6 31 12 64 14 74 2 9 3 17 3 17
-1 -1 -24 -19 -51 -41z"/>
<path d="M1360 483 c-7 -16 -13 -54 -14 -86 -1 -52 1 -57 20 -57 18 0 22 8 27
42 3 23 13 47 21 54 18 13 21 34 6 34 -5 0 -10 9 -10 20 0 30 -34 25 -50 -7z"/>
<path d="M1270 473 c-43 -15 -53 -69 -15 -79 33 -8 26 -30 -7 -26 -30 4 -47
-16 -27 -29 20 -14 82 -2 96 18 21 28 15 52 -12 59 -27 7 -29 29 -4 29 8 0 20
4 28 9 26 17 -22 32 -59 19z"/>
<path d="M1054 405 c-10 -63 -10 -65 12 -65 17 0 23 8 28 38 4 20 9 49 12 65
5 23 2 27 -19 27 -22 0 -25 -6 -33 -65z"/>
<path d="M1126 443 c-20 -104 -20 -105 5 -101 19 2 25 10 27 35 3 34 20 53 49
57 25 4 30 36 6 36 -11 0 -24 -5 -31 -12 -9 -9 -12 -9 -12 0 0 7 -9 12 -19 12
-13 0 -21 -9 -25 -27z"/>
<path d="M550 314 c-69 -35 -192 -86 -275 -113 l-150 -50 210 -1 210 0 0 44
c0 51 24 82 93 123 26 15 42 32 42 44 0 10 -1 18 -2 18 -2 -1 -59 -30 -128
-65z"/>
<path d="M766 279 c-22 -5 -41 -11 -43 -13 -15 -15 57 -116 83 -116 9 0 34 96
34 133 0 9 -25 7 -74 -4z"/>
<path d="M1018 243 c67 -2 177 -2 245 0 67 1 12 3 -123 3 -135 0 -190 -2 -122
-3z"/>
<path d="M636 219 c-15 -12 -26 -30 -26 -45 0 -22 4 -24 51 -24 28 0 49 3 47
8 -2 4 -10 24 -18 45 -8 20 -17 37 -21 37 -3 0 -18 -9 -33 -21z"/>
</g>
</svg>
