<?xml version="1.0" standalone="no"?>
<!DOCTYPE svg PUBLIC "-//W3C//DTD SVG 20010904//EN"
 "http://www.w3.org/TR/2001/REC-SVG-20010904/DTD/svg10.dtd">
<svg version="1.0" xmlns="http://www.w3.org/2000/svg"
 width="300.000000pt" height="67.000000pt" viewBox="0 0 300.000000 67.000000"
 preserveAspectRatio="xMidYMid meet">
<metadata>
Created by potrace 1.10, written by Peter Selinger 2001-2011
</metadata>
<g transform="translate(0.000000,67.000000) scale(0.100000,-0.100000)"
fill="#000000" stroke="none">
<path d="M1890 498 c-7 -40 -16 -91 -20 -113 -10 -45 -11 -42 15 -47 16 -2 21
4 25 37 7 49 16 65 37 65 13 0 15 -9 9 -54 -6 -50 -5 -54 14 -49 21 6 34 50
28 99 -3 27 -6 29 -41 28 -30 -1 -37 2 -33 13 4 8 9 32 12 54 6 35 4 39 -14
39 -17 0 -22 -10 -32 -72z"/>
<path d="M2350 563 c-1 -15 -28 -179 -35 -205 -6 -24 -4 -28 14 -28 25 0 24
-1 40 100 7 41 15 90 18 108 5 28 3 32 -16 32 -11 0 -21 -3 -21 -7z"/>
<path d="M1080 545 c-16 -19 -5 -47 17 -43 11 2 18 12 18 27 0 29 -17 37 -35
16z"/>
<path d="M864 519 c-10 -12 -46 -42 -79 -66 -33 -25 -63 -52 -67 -61 -15 -37
-10 -41 39 -26 25 8 59 14 74 14 18 0 29 6 33 18 11 40 27 134 23 138 -2 2
-12 -6 -23 -17z"/>
<path d="M931 458 c-7 -46 -15 -93 -18 -106 -5 -21 -2 -23 23 -20 26 3 30 8
34 43 5 37 8 40 38 43 24 2 32 8 32 23 0 14 -7 19 -30 19 -16 0 -30 3 -30 8 1
20 20 33 46 30 24 -2 30 1 32 20 3 21 0 22 -56 22 l-59 0 -12 -82z"/>
<path d="M1517 533 c-18 -17 -6 -33 19 -27 22 6 25 4 21 -12 -7 -24 -27 -134
-27 -149 0 -6 9 -11 20 -11 15 0 21 9 26 36 21 128 25 141 47 138 14 -2 23 3
25 15 3 15 -5 17 -61 17 -35 0 -67 -3 -70 -7z"/>
<path d="M1367 514 c-4 -4 -7 -15 -7 -25 0 -16 -6 -18 -44 -13 -36 5 -47 3
-65 -15 -29 -29 -27 -59 4 -67 14 -4 24 -11 22 -18 -5 -11 -11 -12 -38 -1 -21
8 -35 -25 -17 -37 24 -14 68 -8 89 13 26 26 21 61 -9 69 -27 6 -30 25 -4 25 9
1 22 4 29 8 16 10 26 -42 17 -88 -6 -34 -5 -37 17 -33 20 2 25 11 33 51 5 27
14 47 21 47 7 0 16 7 19 16 9 22 8 24 -10 24 -10 0 -14 7 -12 23 2 16 -3 23
-17 25 -12 2 -24 0 -28 -4z"/>
<path d="M1192 464 c-12 -8 -22 -10 -22 -5 0 6 -9 11 -19 11 -20 0 -25 -12
-37 -93 -6 -47 -6 -49 17 -45 19 2 25 11 30 41 7 43 15 53 44 59 12 2 21 13
23 26 4 26 -5 28 -36 6z"/>
<path d="M2584 465 c-35 -14 -44 -31 -44 -80 0 -43 29 -63 66 -46 24 11 29 5
18 -23 -7 -17 -54 -22 -54 -6 0 6 -11 10 -25 10 -14 0 -25 -4 -25 -9 0 -15 30
-41 48 -42 67 -5 91 19 108 108 18 93 18 94 -14 91 -15 -1 -32 1 -37 4 -6 3
-24 0 -41 -7z m55 -39 c14 -16 5 -43 -18 -55 -24 -12 -41 -3 -41 23 0 40 36
60 59 32z"/>
<path d="M1055 423 c-3 -27 -9 -58 -12 -70 -4 -19 -1 -23 20 -23 22 0 26 5 32
48 3 26 9 57 12 70 4 18 1 22 -20 22 -22 0 -26 -5 -32 -47z"/>
<path d="M1621 444 c-40 -51 -15 -114 44 -114 23 0 65 26 65 41 0 13 -34 11
-47 -2 -15 -15 -43 -4 -43 16 0 11 12 15 50 15 46 0 50 2 50 23 0 33 -18 47
-61 47 -29 0 -43 -6 -58 -26z m77 -12 c2 -7 -7 -12 -22 -12 -27 0 -35 15 -13
23 17 7 30 3 35 -11z"/>
<path d="M1771 444 c-48 -61 -4 -134 63 -108 9 3 16 13 16 21 0 9 -6 13 -15 9
-24 -9 -45 4 -45 29 0 29 24 49 50 42 15 -4 20 0 20 14 0 31 -63 26 -89 -7z"/>
<path d="M2021 406 c-6 -35 -11 -65 -11 -68 0 -10 34 -2 36 8 2 5 8 28 14 52
8 32 15 42 32 42 21 0 21 -9 5 -93 -1 -7 7 -12 18 -12 16 0 21 10 28 53 12 75
8 81 -57 81 l-54 -1 -11 -62z"/>
<path d="M2185 445 c-47 -46 -22 -115 43 -115 31 0 82 52 82 84 0 57 -79 77
-125 31z m83 -32 c4 -27 -35 -58 -55 -41 -7 6 -13 18 -13 27 0 42 62 55 68 14z"/>
<path d="M2401 444 c-40 -51 -17 -114 41 -114 60 0 108 81 72 121 -27 30 -87
26 -113 -7z m83 -19 c11 -31 -22 -68 -51 -58 -16 6 -17 45 -1 61 17 17 45 15
52 -3z"/>
<path d="M2722 411 l21 -59 -31 -40 c-38 -47 -39 -54 -10 -50 16 2 44 34 90
101 38 54 68 100 68 103 0 2 -10 4 -23 4 -15 0 -28 -11 -41 -35 -11 -19 -22
-35 -26 -35 -4 0 -11 16 -14 35 -6 29 -11 35 -31 35 l-24 0 21 -59z"/>
<path d="M545 315 c-133 -66 -328 -139 -409 -152 -82 -13 -32 -18 189 -18
l233 0 -10 24 c-18 49 19 110 89 145 31 15 58 49 51 64 -2 4 -66 -24 -143 -63z
m-35 -83 c0 -5 -6 -16 -13 -26 -10 -13 -24 -17 -57 -14 l-45 4 45 22 c47 23
70 27 70 14z"/>
<path d="M753 279 c-41 -12 -41 -23 -2 -82 39 -59 65 -62 74 -9 4 20 11 52 15
70 8 31 8 32 -23 31 -18 0 -47 -5 -64 -10z"/>
<path d="M890 250 c0 -6 88 -10 245 -10 157 0 245 4 245 10 0 6 -88 10 -245
10 -157 0 -245 -4 -245 -10z"/>
<path d="M636 218 c-21 -21 -36 -43 -34 -50 3 -8 28 -15 61 -18 57 -5 65 -2
47 16 -5 5 -16 27 -23 49 l-14 40 -37 -37z"/>
<path d="M1976 243 c-10 -10 -7 -85 3 -79 5 3 11 22 13 42 4 34 -3 50 -16 37z"/>
<path d="M2378 240 c-12 -28 -15 -70 -7 -76 13 -8 21 19 17 58 -3 20 -6 27
-10 18z"/>
<path d="M1620 223 c0 -10 -3 -28 -6 -40 -4 -14 -2 -23 5 -23 6 0 11 7 11 17
0 14 2 14 21 -3 20 -18 20 -18 14 9 -5 17 -2 33 5 42 15 18 -1 20 -18 3 -9 -9
-12 -9 -12 0 0 7 -4 12 -10 12 -5 0 -10 -8 -10 -17z"/>
<path d="M1840 230 c0 -5 7 -10 17 -10 15 0 15 -1 0 -18 -10 -10 -17 -23 -17
-29 0 -13 48 -14 56 -1 3 5 12 4 21 -4 12 -10 18 -9 29 7 16 22 18 35 4 35 -5
0 -10 -7 -10 -15 0 -8 -5 -15 -11 -15 -6 0 -9 7 -5 15 3 8 1 15 -5 15 -5 0
-12 -7 -15 -15 -7 -16 -34 -21 -34 -6 0 5 7 14 15 21 23 19 18 30 -15 30 -16
0 -30 -4 -30 -10z"/>
<path d="M2110 199 c0 -24 4 -38 10 -34 6 3 10 14 10 23 0 13 5 11 20 -8 20
-27 22 -25 34 33 8 33 -11 37 -23 5 l-8 -23 -7 23 c-13 39 -36 27 -36 -19z"/>
<path d="M2435 226 c-3 -9 -7 -23 -10 -31 -2 -8 -1 -23 3 -32 4 -13 9 -4 13
27 7 46 4 66 -6 36z"/>
<path d="M2467 233 c-4 -3 -7 -22 -6 -42 0 -20 3 -29 6 -21 4 8 13 20 21 26 9
6 13 18 9 28 -7 17 -19 21 -30 9z"/>
<path d="M2515 205 c3 -45 15 -59 15 -17 0 18 5 32 10 32 6 0 10 5 10 10 0 6
-8 10 -18 10 -15 0 -19 -7 -17 -35z"/>
<path d="M2564 220 c3 -14 6 -34 6 -45 1 -15 4 -12 14 11 8 18 19 35 25 38 14
9 15 -29 1 -55 -6 -11 -7 -19 -1 -19 12 0 21 25 21 61 0 31 -17 38 -38 17 -10
-10 -15 -10 -23 2 -8 12 -9 9 -5 -10z"/>
<path d="M2676 218 c-10 -38 -7 -58 8 -58 11 0 13 9 9 38 -7 46 -9 48 -17 20z"/>
<path d="M2715 205 c3 -45 15 -59 15 -17 0 18 5 32 10 32 6 0 10 5 10 10 0 6
-8 10 -18 10 -15 0 -19 -7 -17 -35z"/>
<path d="M2756 218 c-11 -44 -7 -60 15 -56 30 4 47 33 33 56 -17 26 -41 26
-48 0z"/>
<path d="M2269 223 c0 -5 -2 -18 -5 -30 -2 -12 1 -25 6 -28 6 -3 10 0 10 7 0
7 3 23 6 36 4 13 2 22 -5 22 -6 0 -11 -3 -12 -7z"/>
<path d="M1747 213 c-4 -6 -20 -9 -37 -7 -31 4 -38 -8 -20 -36 8 -12 10 -12
16 4 6 17 8 17 16 1 9 -15 11 -15 25 4 8 12 13 27 11 33 -3 8 -6 9 -11 1z"/>
<path d="M1780 210 c-19 -12 -7 -45 17 -46 28 -2 39 42 13 49 -10 3 -23 1 -30
-3z"/>
<path d="M2035 197 c-6 -19 -8 -19 -12 -4 -6 23 -23 22 -23 -2 0 -27 31 -36
47 -15 15 21 16 31 4 38 -5 3 -12 -4 -16 -17z"/>
<path d="M2310 210 c-19 -12 -7 -43 17 -45 15 -1 23 5 26 21 4 24 -20 38 -43
24z"/>
<path d="M2195 200 c-9 -15 13 -39 33 -36 9 2 18 13 20 24 3 18 -2 22 -22 22
-14 0 -28 -5 -31 -10z"/>
</g>
</svg>
