<?xml version="1.0" standalone="no"?>
<!DOCTYPE svg PUBLIC "-//W3C//DTD SVG 20010904//EN"
 "http://www.w3.org/TR/2001/REC-SVG-20010904/DTD/svg10.dtd">
<svg version="1.0" xmlns="http://www.w3.org/2000/svg"
 width="300.000000pt" height="58.000000pt" viewBox="0 0 300.000000 58.000000"
 preserveAspectRatio="xMidYMid meet">
<metadata>
Created by potrace 1.10, written by Peter Selinger 2001-2011
</metadata>
<g transform="translate(0.000000,58.000000) scale(0.050000,-0.050000)"
fill="#000000" stroke="none">
<path d="M3879 1015 c0 -3 -18 -104 -39 -225 -48 -270 -47 -250 -2 -250 28 0
41 19 51 75 22 126 32 145 75 145 39 0 41 -8 29 -110 -18 -148 56 -170 78 -23
23 153 10 183 -77 183 -82 0 -80 -8 -40 165 8 36 2 45 -32 45 -23 0 -42 -2
-43 -5z"/>
<path d="M4800 1010 c0 -26 -63 -404 -72 -435 -8 -25 1 -35 31 -35 22 0 41 3
41 6 0 4 18 104 40 224 22 120 40 225 40 234 0 9 -18 16 -40 16 -22 0 -40 -5
-40 -10z"/>
<path d="M2181 962 c-30 -56 28 -102 73 -57 36 36 22 95 -23 95 -16 0 -39 -17
-50 -38z"/>
<path d="M1918 955 c-1 -3 -17 -97 -36 -210 l-34 -205 56 0 c45 0 56 9 56 45
1 98 23 135 80 135 39 0 59 12 66 40 8 33 0 40 -48 40 -45 0 -58 9 -58 40 0
32 13 40 70 40 57 0 70 8 70 40 0 34 -209 67 -222 35z"/>
<path d="M3080 930 c0 -17 18 -30 43 -30 46 0 46 -1 5 -275 -12 -76 -9 -85 27
-85 34 0 43 22 64 154 32 197 36 206 93 206 29 0 48 12 48 30 0 24 -29 30
-140 30 -111 0 -140 -6 -140 -30z"/>
<path d="M1728 898 c-21 -24 -89 -77 -150 -119 -178 -122 -196 -208 -34 -166
58 15 125 27 150 27 33 0 48 15 57 55 6 30 20 93 30 139 28 125 16 140 -53 64z"/>
<path d="M2780 889 c0 -17 -16 -54 -35 -83 -25 -39 -28 -55 -10 -61 15 -5 21
-28 15 -57 -6 -26 -15 -70 -20 -98 -9 -42 -3 -50 37 -50 51 0 72 42 73 145 0
36 11 55 31 55 44 0 62 61 24 82 -19 11 -27 34 -21 58 9 32 1 40 -42 40 -33 0
-52 -11 -52 -31z"/>
<path d="M2442 821 c-16 -9 -57 -13 -91 -7 l-63 10 -20 -142 c-19 -139 -18
-142 24 -142 47 0 68 35 68 109 0 51 28 80 95 96 35 9 45 3 45 -26 0 -24 19
-43 50 -51 76 -19 64 -69 -15 -63 -47 4 -65 -3 -65 -25 0 -46 144 -52 192 -8
56 51 50 124 -13 140 -57 14 -55 60 3 54 39 -3 72 31 56 58 -17 27 -117 18
-164 -15 -40 -28 -44 -28 -44 0 0 35 -17 39 -58 12z"/>
<path d="M2154 775 c-44 -182 -41 -235 14 -235 45 0 52 8 52 65 1 36 9 99 18
140 17 70 15 75 -28 75 -31 0 -49 -15 -56 -45z"/>
<path d="M3345 807 c-33 -14 -85 -114 -85 -165 0 -98 159 -141 231 -61 36 40
36 41 -51 35 -71 -5 -90 1 -96 29 -6 30 8 35 95 35 92 0 101 4 101 46 0 81
-97 120 -195 81z m115 -57 c21 -26 15 -30 -40 -30 -55 0 -61 4 -40 30 14 17
32 30 40 30 8 0 26 -13 40 -30z"/>
<path d="M3645 807 c-74 -30 -105 -182 -48 -234 52 -48 163 -44 163 5 0 27
-11 35 -36 29 -58 -15 -95 43 -66 106 19 42 34 50 83 43 47 -7 59 -2 59 27 0
37 -89 50 -155 24z"/>
<path d="M4133 743 c-7 -40 -18 -102 -25 -138 -11 -56 -8 -65 27 -65 31 0 44
18 54 75 22 126 32 145 75 145 39 0 41 -8 29 -110 -12 -100 -10 -110 25 -110
32 0 42 19 53 110 19 156 11 169 -118 167 l-109 -1 -11 -73z"/>
<path d="M4462 772 c-93 -99 -46 -232 83 -232 67 0 175 95 175 154 0 122 -168
174 -258 78z m168 -53 c15 -45 -37 -119 -82 -119 -48 0 -69 69 -36 117 38 55
101 55 118 2z"/>
<path d="M4909 771 c-97 -97 -48 -231 83 -231 129 0 220 166 137 249 -49 48
-162 39 -220 -18z m167 -64 c7 -50 -48 -111 -93 -103 -41 8 -54 88 -21 128 35
42 107 27 114 -25z"/>
<path d="M5265 806 c-135 -52 -92 -282 48 -259 74 12 77 8 46 -48 -24 -46 -74
-49 -128 -8 -74 56 -104 5 -34 -58 131 -119 303 97 303 380 0 8 -213 2 -235
-7z m125 -114 c0 -72 -53 -111 -98 -73 -41 33 -41 70 0 111 49 48 98 30 98
-38z"/>
<path d="M5564 703 l42 -117 -64 -93 c-63 -92 -63 -93 -18 -92 73 1 356 419
284 419 -35 0 -61 -20 -91 -70 -22 -38 -48 -70 -57 -70 -8 0 -21 32 -29 70
-10 57 -22 70 -61 70 l-48 0 42 -117z"/>
<path d="M1164 529 c-249 -129 -543 -244 -819 -320 -112 -31 -202 -58 -200
-59 3 -2 217 1 477 6 l471 9 0 88 c0 101 64 183 193 250 74 38 105 77 91 114
-4 10 -100 -30 -213 -88z"/>
<path d="M1505 419 c-59 -23 -57 -53 15 -165 96 -152 180 -71 180 173 0 19
-142 14 -195 -8z"/>
<path d="M1820 365 c0 -18 975 -16 994 2 7 7 -214 13 -491 13 -276 0 -503 -7
-503 -15z"/>
<path d="M1282 308 c-106 -89 -87 -148 48 -148 117 0 126 8 79 69 -16 21 -29
54 -29 74 0 58 -33 60 -98 5z"/>
<path d="M4033 347 c-21 -21 -15 -147 7 -147 11 0 20 36 20 80 0 82 -3 90 -27
67z"/>
<path d="M4840 280 c0 -44 9 -80 20 -80 11 0 20 36 20 80 0 44 -9 80 -20 80
-11 0 -20 -36 -20 -80z"/>
<path d="M3295 275 c-11 -73 -1 -97 24 -57 11 18 20 20 30 4 23 -38 54 -24 41
19 -7 22 -2 54 11 70 29 35 -3 39 -37 5 -19 -19 -24 -19 -24 0 0 53 -36 20
-45 -41z"/>
<path d="M3760 320 c0 -11 10 -20 22 -20 14 0 10 -19 -10 -50 -33 -50 -33 -50
33 -49 47 1 55 6 29 16 -35 14 -34 17 6 69 l43 54 -62 0 c-33 0 -61 -9 -61
-20z"/>
<path d="M4313 295 c-18 -66 -16 -95 7 -95 11 0 20 19 20 42 0 41 1 41 38 -5
45 -54 57 -48 74 39 9 42 5 64 -9 64 -13 0 -23 -20 -24 -45 l-1 -45 -31 45
c-18 25 -39 45 -47 45 -8 0 -21 -20 -27 -45z"/>
<path d="M5033 327 c-7 -8 -13 -40 -13 -71 l0 -58 43 40 c24 23 37 53 30 71
-12 33 -37 40 -60 18z"/>
<path d="M5133 315 c9 -14 13 -46 10 -72 -4 -27 2 -42 13 -35 40 25 40 132 -1
132 -25 0 -32 -8 -22 -25z"/>
<path d="M5240 303 c13 -25 18 -59 12 -75 -6 -15 -2 -28 9 -28 10 0 19 16 19
36 0 20 11 47 24 60 13 13 17 29 10 37 -7 7 -19 -2 -26 -21 -12 -31 -15 -30
-41 2 -26 33 -27 32 -7 -11z"/>
<path d="M5348 308 c7 -24 4 -66 -7 -95 -12 -32 -13 -53 -1 -53 31 0 48 140
20 166 -19 19 -22 15 -12 -18z"/>
<path d="M5472 308 c-23 -60 -13 -108 23 -106 20 0 24 5 11 11 -15 6 -20 31
-13 68 13 63 -1 80 -21 27z"/>
<path d="M5550 270 c0 -38 7 -70 15 -70 8 0 15 21 15 46 0 25 11 57 24 70 19
19 15 24 -15 24 -31 0 -39 -14 -39 -70z"/>
<path d="M5640 316 c0 -14 -6 -46 -13 -71 -10 -38 -4 -45 41 -45 60 0 89 49
58 98 -26 41 -86 54 -86 18z m71 -74 c-24 -40 -51 -23 -51 32 0 50 3 52 32 22
18 -18 27 -42 19 -54z"/>
<path d="M4633 307 c-19 -20 -16 -107 5 -107 15 0 41 64 42 105 0 19 -29 20
-47 2z"/>
<path d="M3420 279 c1 -98 159 -100 160 -2 0 23 -6 23 -30 3 -24 -20 -30 -20
-30 0 0 18 -7 19 -26 3 -20 -16 -33 -16 -50 1 -19 19 -24 17 -24 -5z"/>
<path d="M3620 270 c-32 -38 -8 -70 51 -70 38 0 49 11 49 46 0 53 -64 68 -100
24z"/>
<path d="M3895 288 c-35 -34 -15 -88 33 -88 49 0 82 47 59 85 -8 13 -22 2 -33
-27 l-19 -48 -13 47 c-7 25 -19 39 -27 31z"/>
<path d="M4090 274 c-8 -21 -6 -46 5 -57 33 -33 94 -10 101 38 9 58 -27 58
-45 0 l-15 -45 -15 50 c-14 44 -17 46 -31 14z"/>
<path d="M4505 285 c-49 -17 -29 -85 25 -85 47 0 53 6 58 63 2 25 -42 37 -83
22z"/>
<path d="M4712 285 c-33 -33 -9 -85 38 -85 39 0 50 10 50 46 0 43 -58 69 -88
39z"/>
</g>
</svg>
