<svg version="1.1" id="Layer_1" xmlns="http://www.w3.org/2000/svg" xmlns:xlink="http://www.w3.org/1999/xlink" x="0px" y="0px"
	 width="100%" viewBox="0 0 3004 579" enable-background="new 0 0 3004 579" xml:space="preserve">
<path fill="#FFFFFF" opacity="1.000000" stroke="none" 
	d="
M2249.000000,580.000000 
	C1499.333374,580.000000 750.166687,580.000000 1.000000,580.000000 
	C1.000000,387.000000 1.000000,194.000000 1.000000,1.000000 
	C1002.333313,1.000000 2003.666626,1.000000 3005.000000,1.000000 
	C3005.000000,194.000000 3005.000000,387.000000 3005.000000,580.000000 
	C2753.166748,580.000000 2501.333252,580.000000 2249.000000,580.000000 
M653.983948,278.517731 
	C638.836426,286.710815 623.782349,295.082947 608.515930,303.048157 
	C592.225708,311.547607 575.849121,319.898865 559.303650,327.887024 
	C537.511536,338.408264 515.702332,348.930542 493.565063,358.691589 
	C464.957367,371.305573 436.235565,383.717407 407.165497,395.211273 
	C373.006683,408.717102 338.739777,422.089264 303.944244,433.810883 
	C256.245575,449.879242 208.114761,464.699768 159.952805,479.343506 
	C134.717117,487.016418 109.019081,493.168488 83.531456,500.013397 
	C78.488869,501.367615 73.453667,502.749359 68.415062,504.118408 
	C68.488251,504.323639 68.561440,504.528900 68.634636,504.734131 
	C232.999985,504.734131 397.365326,504.734131 562.113342,504.734131 
	C559.392517,498.801208 556.609253,493.321808 554.331421,487.639771 
	C549.877808,476.529816 546.328918,464.881958 547.289490,452.982178 
	C548.223511,441.411835 550.854614,429.848511 553.930603,418.607758 
	C560.540527,394.453094 575.813354,375.992706 594.965149,360.687347 
	C612.537781,346.644012 632.124390,335.622345 651.923950,325.065552 
	C662.122375,319.627991 672.647705,314.805420 682.884460,309.436401 
	C684.621582,308.525330 686.455200,306.430511 686.859680,304.579956 
	C688.732178,296.012543 689.892090,287.290192 691.738464,278.716187 
	C693.564270,270.237701 695.906372,261.870392 698.129578,253.026657 
	C683.288879,261.560852 668.938904,269.812866 653.983948,278.517731 
M2631.934814,337.457703 
	C2630.294189,333.032135 2628.653809,328.606537 2627.021484,324.203430 
	C2612.607910,324.203430 2597.995361,324.203430 2583.297363,324.203430 
	C2581.407471,340.815186 2585.948730,354.609253 2598.919434,365.523926 
	C2610.117676,374.947266 2623.178955,379.679199 2637.348389,380.791199 
	C2647.008057,381.549225 2656.897461,380.971191 2666.550293,379.843964 
	C2679.724365,378.305481 2691.733643,372.983429 2701.899902,364.480408 
	C2718.676025,350.449097 2727.323242,331.335785 2731.767822,310.642181 
	C2737.029785,286.142792 2740.737305,261.305908 2744.962402,236.588623 
	C2748.670654,214.895477 2752.163330,193.165527 2755.825684,171.000000 
	C2745.263672,171.000000 2734.642090,171.000000 2724.020264,171.000000 
	C2712.035400,171.000000 2712.035400,171.000000 2710.532471,183.098984 
	C2708.785889,180.983109 2707.491699,178.884735 2705.713135,177.345749 
	C2693.360840,166.656143 2678.564453,164.535934 2663.297363,167.175095 
	C2636.320068,171.838623 2616.980957,187.436890 2603.956543,211.275497 
	C2595.462891,226.820816 2592.091064,243.405579 2592.951660,261.031921 
	C2593.467529,271.597809 2596.166504,281.527191 2601.917236,290.274841 
	C2616.915527,313.088989 2646.030273,317.884674 2669.274658,309.075928 
	C2676.797363,306.225098 2683.650146,301.606018 2691.014893,297.686340 
	C2690.390381,301.465820 2690.052734,305.775726 2688.919922,309.865295 
	C2686.917969,317.089844 2685.228271,324.570770 2681.959717,331.234253 
	C2677.170898,340.997559 2668.733398,345.885712 2657.607910,347.195679 
	C2647.249268,348.415344 2638.830566,346.125519 2631.934814,337.457703 
M932.008484,261.713287 
	C930.478394,271.861420 928.948608,282.009644 927.418091,292.157684 
	C926.536804,298.000977 925.654297,303.844055 924.725220,309.999329 
	C942.863892,309.999329 960.007568,310.058075 977.148804,309.881256 
	C978.438416,309.867981 980.653137,308.341187 980.846985,307.238312 
	C983.073669,294.571747 985.028198,281.856506 986.983093,269.143158 
	C989.130615,255.176743 991.203064,241.198776 993.342224,227.000000 
	C995.263672,227.000000 996.908569,227.000000 998.553467,227.000000 
	C1015.376648,226.999985 1032.200684,227.072861 1049.021729,226.886047 
	C1050.684692,226.867569 1053.600586,225.477066 1053.791138,224.358231 
	C1056.287354,209.701492 1058.397339,194.978989 1060.670044,179.833649 
	C1040.655273,179.833649 1020.900269,179.833649 1000.900940,179.833649 
	C1002.747009,168.351868 1004.522156,157.310822 1006.340759,146.000000 
	C1008.188782,146.000000 1009.834473,146.000000 1011.480164,146.000000 
	C1030.302124,145.999985 1049.124512,145.947861 1067.945679,146.059509 
	C1070.586548,146.075165 1072.485962,145.673889 1072.946533,142.795532 
	C1073.359009,140.217438 1073.610229,137.613800 1074.007446,135.032944 
	C1075.841187,123.117973 1077.701172,111.207031 1079.566284,99.201263 
	C1039.178345,99.201263 998.745056,99.201263 958.251404,99.201263 
	C957.807434,101.106575 957.277710,102.817589 957.023376,104.568611 
	C955.921448,112.156097 955.015869,119.773514 953.822510,127.345970 
	C951.973816,139.076584 949.884766,150.769211 948.017029,162.496979 
	C946.223083,173.760895 944.645935,185.059311 942.855591,196.323837 
	C940.633606,210.304443 938.315063,224.269913 935.989319,238.233765 
	C934.733887,245.771149 933.376343,253.291519 932.008484,261.713287 
M2019.915894,167.395355 
	C2001.077393,164.129501 1983.611694,167.957489 1967.547729,179.029800 
	C1967.290649,178.520309 1967.033691,178.010803 1966.776611,177.501312 
	C1972.763306,142.450211 1978.750000,107.399117 1984.795898,72.002159 
	C1971.180420,72.002159 1957.535400,71.948196 1943.892822,72.116150 
	C1942.919800,72.128136 1941.291870,73.644707 1941.106201,74.668213 
	C1938.619751,88.365059 1936.275146,102.088737 1934.020020,115.826210 
	C1931.919312,128.622559 1930.096313,141.465317 1927.917969,154.247910 
	C1925.065186,170.988693 1921.925049,187.680313 1919.021362,204.412720 
	C1917.165527,215.107574 1915.592896,225.851486 1913.750244,236.548767 
	C1911.581299,249.139984 1909.206909,261.695709 1907.015869,274.283295 
	C1905.023315,285.730957 1903.157227,297.200562 1901.178589,308.999115 
	C1914.713379,308.999115 1928.193481,309.063263 1941.670288,308.881500 
	C1942.790771,308.866425 1944.673584,307.338806 1944.876831,306.263580 
	C1947.069824,294.655884 1948.971436,282.993500 1951.003174,271.354858 
	C1953.644897,256.222198 1955.710693,240.953720 1959.168579,226.008423 
	C1962.876343,209.982803 1971.993530,198.085281 1989.910645,198.819168 
	C1999.885254,199.227753 2006.249268,205.852661 2005.847656,214.992233 
	C2005.441284,224.242188 2004.039307,233.473419 2002.649780,242.648682 
	C2001.003052,253.521790 1998.897949,264.325317 1997.001343,275.160736 
	C1995.051147,286.303711 1993.112793,297.448730 1991.098511,308.998566 
	C2004.786133,308.998566 2018.419556,309.052368 2032.050415,308.886932 
	C2033.041260,308.874908 2034.702148,307.397308 2034.887817,306.387054 
	C2037.054077,294.606476 2039.041138,282.792114 2040.986084,270.971985 
	C2043.090942,258.180481 2044.743042,245.302689 2047.253052,232.592972 
	C2049.781738,219.789230 2051.311279,207.017197 2048.950684,194.099838 
	C2046.300049,179.593262 2035.093384,169.677475 2019.915894,167.395355 
M782.766541,273.067505 
	C791.428650,271.590515 800.069458,269.971741 808.758118,268.671875 
	C820.054016,266.981964 831.358398,265.262451 842.713867,264.082458 
	C853.334839,262.978790 864.027283,262.562897 874.924927,261.828369 
	C884.864319,207.850037 894.770508,154.052078 904.817871,99.487534 
	C896.102417,107.206451 888.361511,114.361397 880.301453,121.136536 
	C865.008911,133.991104 849.917969,147.131607 834.052307,159.248581 
	C802.908630,183.033722 770.750427,205.409317 737.576355,226.315491 
	C734.726379,228.111572 732.190125,231.614868 731.146301,234.853149 
	C727.128906,247.316269 723.480286,259.919830 720.306580,272.624023 
	C718.760315,278.813599 718.564758,285.340576 717.859863,290.908417 
	C739.580505,285.011139 760.794373,279.251495 782.766541,273.067505 
M2211.435303,278.950317 
	C2219.163574,295.664062 2232.310059,305.576141 2249.978516,310.063873 
	C2264.167480,313.667847 2278.306396,313.958862 2292.664307,311.056030 
	C2313.497559,306.843933 2331.174805,297.497498 2344.735596,280.802979 
	C2359.466797,262.667328 2366.224121,242.200684 2364.052979,218.763367 
	C2362.130615,198.012222 2351.906738,183.018280 2333.374756,173.931152 
	C2320.197754,167.469788 2306.156250,165.864243 2291.424805,166.811081 
	C2273.148682,167.985764 2256.642578,173.271881 2241.912354,184.030029 
	C2228.473877,193.844818 2218.369629,206.372574 2212.506348,222.028793 
	C2205.564697,240.563385 2203.612793,259.316559 2211.435303,278.950317 
M2576.974854,190.711563 
	C2570.957764,184.223053 2564.927734,177.829926 2556.694580,173.932373 
	C2538.632080,165.381470 2519.657959,164.589401 2500.604248,168.329391 
	C2478.376221,172.692444 2459.759521,183.896713 2446.347168,202.406174 
	C2441.156738,209.569183 2435.907471,217.454590 2433.673340,225.809906 
	C2430.567139,237.426849 2427.735596,249.361710 2429.793945,261.986511 
	C2432.344482,277.628754 2438.514648,290.612396 2451.462158,300.072510 
	C2470.132080,313.713257 2491.420166,315.090240 2513.010254,311.724152 
	C2529.671387,309.126556 2544.843262,302.303619 2557.944580,290.841248 
	C2569.008789,281.161316 2576.645996,269.556641 2581.983643,256.181213 
	C2586.727295,244.294174 2588.036865,231.915070 2587.054688,219.171570 
	C2586.266357,208.943283 2583.114746,199.700974 2576.974854,190.711563 
M2816.006104,342.489655 
	C2820.606445,335.854523 2825.264648,329.258789 2829.796631,322.577362 
	C2849.978760,292.824432 2870.081787,263.017456 2890.303223,233.291107 
	C2900.018311,219.008987 2909.989502,204.900986 2919.732666,190.637589 
	C2924.022949,184.356735 2928.033447,177.884979 2932.494873,171.000031 
	C2916.800537,171.000031 2901.972656,170.921616 2887.148682,171.120697 
	C2885.657959,171.140717 2883.685303,172.498413 2882.791260,173.815689 
	C2875.736572,184.206421 2868.905762,194.748703 2861.976318,205.224670 
	C2852.806396,219.087204 2843.609863,232.932007 2834.030518,247.379135 
	C2826.726562,221.429871 2819.625488,196.201294 2812.575439,171.154999 
	C2796.176758,171.154999 2780.198975,171.154999 2764.043457,171.154999 
	C2764.134277,172.125595 2764.039307,172.988449 2764.308594,173.716599 
	C2771.527100,193.235764 2778.793701,212.737259 2786.030762,232.249588 
	C2792.157471,248.768127 2798.060059,265.374451 2804.520264,281.761200 
	C2805.979004,285.461487 2805.946289,287.821045 2803.637695,291.030060 
	C2797.048340,300.188446 2790.931885,309.685059 2784.507568,318.964447 
	C2774.489990,333.434113 2764.322510,347.800049 2754.319580,362.279816 
	C2750.147949,368.318390 2746.235352,374.535889 2741.989502,380.999939 
	C2757.371582,380.999939 2772.187988,381.036774 2787.003174,380.935547 
	C2788.297363,380.926666 2790.144043,380.395599 2790.791504,379.457031 
	C2799.122070,367.378754 2807.281250,355.182465 2816.006104,342.489655 
M1634.030762,233.819397 
	C1634.013794,234.818924 1634.191284,235.868271 1633.949951,236.810333 
	C1631.216309,247.478470 1631.094727,258.257202 1633.051636,269.001007 
	C1635.556763,282.754578 1642.059570,294.175842 1653.995972,301.984894 
	C1671.651123,313.535339 1691.320068,315.227264 1711.264038,311.662903 
	C1729.598999,308.386139 1745.959106,300.119202 1758.527222,285.837738 
	C1762.781982,281.002960 1766.143311,275.381927 1770.307739,269.569336 
	C1764.758057,268.663910 1760.766846,267.959442 1756.758667,267.370117 
	C1748.887329,266.212891 1741.018677,265.014282 1733.117432,264.106903 
	C1731.844238,263.960693 1729.945190,264.863342 1729.121460,265.903625 
	C1722.901367,273.758972 1715.598511,280.176483 1705.423218,281.715759 
	C1694.919556,283.304749 1683.215942,281.366852 1678.953247,268.224701 
	C1677.288574,263.092926 1677.691406,257.309509 1676.969604,251.847046 
	C1676.367065,247.287430 1677.952515,245.851089 1682.708618,245.887894 
	C1711.703735,246.112350 1740.701294,246.000000 1769.698120,246.000000 
	C1771.445557,246.000000 1773.192993,246.000000 1775.037598,246.000000 
	C1775.037598,243.817047 1774.732300,242.241730 1775.085693,240.831451 
	C1778.053711,228.987396 1777.807251,217.038666 1774.858398,205.396347 
	C1770.414551,187.851685 1760.067261,175.260025 1742.049438,169.959305 
	C1728.552979,165.988739 1715.026733,165.526382 1701.125732,167.878738 
	C1685.734863,170.483215 1672.104858,176.533844 1660.672485,186.972031 
	C1647.031982,199.426270 1638.837036,215.219757 1634.030762,233.819397 
M2105.480957,171.000000 
	C2095.163818,171.000000 2084.846680,171.000000 2074.105713,171.000000 
	C2066.265137,216.966019 2058.450928,262.777649 2050.605957,308.768219 
	C2065.622314,308.768219 2079.725342,308.768219 2093.651611,308.768219 
	C2095.463623,298.807129 2097.271729,289.107788 2098.986084,279.391846 
	C2102.021484,262.189972 2104.599121,244.894699 2108.156250,227.802505 
	C2110.193115,218.015411 2113.739258,208.549271 2122.875000,202.602798 
	C2131.529785,196.969162 2145.751709,197.501724 2151.437256,203.970108 
	C2157.108887,210.422272 2155.436523,218.485886 2154.743896,225.726273 
	C2153.637695,237.291168 2151.023926,248.714447 2148.988525,260.187103 
	C2147.039062,271.173096 2144.954834,282.135437 2143.048828,293.128754 
	C2142.152588,298.298828 2141.534912,303.517212 2140.769775,308.863586 
	C2155.592285,308.863586 2169.554443,308.863586 2183.629883,308.863586 
	C2185.099609,300.834259 2186.661621,292.934845 2187.973877,284.994110 
	C2190.404785,270.283264 2192.610352,255.535080 2195.057861,240.827148 
	C2197.398926,226.761490 2201.570068,212.914246 2199.044678,198.356293 
	C2197.364990,188.674301 2194.396729,179.666199 2185.774414,174.043274 
	C2171.019287,164.421265 2154.782227,164.480759 2138.666504,169.067047 
	C2130.675781,171.341125 2123.386230,176.079803 2116.010742,179.593353 
	C2116.276123,177.437393 2116.655518,174.354202 2117.068359,171.000000 
	C2113.109131,171.000000 2109.791260,171.000000 2105.480957,171.000000 
M833.990479,484.389740 
	C836.091980,472.381287 838.087708,460.353058 840.323364,448.369629 
	C842.763977,435.287415 845.508728,422.262054 847.971558,409.183807 
	C850.947266,393.382141 853.686584,377.535736 856.698608,361.741211 
	C857.673645,356.628204 856.747925,354.942566 851.557251,355.039368 
	C840.469727,355.246124 829.383972,355.612579 818.302307,356.037964 
	C814.869873,356.169739 811.415222,356.490875 808.035828,357.091675 
	C797.486084,358.967163 786.800964,360.392517 776.475159,363.143951 
	C760.085449,367.511169 743.920349,372.735321 727.744324,377.862030 
	C726.512390,378.252411 724.889709,381.049713 725.226807,382.212982 
	C731.788513,404.857147 740.323181,426.683014 753.135925,446.629211 
	C765.351685,465.646118 779.866760,482.696198 797.007751,497.454498 
	C799.428040,499.538361 802.137695,502.517242 804.902649,502.740662 
	C813.461304,503.432343 822.111328,502.993408 830.353088,502.993408 
	C831.619751,496.710419 832.773376,490.987854 833.990479,484.389740 
M1585.002563,147.662415 
	C1584.543701,151.043396 1584.179932,154.440552 1583.608887,157.802490 
	C1581.442383,170.557419 1579.208618,183.300919 1576.999878,196.048737 
	C1575.150024,206.726334 1573.287476,217.401749 1571.454346,228.082260 
	C1569.620728,238.765961 1567.836304,249.458160 1565.994629,260.140472 
	C1564.153809,270.817505 1562.234131,281.481018 1560.416626,292.161987 
	C1559.481934,297.654388 1558.694336,303.171814 1557.823486,308.786987 
	C1573.329956,308.786987 1588.105591,308.786987 1602.976196,308.786987 
	C1605.339111,294.873535 1607.687988,281.154022 1609.994507,267.427338 
	C1611.791748,256.730743 1613.494385,246.018127 1615.315552,235.325638 
	C1617.161499,224.486374 1619.124878,213.667206 1620.993408,202.831741 
	C1622.808228,192.307831 1624.549683,181.771317 1626.356567,171.246002 
	C1628.216919,160.407578 1630.261475,149.597885 1631.912720,138.728134 
	C1632.409912,135.455582 1633.160034,133.843964 1636.928711,133.914810 
	C1649.083862,134.143356 1661.246948,133.910385 1673.404663,134.054337 
	C1677.076660,134.097794 1679.191284,133.771652 1679.190308,129.058960 
	C1679.189453,124.627388 1680.870972,120.213600 1681.617065,115.759270 
	C1682.590332,109.949165 1683.371094,104.106796 1684.240723,98.237396 
	C1638.274536,98.237396 1593.193481,98.237396 1547.999634,98.237396 
	C1545.991943,110.184036 1544.020020,121.918045 1541.979370,134.061157 
	C1557.161743,134.061157 1571.929810,134.061157 1587.530884,134.061157 
	C1586.636108,138.620453 1585.836670,142.694839 1585.002563,147.662415 
M1309.993286,198.035950 
	C1322.276001,195.064102 1333.500244,198.448761 1344.957397,203.875671 
	C1352.354370,192.995316 1359.873657,181.934814 1367.573853,170.608459 
	C1356.042725,165.447388 1344.820923,163.029663 1333.012451,161.740540 
	C1319.672852,160.284256 1306.784546,161.308426 1294.192261,165.133621 
	C1272.946655,171.587509 1256.338745,183.590042 1251.063843,206.556213 
	C1249.459839,213.539886 1249.050415,221.193558 1250.003662,228.283630 
	C1251.786499,241.543777 1262.487183,246.410889 1273.692261,249.950653 
	C1282.464600,252.721970 1291.513672,254.677368 1300.149902,257.797852 
	C1305.644043,259.782990 1306.800781,266.309601 1302.256592,269.923645 
	C1298.639038,272.800873 1293.861206,275.199432 1289.342041,275.766388 
	C1278.764160,277.093384 1269.303833,272.507721 1260.033569,267.994385 
	C1256.357178,266.204498 1252.070679,262.135040 1249.272461,263.003448 
	C1246.060669,264.000244 1244.137329,269.286591 1241.750122,272.775085 
	C1236.118774,281.003387 1230.544434,289.270538 1224.922607,297.557922 
	C1238.261353,307.126923 1252.817261,312.478455 1268.268433,313.682800 
	C1279.988037,314.596283 1292.095215,313.674744 1303.734253,311.766235 
	C1322.308960,308.720520 1337.911377,299.446411 1348.531738,283.647644 
	C1356.354004,272.011322 1360.035278,258.705078 1356.873657,244.633987 
	C1353.366211,229.023529 1340.954712,222.960831 1327.085815,219.015289 
	C1319.795288,216.941193 1312.353760,215.335022 1305.190918,212.898682 
	C1301.180298,211.534500 1300.040039,207.799316 1302.495972,204.252625 
	C1304.151123,201.862228 1306.936890,200.254822 1309.993286,198.035950 
M1382.275635,165.999924 
	C1377.976196,165.999924 1373.676636,165.999924 1369.247803,165.999924 
	C1367.013184,180.447769 1364.839478,194.501968 1362.581299,209.102386 
	C1368.653198,209.102386 1373.748291,209.102386 1378.944702,209.102386 
	C1373.576660,242.876236 1368.276367,276.224701 1362.947266,309.753754 
	C1380.543579,309.753754 1397.631592,309.753754 1414.866577,309.753754 
	C1416.612427,298.103302 1418.242188,286.658661 1420.064209,275.244690 
	C1421.576050,265.772858 1423.427002,256.355011 1424.923584,246.880981 
	C1426.729004,235.451553 1428.450562,224.004822 1429.910645,212.527695 
	C1430.281616,209.610275 1431.472412,208.938614 1434.048584,208.970078 
	C1441.209717,209.057541 1448.374756,208.899017 1455.533936,209.046921 
	C1458.613647,209.110565 1459.851807,208.268936 1460.127808,204.890900 
	C1460.576416,199.400314 1461.900269,193.985458 1462.751343,188.522507 
	C1463.895996,181.175034 1464.942261,173.812241 1466.103394,165.965149 
	C1456.531128,165.965149 1447.438110,165.965149 1437.657715,165.965149 
	C1439.886108,151.427139 1442.035767,137.403381 1444.195312,123.314964 
	C1426.317139,123.314964 1409.244751,123.314964 1392.461060,123.314964 
	C1390.463623,136.062210 1388.670166,148.486893 1386.399658,160.823776 
	C1386.098022,162.462494 1387.823486,166.564819 1382.275635,165.999924 
M2365.037354,299.759186 
	C2364.710693,302.745972 2364.383789,305.732758 2364.049072,308.791321 
	C2378.606445,308.791321 2392.713379,308.791321 2406.922607,308.791321 
	C2420.404053,229.894608 2433.853760,151.183685 2447.353027,72.181656 
	C2432.554199,72.181656 2418.453613,72.181656 2404.156250,72.181656 
	C2391.259521,147.861526 2378.382080,223.429047 2365.037354,299.759186 
M1179.999268,283.430054 
	C1180.666260,278.916199 1181.162109,274.369019 1182.033691,269.895020 
	C1184.265747,258.437286 1185.848877,246.767792 1189.183960,235.629913 
	C1194.480835,217.940613 1207.316528,208.750931 1226.020630,209.159271 
	C1233.107422,209.313995 1240.155029,211.270813 1247.652710,212.475677 
	C1250.066772,197.090393 1252.623535,180.795135 1255.204224,164.347214 
	C1232.655518,162.267929 1213.171631,167.398819 1197.764160,184.615021 
	C1197.442993,184.293045 1197.121826,183.971069 1196.800659,183.649094 
	C1197.152710,177.872040 1197.504639,172.094971 1197.875977,166.002274 
	C1181.474854,166.002274 1165.508301,165.948502 1149.544067,166.111893 
	C1148.361572,166.123978 1146.378540,167.527695 1146.161377,168.573807 
	C1145.168945,173.354080 1144.712158,178.243332 1143.992188,183.082886 
	C1142.289551,194.527405 1140.617554,205.977234 1138.801636,217.404007 
	C1136.605347,231.225494 1134.281860,245.026825 1131.997925,258.834351 
	C1130.086060,270.392120 1128.095703,281.937286 1126.252686,293.505981 
	C1125.397339,298.875732 1124.809326,304.288086 1124.097778,309.698944 
	C1141.689453,309.698944 1158.772705,309.698944 1175.626343,309.698944 
	C1177.119019,301.020966 1178.555054,292.671997 1179.999268,283.430054 
M1853.220947,312.999908 
	C1854.802246,312.667358 1856.400024,312.398499 1857.961914,311.991425 
	C1865.867554,309.930908 1873.794312,307.937988 1881.626831,305.627045 
	C1882.671143,305.318909 1883.665161,303.423065 1883.925049,302.112366 
	C1885.246094,295.449066 1886.337280,288.739655 1887.470581,282.039886 
	C1888.361816,276.771088 1889.197021,271.492828 1890.257690,264.988770 
	C1888.473999,266.322021 1887.836914,266.756195 1887.246094,267.246063 
	C1875.946411,276.617004 1863.308228,281.500641 1848.543945,277.938019 
	C1835.394897,274.765137 1826.885010,264.589172 1826.074707,251.955048 
	C1824.958008,234.546188 1831.574585,220.217102 1845.177979,209.432678 
	C1855.891602,200.939224 1868.191162,197.248825 1881.409790,202.214981 
	C1887.736328,204.591843 1893.215454,209.224548 1899.237061,212.933243 
	C1901.304443,200.753708 1903.498779,187.826889 1905.692261,174.905243 
	C1886.948853,164.588516 1867.537964,164.360687 1847.917603,169.665939 
	C1828.982056,174.785980 1813.189453,185.035172 1800.838989,200.571869 
	C1784.263062,221.424194 1777.692993,244.804520 1784.230591,270.708893 
	C1788.518433,287.698853 1799.623291,299.796021 1815.952515,307.121521 
	C1827.652954,312.370483 1839.801270,313.306671 1853.220947,312.999908 
M713.498779,503.000000 
	C719.449402,503.000000 725.399963,503.000000 732.451599,503.000000 
	C706.535034,471.342224 692.010376,435.544769 685.672974,395.898071 
	C684.804565,396.292114 684.085083,396.569336 683.411316,396.931610 
	C669.228882,404.556946 655.321960,412.506744 642.598755,422.581238 
	C630.456238,432.196045 619.880737,442.901367 613.508850,457.103638 
	C607.361450,470.805664 606.724670,484.774078 612.875122,498.863556 
	C614.322998,502.180481 616.114075,503.088501 619.552917,503.074402 
	C650.534546,502.947174 681.517029,503.000000 713.498779,503.000000 
M1096.502319,166.000000 
	C1094.004883,166.000000 1091.507446,166.000000 1089.010010,166.000000 
	C1080.691772,166.000000 1080.469482,165.959763 1078.971313,174.236923 
	C1076.480835,187.996323 1074.216187,201.798676 1072.026733,215.609940 
	C1069.884644,229.123947 1068.077759,242.691452 1065.901855,256.199738 
	C1063.035889,273.992126 1059.953613,291.749634 1056.920288,309.783081 
	C1074.327515,309.783081 1091.422241,309.783081 1108.922729,309.783081 
	C1116.504517,261.916290 1124.077637,214.103745 1131.697021,166.000000 
	C1120.120972,166.000000 1108.811401,166.000000 1096.502319,166.000000 
M1167.500000,391.000000 
	C1081.101685,391.000000 994.703247,391.000000 908.328613,391.000000 
	C908.328613,395.652527 908.328613,399.713257 908.328613,403.708313 
	C1075.002930,403.708313 1241.348389,403.708313 1407.671387,403.708313 
	C1407.671387,399.349976 1407.671387,395.290466 1407.671387,391.302063 
	C1407.029419,391.164185 1406.714478,391.037323 1406.399536,391.037231 
	C1327.099731,391.019012 1247.799805,391.009613 1167.500000,391.000000 
M2177.005127,438.344879 
	C2177.082764,438.062042 2177.128418,437.762909 2177.257812,437.506287 
	C2177.296875,437.429352 2177.688721,437.408478 2177.719727,437.467041 
	C2178.820312,439.550262 2179.802002,441.701843 2180.992920,443.730927 
	C2188.314941,456.205902 2195.662842,468.665863 2203.082031,481.083252 
	C2203.581299,481.919373 2204.721191,482.890930 2205.583252,482.910034 
	C2212.353516,483.060120 2219.128662,482.993317 2225.693848,482.993317 
	C2228.638184,458.708893 2231.510498,435.017670 2234.391602,411.255768 
	C2227.317627,411.255768 2221.219727,411.255768 2215.127930,411.255768 
	C2213.274170,426.026184 2211.452393,440.543030 2209.531006,455.851868 
	C2201.071777,441.496002 2193.251953,428.056610 2185.192871,414.762054 
	C2184.193848,413.114014 2181.995850,411.302887 2180.232910,411.170197 
	C2174.294922,410.723297 2168.302979,411.000153 2161.991455,411.000153 
	C2159.007324,435.090088 2156.060547,458.878632 2153.100098,482.778076 
	C2159.831299,482.778076 2166.260010,482.778076 2173.035400,482.778076 
	C2174.368408,468.126282 2175.684326,453.661499 2177.005127,438.344879 
M1685.978516,479.758057 
	C1687.415405,480.838562 1688.811890,482.783447 1690.295898,482.852539 
	C1697.358887,483.181274 1704.445435,482.999603 1711.888672,482.999603 
	C1703.397461,470.858582 1695.225952,459.174500 1687.207642,447.709473 
	C1696.327026,435.554016 1705.232910,423.683228 1714.748291,411.000000 
	C1707.907104,411.000000 1701.970093,410.664368 1696.103638,411.161194 
	C1693.674927,411.366882 1690.669434,412.773956 1689.180908,414.636993 
	C1683.745972,421.438873 1678.879517,428.692719 1673.679810,435.687683 
	C1673.093628,436.476166 1671.750244,436.701660 1670.437500,437.345367 
	C1671.433105,428.202423 1672.342041,419.856445 1673.281616,411.227539 
	C1666.613770,411.227539 1660.525269,411.227539 1654.144775,411.227539 
	C1651.201294,435.078674 1648.263672,458.881866 1645.311768,482.801392 
	C1651.770142,482.801392 1658.207031,482.801392 1664.647949,482.801392 
	C1665.889038,472.886658 1667.105835,463.165741 1668.326904,453.409790 
	C1674.148682,462.062408 1679.874390,470.572418 1685.978516,479.758057 
M1908.635132,427.829895 
	C1904.026611,434.449310 1899.425781,441.074066 1894.808105,447.687042 
	C1886.649658,459.370667 1878.481079,471.047119 1870.221558,482.862854 
	C1891.618164,482.862854 1912.585449,482.862854 1934.009399,482.862854 
	C1934.687500,477.624481 1935.355591,472.463440 1936.085693,466.822937 
	C1925.118286,466.822937 1914.770752,466.822937 1904.124878,466.822937 
	C1917.130005,447.912292 1929.843018,429.426361 1943.019653,410.266357 
	C1922.240479,410.266357 1902.693726,410.266357 1883.295166,410.266357 
	C1882.550415,415.855286 1881.843018,421.164093 1881.058228,427.053772 
	C1890.192627,427.053772 1899.297241,427.053772 1908.635132,427.829895 
M1763.010132,436.137482 
	C1755.908081,432.762115 1749.264771,434.802216 1745.957275,441.155090 
	C1743.133301,446.579193 1740.062012,451.874481 1736.901733,457.585144 
	C1734.304443,449.596405 1731.947266,442.345856 1729.647217,435.271423 
	C1723.276367,435.271423 1717.188232,435.271423 1710.669434,435.271423 
	C1711.093140,436.856537 1711.368408,438.103210 1711.758545,439.312714 
	C1715.546021,451.051270 1719.348022,462.785095 1723.155029,474.517334 
	C1725.908447,483.002411 1725.936523,482.625763 1734.973755,483.151947 
	C1739.770874,483.431213 1741.974121,481.373016 1743.853760,477.604950 
	C1746.944702,471.408661 1750.269531,465.329102 1753.892944,458.446014 
	C1756.248779,467.140472 1758.369141,474.965790 1760.546021,483.000000 
	C1764.014648,483.000000 1767.504639,482.857117 1770.976562,483.045685 
	C1773.707275,483.194031 1775.338013,482.455078 1776.804565,479.846527 
	C1783.022461,468.787506 1789.578979,457.918945 1795.999268,446.973511 
	C1798.266968,443.107422 1800.498535,439.220123 1802.945190,435.000000 
	C1796.688110,435.000000 1791.176147,435.257996 1785.704712,434.899384 
	C1782.617188,434.697021 1781.313599,436.155121 1780.061890,438.449127 
	C1776.816772,444.395996 1773.471313,450.288055 1769.868286,456.734314 
	C1767.535034,449.595490 1765.462158,443.253448 1763.010132,436.137482 
M1085.000000,117.341240 
	C1085.893555,127.638565 1090.509888,135.889954 1100.593140,138.834015 
	C1120.308594,144.590439 1137.563354,133.031708 1142.773315,114.935539 
	C1146.872070,100.698952 1139.989868,87.830963 1127.334839,84.056152 
	C1107.069458,78.011314 1085.271240,94.325256 1085.000000,117.341240 
M1808.368774,447.088257 
	C1804.834595,455.006927 1803.688599,463.068054 1806.879639,471.402649 
	C1809.796631,479.021240 1814.700684,484.310944 1823.417236,483.901550 
	C1829.281494,483.626099 1835.101929,482.415375 1840.664185,481.660767 
	C1846.633545,484.756592 1853.320312,482.032074 1859.558472,483.092010 
	C1861.526001,466.873047 1863.435791,451.129883 1865.392456,435.000000 
	C1860.048340,435.000000 1855.582153,434.969727 1851.116821,435.015839 
	C1849.479980,435.032745 1847.839722,435.183807 1846.210571,435.360352 
	C1844.820923,435.510986 1843.218262,436.360077 1842.097534,435.917694 
	C1829.568237,430.972321 1815.247681,434.421082 1808.368774,447.088257 
M2407.962646,458.208832 
	C2408.696533,450.611603 2409.430176,443.014374 2410.204346,435.000977 
	C2404.141846,435.000977 2398.677734,434.974274 2393.214355,435.033691 
	C2392.506592,435.041351 2391.820312,435.581696 2391.094238,435.720490 
	C2389.940674,435.940979 2388.432861,436.569885 2387.647461,436.089539 
	C2382.283936,432.808197 2376.153809,433.171906 2370.830566,434.350281 
	C2365.882080,435.445679 2360.778564,438.646057 2357.150635,442.312500 
	C2349.722412,449.819824 2348.535645,459.615265 2351.157471,469.475525 
	C2352.789062,475.612976 2355.978027,481.298248 2363.072510,483.041168 
	C2370.924316,484.970154 2378.568604,484.949615 2385.579102,480.162964 
	C2386.815430,483.275665 2396.208740,484.238098 2404.624756,482.425964 
	C2405.591064,474.552612 2406.545410,466.776306 2407.962646,458.208832 
M2301.999756,437.532898 
	C2301.819580,436.774170 2301.645752,435.354370 2301.458252,435.352570 
	C2295.368408,435.293884 2289.275635,435.325317 2283.186768,435.471191 
	C2282.063477,435.498077 2280.537842,436.705627 2279.902588,436.290375 
	C2274.606934,432.827209 2268.689209,433.736450 2263.092285,434.163422 
	C2257.387207,434.598633 2252.724609,437.807251 2248.932617,442.290558 
	C2242.053955,450.423096 2240.477051,459.788849 2243.167969,469.642059 
	C2244.838867,475.760040 2248.137939,481.352112 2255.234619,483.080750 
	C2263.111572,484.999481 2270.716064,484.796783 2277.727295,480.106995 
	C2278.903809,483.341614 2284.872559,484.040619 2296.747314,482.567566 
	C2297.231445,477.561279 2297.612061,472.520721 2298.226562,467.508789 
	C2299.414795,457.820862 2300.734863,448.149078 2301.999756,437.532898 
M2869.973633,465.286652 
	C2874.480469,455.805450 2875.463623,445.765961 2872.769775,435.827759 
	C2869.997314,425.601410 2864.159912,416.849701 2853.007568,414.756592 
	C2844.350098,413.131744 2835.317383,413.452759 2826.443359,413.132599 
	C2825.662354,413.104462 2824.222412,414.661743 2824.100830,415.612152 
	C2822.942383,424.672272 2822.085449,433.770569 2820.972412,442.837067 
	C2820.161133,449.444885 2818.974365,456.006744 2818.176025,462.615875 
	C2817.367188,469.312531 2816.830322,476.042053 2816.150391,483.000000 
	C2825.058838,483.000000 2833.542725,482.980804 2842.026611,483.004486 
	C2854.756592,483.040039 2863.869629,477.263885 2869.973633,465.286652 
M2053.763916,435.000000 
	C2049.887207,434.408997 2049.197021,436.694763 2048.949707,439.897125 
	C2048.397217,447.059143 2047.993164,454.273163 2046.765747,461.333374 
	C2044.788574,472.705322 2051.276855,481.402344 2060.295654,482.875305 
	C2066.412109,483.874237 2072.799561,484.422455 2078.934082,483.823944 
	C2088.439697,482.896606 2096.453369,478.340454 2098.044678,467.218933 
	C2098.407227,464.685425 2099.340088,462.229095 2099.649902,459.693176 
	C2100.633301,451.636444 2101.446289,443.558929 2102.378662,435.001007 
	C2096.543213,435.001007 2091.410400,434.797638 2086.316650,435.154144 
	C2085.146729,435.236023 2083.417480,437.097412 2083.148193,438.390381 
	C2082.419678,441.886749 2082.425781,445.528961 2081.978760,449.093018 
	C2081.394775,453.747406 2080.918701,458.440857 2079.904297,463.008240 
	C2078.964111,467.241882 2075.309082,469.533234 2071.572266,468.692688 
	C2069.052734,468.125946 2065.232666,464.588989 2065.346436,462.569519 
	C2065.860107,453.452454 2067.568115,444.402649 2068.892334,435.000000 
	C2063.997314,435.000000 2059.352783,435.000000 2053.763916,435.000000 
M1965.019409,465.199982 
	C1964.683838,464.304993 1963.963013,463.359802 1964.072021,462.522736 
	C1965.255249,453.443146 1966.568481,444.380524 1967.863892,435.189087 
	C1961.470215,435.189087 1955.351807,435.189087 1949.070435,435.189087 
	C1948.697021,437.576782 1948.279297,439.796661 1948.013184,442.034607 
	C1947.242920,448.512024 1946.819336,455.044800 1945.737061,461.467743 
	C1943.845459,472.691132 1949.960815,481.084259 1958.965088,482.831940 
	C1965.190308,484.040222 1971.822021,484.524689 1978.095703,483.802185 
	C1988.208130,482.637543 1994.116943,478.813354 1996.671997,469.457977 
	C1998.453613,462.934937 1999.059570,456.073578 1999.957764,449.332306 
	C2000.575195,444.698181 2000.793945,440.010864 2001.220459,435.000092 
	C1995.703857,435.000092 1990.893066,435.170380 1986.101440,434.940216 
	C1982.905762,434.786713 1982.269897,436.634216 1982.006714,439.072632 
	C1981.323853,445.398224 1981.003784,451.787750 1979.871338,458.030670 
	C1979.199219,461.735474 1979.343384,466.161163 1974.504028,468.082184 
	C1970.706055,469.589783 1967.931641,468.716766 1965.019409,465.199982 
M2019.004761,405.597839 
	C2018.992432,407.427490 2019.164429,409.280365 2018.937256,411.082916 
	C2017.678467,421.069031 2016.345337,431.046021 2014.992188,441.019928 
	C2014.054688,447.929718 2012.931152,454.815948 2012.097168,461.737579 
	C2011.263306,468.656799 2010.686035,475.606903 2009.981445,482.692566 
	C2016.505249,482.692566 2022.718018,482.692566 2028.834595,482.692566 
	C2032.048340,456.424683 2035.223999,430.469421 2038.499878,403.694611 
	C2031.457275,404.042603 2025.261597,404.348755 2019.004761,405.597839 
M2444.000000,431.577179 
	C2445.118896,422.471680 2446.237793,413.366150 2447.351318,404.303467 
	C2440.261475,404.303467 2434.182617,404.303467 2428.402100,404.303467 
	C2425.183838,430.593384 2422.005859,456.552429 2418.805664,482.696045 
	C2425.500000,482.696045 2431.714844,482.696045 2437.873779,482.696045 
	C2438.676514,475.422638 2439.374512,468.446198 2440.232666,461.489532 
	C2441.425537,451.818604 2442.738281,442.162445 2444.000000,431.577179 
M2526.999756,459.396423 
	C2527.083252,457.979095 2527.166748,456.561798 2527.258789,455.000000 
	C2531.282959,455.000000 2534.928223,455.010010 2538.573730,454.998016 
	C2547.152100,454.969818 2554.915771,449.231689 2557.520508,441.006744 
	C2560.716064,430.915222 2557.188721,419.917938 2549.343262,416.117035 
	C2541.058594,412.103271 2532.103271,413.064026 2523.317871,413.137146 
	C2522.539551,413.143677 2521.213867,414.752197 2521.091064,415.734955 
	C2519.942871,424.947174 2519.096436,434.196838 2517.967285,443.411682 
	C2517.178955,449.843628 2515.944336,456.221069 2515.166260,462.654022 
	C2514.358154,469.339233 2513.859375,476.061920 2513.214600,482.883118 
	C2516.876465,482.883118 2520.169434,482.883118 2523.840576,482.883118 
	C2524.899170,475.325104 2525.949707,467.826569 2526.999756,459.396423 
M2339.036133,425.795105 
	C2339.432861,423.657715 2339.829346,421.520294 2340.251709,419.244568 
	C2333.393311,419.244568 2327.299805,419.244568 2321.169922,419.244568 
	C2320.763916,423.208771 2320.101807,426.935181 2320.085449,430.664368 
	C2320.071289,433.854706 2319.131104,435.130890 2315.794189,435.135742 
	C2314.278564,435.137970 2311.707764,436.350250 2311.443848,437.451630 
	C2310.563965,441.123718 2310.511230,444.993988 2310.138428,448.819824 
	C2312.684570,448.977478 2314.765625,449.106323 2317.367188,449.267426 
	C2316.103760,460.622864 2314.883301,471.592926 2313.614014,482.999695 
	C2319.367920,482.999695 2324.343994,483.199188 2329.283936,482.864014 
	C2330.571777,482.776611 2332.652344,481.161102 2332.827881,480.012054 
	C2334.106201,471.641907 2335.431641,463.232086 2335.823242,454.792175 
	C2336.034912,450.235107 2337.048340,448.232269 2341.749023,448.969696 
	C2343.023438,449.169586 2344.355713,449.000000 2345.948486,449.000000 
	C2346.585693,444.263733 2347.182373,439.830475 2347.843994,434.913879 
	C2344.571045,434.913879 2341.334229,434.913879 2338.493408,434.913879 
	C2338.683105,431.855927 2338.843018,429.277435 2339.036133,425.795105 
M2626.721924,413.205353 
	C2622.848633,413.205353 2618.975342,413.205353 2615.076660,413.205353 
	C2615.076660,414.188629 2614.900879,414.772491 2615.103271,415.157867 
	C2618.314697,421.272980 2622.249756,427.108765 2624.659912,433.519623 
	C2628.002930,442.413269 2635.338135,450.111237 2632.196533,461.162445 
	C2630.238770,468.050232 2630.199463,475.483307 2629.258301,482.998871 
	C2632.126465,482.998871 2634.961670,483.216370 2637.734131,482.894592 
	C2638.885010,482.761017 2640.712891,481.597565 2640.849365,480.693573 
	C2641.773193,474.576477 2642.375244,468.408295 2642.985596,462.247162 
	C2643.543945,456.613068 2644.168701,451.165375 2647.963867,446.404175 
	C2652.073486,441.248413 2655.630127,435.644257 2659.314209,430.159149 
	C2663.007080,424.660828 2666.559814,419.068268 2670.510498,413.000000 
	C2668.107422,413.000000 2666.542969,413.293335 2665.134521,412.948914 
	C2659.147705,411.485077 2655.991211,414.816986 2653.170410,419.354156 
	C2648.848145,426.305847 2644.261230,433.092834 2639.552490,440.308868 
	C2635.321045,431.182159 2631.303467,422.516449 2626.721924,413.205353 
M2809.354980,413.000000 
	C2796.719727,413.000000 2784.084473,413.000000 2771.159668,413.000000 
	C2770.673828,416.682587 2770.220459,420.120636 2769.707031,424.013184 
	C2775.487305,424.013184 2780.590332,424.013184 2786.100830,424.013184 
	C2783.685303,443.837799 2781.319824,463.250336 2778.939697,482.783295 
	C2782.921875,482.783295 2786.357178,482.783295 2789.963867,482.783295 
	C2792.400146,463.120117 2794.812988,443.647949 2797.248047,423.995728 
	C2802.536865,423.995728 2807.499268,423.995728 2812.827148,423.995728 
	C2813.320068,420.378082 2813.788574,416.940247 2814.325684,413.000000 
	C2812.564941,413.000000 2811.440674,413.000000 2809.354980,413.000000 
M2587.000000,476.332458 
	C2589.043945,458.924255 2591.087891,441.516052 2593.150391,423.949036 
	C2598.609131,423.949036 2603.573730,423.949036 2608.847656,423.949036 
	C2609.326660,420.324127 2609.781006,416.887421 2610.270508,413.184387 
	C2595.518799,413.184387 2581.425049,413.184387 2567.132812,413.184387 
	C2566.670898,416.764343 2566.227539,420.202667 2565.725342,424.095276 
	C2571.604248,424.095276 2576.707764,424.095276 2582.099854,424.095276 
	C2579.687256,443.906860 2577.322754,463.322723 2574.941895,482.871826 
	C2578.906250,482.871826 2582.200928,482.871826 2585.541016,482.871826 
	C2586.044189,480.927795 2586.520996,479.086212 2587.000000,476.332458 
M2746.512451,483.000000 
	C2752.619873,483.000000 2758.727295,483.000000 2764.636719,483.000000 
	C2765.075195,479.434570 2765.447021,476.410767 2765.877686,472.908142 
	C2759.223145,472.908142 2752.665771,472.908142 2746.373779,472.908142 
	C2748.772217,452.708221 2751.117920,432.954620 2753.487061,413.000977 
	C2749.971191,413.000977 2747.586914,412.697327 2745.340088,413.121460 
	C2744.108398,413.354034 2742.275635,414.701599 2742.134521,415.739471 
	C2740.906982,424.773865 2740.087402,433.862579 2738.971436,442.913605 
	C2738.158447,449.509247 2736.953369,456.056824 2736.156006,462.653992 
	C2735.348145,469.338867 2734.827148,476.058411 2734.157715,483.000000 
	C2738.229004,483.000000 2741.874756,483.000000 2746.512451,483.000000 
M2678.001465,471.415222 
	C2674.346191,479.436584 2670.855469,487.539642 2666.935059,495.429260 
	C2665.768555,497.776917 2665.627441,499.127899 2668.118164,499.967743 
	C2670.347412,500.719482 2672.454102,504.205200 2675.038330,500.058258 
	C2684.064453,485.573212 2689.486084,469.770294 2690.833740,452.894501 
	C2692.035156,437.851929 2690.240723,422.937500 2685.093994,408.539886 
	C2684.063232,405.655884 2682.910645,405.962891 2680.855225,406.962250 
	C2678.714111,408.003143 2675.362061,407.654510 2676.281738,411.740997 
	C2677.942139,419.118439 2679.533936,426.513428 2681.010254,433.929779 
	C2683.494873,446.412323 2681.601562,458.570374 2678.001465,471.415222 
M2492.000000,470.384766 
	C2490.198975,448.541290 2496.712646,428.901611 2508.308105,410.506470 
	C2505.547607,408.830597 2503.110840,407.351135 2500.467529,405.746368 
	C2498.684326,408.691132 2496.906738,411.367859 2495.383545,414.182373 
	C2481.833496,439.221680 2479.873291,465.674835 2486.061279,493.030182 
	C2488.136963,502.204773 2488.739258,502.409454 2497.416016,499.850677 
	C2497.648193,499.782288 2497.780273,499.375031 2497.107666,500.313507 
	C2495.285156,489.979584 2493.642578,480.664917 2492.000000,470.384766 
M2114.005615,447.475128 
	C2113.431641,451.892853 2112.857666,456.310577 2112.279541,460.760681 
	C2121.906250,460.760681 2131.343994,460.760681 2140.780762,460.760681 
	C2141.367188,455.758118 2141.925781,450.991302 2142.446777,446.546356 
	C2132.948730,446.546356 2123.511963,446.546356 2114.005615,447.475128 
z"/>
<path fill="#006FBA" opacity="1.000000" stroke="none" 
	d="
M654.286438,278.291321 
	C668.938904,269.812866 683.288879,261.560852 698.129578,253.026657 
	C695.906372,261.870392 693.564270,270.237701 691.738464,278.716187 
	C689.892090,287.290192 688.732178,296.012543 686.859680,304.579956 
	C686.455200,306.430511 684.621582,308.525330 682.884460,309.436401 
	C672.647705,314.805420 662.122375,319.627991 651.923950,325.065552 
	C632.124390,335.622345 612.537781,346.644012 594.965149,360.687347 
	C575.813354,375.992706 560.540527,394.453094 553.930603,418.607758 
	C550.854614,429.848511 548.223511,441.411835 547.289490,452.982178 
	C546.328918,464.881958 549.877808,476.529816 554.331421,487.639771 
	C556.609253,493.321808 559.392517,498.801208 562.113342,504.734131 
	C397.365326,504.734131 232.999985,504.734131 68.634636,504.734131 
	C68.561440,504.528900 68.488251,504.323639 68.415062,504.118408 
	C73.453667,502.749359 78.488869,501.367615 83.531456,500.013397 
	C109.019081,493.168488 134.717117,487.016418 159.952805,479.343506 
	C208.114761,464.699768 256.245575,449.879242 303.944244,433.810883 
	C338.739777,422.089264 373.006683,408.717102 407.165497,395.211273 
	C436.235565,383.717407 464.957367,371.305573 493.565063,358.691589 
	C515.702332,348.930542 537.511536,338.408264 559.303650,327.887024 
	C575.849121,319.898865 592.225708,311.547607 608.515930,303.048157 
	C623.782349,295.082947 638.836426,286.710815 654.286438,278.291321 
z"/>
<path fill="#000000" opacity="1.000000" stroke="none" 
	d="
M2631.977783,337.837341 
	C2638.830566,346.125519 2647.249268,348.415344 2657.607910,347.195679 
	C2668.733398,345.885712 2677.170898,340.997559 2681.959717,331.234253 
	C2685.228271,324.570770 2686.917969,317.089844 2688.919922,309.865295 
	C2690.052734,305.775726 2690.390381,301.465820 2691.014893,297.686340 
	C2683.650146,301.606018 2676.797363,306.225098 2669.274658,309.075928 
	C2646.030273,317.884674 2616.915527,313.088989 2601.917236,290.274841 
	C2596.166504,281.527191 2593.467529,271.597809 2592.951660,261.031921 
	C2592.091064,243.405579 2595.462891,226.820816 2603.956543,211.275497 
	C2616.980957,187.436890 2636.320068,171.838623 2663.297363,167.175095 
	C2678.564453,164.535934 2693.360840,166.656143 2705.713135,177.345749 
	C2707.491699,178.884735 2708.785889,180.983109 2710.532471,183.098984 
	C2712.035400,171.000000 2712.035400,171.000000 2724.020264,171.000000 
	C2734.642090,171.000000 2745.263672,171.000000 2755.825684,171.000000 
	C2752.163330,193.165527 2748.670654,214.895477 2744.962402,236.588623 
	C2740.737305,261.305908 2737.029785,286.142792 2731.767822,310.642181 
	C2727.323242,331.335785 2718.676025,350.449097 2701.899902,364.480408 
	C2691.733643,372.983429 2679.724365,378.305481 2666.550293,379.843964 
	C2656.897461,380.971191 2647.008057,381.549225 2637.348389,380.791199 
	C2623.178955,379.679199 2610.117676,374.947266 2598.919434,365.523926 
	C2585.948730,354.609253 2581.407471,340.815186 2583.297363,324.203430 
	C2597.995361,324.203430 2612.607910,324.203430 2627.021484,324.203430 
	C2628.653809,328.606537 2630.294189,333.032135 2631.977783,337.837341 
M2680.308105,202.000000 
	C2678.309814,202.004944 2676.262939,201.725525 2674.320557,202.058090 
	C2650.945068,206.060654 2633.247559,232.153656 2637.875977,253.575119 
	C2641.798096,271.726562 2655.135742,279.689331 2671.946045,276.785065 
	C2691.674805,273.376678 2710.094727,248.799210 2706.170166,227.233597 
	C2703.800781,214.214783 2694.579102,203.517761 2680.308105,202.000000 
z"/>
<path fill="#006FBA" opacity="1.000000" stroke="none" 
	d="
M932.036621,261.266418 
	C933.376343,253.291519 934.733887,245.771149 935.989319,238.233765 
	C938.315063,224.269913 940.633606,210.304443 942.855591,196.323837 
	C944.645935,185.059311 946.223083,173.760895 948.017029,162.496979 
	C949.884766,150.769211 951.973816,139.076584 953.822510,127.345970 
	C955.015869,119.773514 955.921448,112.156097 957.023376,104.568611 
	C957.277710,102.817589 957.807434,101.106575 958.251404,99.201263 
	C998.745056,99.201263 1039.178345,99.201263 1079.566284,99.201263 
	C1077.701172,111.207031 1075.841187,123.117973 1074.007446,135.032944 
	C1073.610229,137.613800 1073.359009,140.217438 1072.946533,142.795532 
	C1072.485962,145.673889 1070.586548,146.075165 1067.945679,146.059509 
	C1049.124512,145.947861 1030.302124,145.999985 1011.480164,146.000000 
	C1009.834473,146.000000 1008.188782,146.000000 1006.340759,146.000000 
	C1004.522156,157.310822 1002.747009,168.351868 1000.900940,179.833649 
	C1020.900269,179.833649 1040.655273,179.833649 1060.670044,179.833649 
	C1058.397339,194.978989 1056.287354,209.701492 1053.791138,224.358231 
	C1053.600586,225.477066 1050.684692,226.867569 1049.021729,226.886047 
	C1032.200684,227.072861 1015.376648,226.999985 998.553467,227.000000 
	C996.908569,227.000000 995.263672,227.000000 993.342224,227.000000 
	C991.203064,241.198776 989.130615,255.176743 986.983093,269.143158 
	C985.028198,281.856506 983.073669,294.571747 980.846985,307.238312 
	C980.653137,308.341187 978.438416,309.867981 977.148804,309.881256 
	C960.007568,310.058075 942.863892,309.999329 924.725220,309.999329 
	C925.654297,303.844055 926.536804,298.000977 927.418091,292.157684 
	C928.948608,282.009644 930.478394,271.861420 932.036621,261.266418 
z"/>
<path fill="#000000" opacity="1.000000" stroke="none" 
	d="
M2020.262939,167.672607 
	C2035.093384,169.677475 2046.300049,179.593262 2048.950684,194.099838 
	C2051.311279,207.017197 2049.781738,219.789230 2047.253052,232.592972 
	C2044.743042,245.302689 2043.090942,258.180481 2040.986084,270.971985 
	C2039.041138,282.792114 2037.054077,294.606476 2034.887817,306.387054 
	C2034.702148,307.397308 2033.041260,308.874908 2032.050415,308.886932 
	C2018.419556,309.052368 2004.786133,308.998566 1991.098511,308.998566 
	C1993.112793,297.448730 1995.051147,286.303711 1997.001343,275.160736 
	C1998.897949,264.325317 2001.003052,253.521790 2002.649780,242.648682 
	C2004.039307,233.473419 2005.441284,224.242188 2005.847656,214.992233 
	C2006.249268,205.852661 1999.885254,199.227753 1989.910645,198.819168 
	C1971.993530,198.085281 1962.876343,209.982803 1959.168579,226.008423 
	C1955.710693,240.953720 1953.644897,256.222198 1951.003174,271.354858 
	C1948.971436,282.993500 1947.069824,294.655884 1944.876831,306.263580 
	C1944.673584,307.338806 1942.790771,308.866425 1941.670288,308.881500 
	C1928.193481,309.063263 1914.713379,308.999115 1901.178589,308.999115 
	C1903.157227,297.200562 1905.023315,285.730957 1907.015869,274.283295 
	C1909.206909,261.695709 1911.581299,249.139984 1913.750244,236.548767 
	C1915.592896,225.851486 1917.165527,215.107574 1919.021362,204.412720 
	C1921.925049,187.680313 1925.065186,170.988693 1927.917969,154.247910 
	C1930.096313,141.465317 1931.919312,128.622559 1934.020020,115.826210 
	C1936.275146,102.088737 1938.619751,88.365059 1941.106201,74.668213 
	C1941.291870,73.644707 1942.919800,72.128136 1943.892822,72.116150 
	C1957.535400,71.948196 1971.180420,72.002159 1984.795898,72.002159 
	C1978.750000,107.399117 1972.763306,142.450211 1966.776611,177.501312 
	C1967.033691,178.010803 1967.290649,178.520309 1967.547729,179.029800 
	C1983.611694,167.957489 2001.077393,164.129501 2020.262939,167.672607 
z"/>
<path fill="#006FBA" opacity="1.000000" stroke="none" 
	d="
M782.387329,273.279663 
	C760.794373,279.251495 739.580505,285.011139 717.859863,290.908417 
	C718.564758,285.340576 718.760315,278.813599 720.306580,272.624023 
	C723.480286,259.919830 727.128906,247.316269 731.146301,234.853149 
	C732.190125,231.614868 734.726379,228.111572 737.576355,226.315491 
	C770.750427,205.409317 802.908630,183.033722 834.052307,159.248581 
	C849.917969,147.131607 865.008911,133.991104 880.301453,121.136536 
	C888.361511,114.361397 896.102417,107.206451 904.817871,99.487534 
	C894.770508,154.052078 884.864319,207.850037 874.924927,261.828369 
	C864.027283,262.562897 853.334839,262.978790 842.713867,264.082458 
	C831.358398,265.262451 820.054016,266.981964 808.758118,268.671875 
	C800.069458,269.971741 791.428650,271.590515 782.387329,273.279663 
z"/>
<path fill="#000000" opacity="1.000000" stroke="none" 
	d="
M2211.230957,278.610779 
	C2203.612793,259.316559 2205.564697,240.563385 2212.506348,222.028793 
	C2218.369629,206.372574 2228.473877,193.844818 2241.912354,184.030029 
	C2256.642578,173.271881 2273.148682,167.985764 2291.424805,166.811081 
	C2306.156250,165.864243 2320.197754,167.469788 2333.374756,173.931152 
	C2351.906738,183.018280 2362.130615,198.012222 2364.052979,218.763367 
	C2366.224121,242.200684 2359.466797,262.667328 2344.735596,280.802979 
	C2331.174805,297.497498 2313.497559,306.843933 2292.664307,311.056030 
	C2278.306396,313.958862 2264.167480,313.667847 2249.978516,310.063873 
	C2232.310059,305.576141 2219.163574,295.664062 2211.230957,278.610779 
M2251.932861,254.470734 
	C2255.519775,272.163513 2269.772461,280.055176 2287.176025,276.305573 
	C2306.395264,272.164795 2320.826904,249.178177 2320.268066,231.680679 
	C2319.618408,211.358490 2301.984619,196.833160 2281.562500,203.681686 
	C2264.920166,209.262558 2247.477295,230.492767 2251.932861,254.470734 
z"/>
<path fill="#000000" opacity="1.000000" stroke="none" 
	d="
M2577.007568,191.079620 
	C2583.114746,199.700974 2586.266357,208.943283 2587.054688,219.171570 
	C2588.036865,231.915070 2586.727295,244.294174 2581.983643,256.181213 
	C2576.645996,269.556641 2569.008789,281.161316 2557.944580,290.841248 
	C2544.843262,302.303619 2529.671387,309.126556 2513.010254,311.724152 
	C2491.420166,315.090240 2470.132080,313.713257 2451.462158,300.072510 
	C2438.514648,290.612396 2432.344482,277.628754 2429.793945,261.986511 
	C2427.735596,249.361710 2430.567139,237.426849 2433.673340,225.809906 
	C2435.907471,217.454590 2441.156738,209.569183 2446.347168,202.406174 
	C2459.759521,183.896713 2478.376221,172.692444 2500.604248,168.329391 
	C2519.657959,164.589401 2538.632080,165.381470 2556.694580,173.932373 
	C2564.927734,177.829926 2570.957764,184.223053 2577.007568,191.079620 
M2484.492432,218.004776 
	C2476.905273,227.304886 2473.064453,237.807816 2473.984131,249.937698 
	C2475.473145,269.572845 2490.643555,280.965851 2510.276611,276.209229 
	C2520.310059,273.778320 2528.076660,267.924286 2533.940186,259.526611 
	C2542.227051,247.658615 2545.756104,235.008087 2541.078125,220.610947 
	C2537.520996,209.663498 2526.322510,201.792694 2515.359619,201.959839 
	C2502.623291,202.154037 2492.942139,208.041656 2484.492432,218.004776 
z"/>
<path fill="#000000" opacity="1.000000" stroke="none" 
	d="
M2815.745117,342.752808 
	C2807.281250,355.182465 2799.122070,367.378754 2790.791504,379.457031 
	C2790.144043,380.395599 2788.297363,380.926666 2787.003174,380.935547 
	C2772.187988,381.036774 2757.371582,380.999939 2741.989502,380.999939 
	C2746.235352,374.535889 2750.147949,368.318390 2754.319580,362.279816 
	C2764.322510,347.800049 2774.489990,333.434113 2784.507568,318.964447 
	C2790.931885,309.685059 2797.048340,300.188446 2803.637695,291.030060 
	C2805.946289,287.821045 2805.979004,285.461487 2804.520264,281.761200 
	C2798.060059,265.374451 2792.157471,248.768127 2786.030762,232.249588 
	C2778.793701,212.737259 2771.527100,193.235764 2764.308594,173.716599 
	C2764.039307,172.988449 2764.134277,172.125595 2764.043457,171.154999 
	C2780.198975,171.154999 2796.176758,171.154999 2812.575439,171.154999 
	C2819.625488,196.201294 2826.726562,221.429871 2834.030518,247.379135 
	C2843.609863,232.932007 2852.806396,219.087204 2861.976318,205.224670 
	C2868.905762,194.748703 2875.736572,184.206421 2882.791260,173.815689 
	C2883.685303,172.498413 2885.657959,171.140717 2887.148682,171.120697 
	C2901.972656,170.921616 2916.800537,171.000031 2932.494873,171.000031 
	C2928.033447,177.884979 2924.022949,184.356735 2919.732666,190.637589 
	C2909.989502,204.900986 2900.018311,219.008987 2890.303223,233.291107 
	C2870.081787,263.017456 2849.978760,292.824432 2829.796631,322.577362 
	C2825.264648,329.258789 2820.606445,335.854523 2815.745117,342.752808 
z"/>
<path fill="#000000" opacity="1.000000" stroke="none" 
	d="
M1634.230591,233.436523 
	C1638.837036,215.219757 1647.031982,199.426270 1660.672485,186.972031 
	C1672.104858,176.533844 1685.734863,170.483215 1701.125732,167.878738 
	C1715.026733,165.526382 1728.552979,165.988739 1742.049438,169.959305 
	C1760.067261,175.260025 1770.414551,187.851685 1774.858398,205.396347 
	C1777.807251,217.038666 1778.053711,228.987396 1775.085693,240.831451 
	C1774.732300,242.241730 1775.037598,243.817047 1775.037598,246.000000 
	C1773.192993,246.000000 1771.445557,246.000000 1769.698120,246.000000 
	C1740.701294,246.000000 1711.703735,246.112350 1682.708618,245.887894 
	C1677.952515,245.851089 1676.367065,247.287430 1676.969604,251.847046 
	C1677.691406,257.309509 1677.288574,263.092926 1678.953247,268.224701 
	C1683.215942,281.366852 1694.919556,283.304749 1705.423218,281.715759 
	C1715.598511,280.176483 1722.901367,273.758972 1729.121460,265.903625 
	C1729.945190,264.863342 1731.844238,263.960693 1733.117432,264.106903 
	C1741.018677,265.014282 1748.887329,266.212891 1756.758667,267.370117 
	C1760.766846,267.959442 1764.758057,268.663910 1770.307739,269.569336 
	C1766.143311,275.381927 1762.781982,281.002960 1758.527222,285.837738 
	C1745.959106,300.119202 1729.598999,308.386139 1711.264038,311.662903 
	C1691.320068,315.227264 1671.651123,313.535339 1653.995972,301.984894 
	C1642.059570,294.175842 1635.556763,282.754578 1633.051636,269.001007 
	C1631.094727,258.257202 1631.216309,247.478470 1633.949951,236.810333 
	C1634.191284,235.868271 1634.013794,234.818924 1634.230591,233.436523 
M1711.798340,195.000076 
	C1696.565918,197.237564 1688.655884,207.505539 1683.310181,220.833145 
	C1701.544556,220.833145 1719.584229,220.833145 1737.614746,220.833145 
	C1738.278687,207.687393 1729.511719,193.080948 1711.798340,195.000076 
z"/>
<path fill="#000000" opacity="1.000000" stroke="none" 
	d="
M2105.977051,171.000000 
	C2109.791260,171.000000 2113.109131,171.000000 2117.068359,171.000000 
	C2116.655518,174.354202 2116.276123,177.437393 2116.010742,179.593353 
	C2123.386230,176.079803 2130.675781,171.341125 2138.666504,169.067047 
	C2154.782227,164.480759 2171.019287,164.421265 2185.774414,174.043274 
	C2194.396729,179.666199 2197.364990,188.674301 2199.044678,198.356293 
	C2201.570068,212.914246 2197.398926,226.761490 2195.057861,240.827148 
	C2192.610352,255.535080 2190.404785,270.283264 2187.973877,284.994110 
	C2186.661621,292.934845 2185.099609,300.834259 2183.629883,308.863586 
	C2169.554443,308.863586 2155.592285,308.863586 2140.769775,308.863586 
	C2141.534912,303.517212 2142.152588,298.298828 2143.048828,293.128754 
	C2144.954834,282.135437 2147.039062,271.173096 2148.988525,260.187103 
	C2151.023926,248.714447 2153.637695,237.291168 2154.743896,225.726273 
	C2155.436523,218.485886 2157.108887,210.422272 2151.437256,203.970108 
	C2145.751709,197.501724 2131.529785,196.969162 2122.875000,202.602798 
	C2113.739258,208.549271 2110.193115,218.015411 2108.156250,227.802505 
	C2104.599121,244.894699 2102.021484,262.189972 2098.986084,279.391846 
	C2097.271729,289.107788 2095.463623,298.807129 2093.651611,308.768219 
	C2079.725342,308.768219 2065.622314,308.768219 2050.605957,308.768219 
	C2058.450928,262.777649 2066.265137,216.966019 2074.105713,171.000000 
	C2084.846680,171.000000 2095.163818,171.000000 2105.977051,171.000000 
z"/>
<path fill="#006FBA" opacity="1.000000" stroke="none" 
	d="
M833.958740,484.827515 
	C832.773376,490.987854 831.619751,496.710419 830.353088,502.993408 
	C822.111328,502.993408 813.461304,503.432343 804.902649,502.740662 
	C802.137695,502.517242 799.428040,499.538361 797.007751,497.454498 
	C779.866760,482.696198 765.351685,465.646118 753.135925,446.629211 
	C740.323181,426.683014 731.788513,404.857147 725.226807,382.212982 
	C724.889709,381.049713 726.512390,378.252411 727.744324,377.862030 
	C743.920349,372.735321 760.085449,367.511169 776.475159,363.143951 
	C786.800964,360.392517 797.486084,358.967163 808.035828,357.091675 
	C811.415222,356.490875 814.869873,356.169739 818.302307,356.037964 
	C829.383972,355.612579 840.469727,355.246124 851.557251,355.039368 
	C856.747925,354.942566 857.673645,356.628204 856.698608,361.741211 
	C853.686584,377.535736 850.947266,393.382141 847.971558,409.183807 
	C845.508728,422.262054 842.763977,435.287415 840.323364,448.369629 
	C838.087708,460.353058 836.091980,472.381287 833.958740,484.827515 
z"/>
<path fill="#000000" opacity="1.000000" stroke="none" 
	d="
M1585.019775,147.215820 
	C1585.836670,142.694839 1586.636108,138.620453 1587.530884,134.061157 
	C1571.929810,134.061157 1557.161743,134.061157 1541.979370,134.061157 
	C1544.020020,121.918045 1545.991943,110.184036 1547.999634,98.237396 
	C1593.193481,98.237396 1638.274536,98.237396 1684.240723,98.237396 
	C1683.371094,104.106796 1682.590332,109.949165 1681.617065,115.759270 
	C1680.870972,120.213600 1679.189453,124.627388 1679.190308,129.058960 
	C1679.191284,133.771652 1677.076660,134.097794 1673.404663,134.054337 
	C1661.246948,133.910385 1649.083862,134.143356 1636.928711,133.914810 
	C1633.160034,133.843964 1632.409912,135.455582 1631.912720,138.728134 
	C1630.261475,149.597885 1628.216919,160.407578 1626.356567,171.246002 
	C1624.549683,181.771317 1622.808228,192.307831 1620.993408,202.831741 
	C1619.124878,213.667206 1617.161499,224.486374 1615.315552,235.325638 
	C1613.494385,246.018127 1611.791748,256.730743 1609.994507,267.427338 
	C1607.687988,281.154022 1605.339111,294.873535 1602.976196,308.786987 
	C1588.105591,308.786987 1573.329956,308.786987 1557.823486,308.786987 
	C1558.694336,303.171814 1559.481934,297.654388 1560.416626,292.161987 
	C1562.234131,281.481018 1564.153809,270.817505 1565.994629,260.140472 
	C1567.836304,249.458160 1569.620728,238.765961 1571.454346,228.082260 
	C1573.287476,217.401749 1575.150024,206.726334 1576.999878,196.048737 
	C1579.208618,183.300919 1581.442383,170.557419 1583.608887,157.802490 
	C1584.179932,154.440552 1584.543701,151.043396 1585.019775,147.215820 
z"/>
<path fill="#006FBA" opacity="1.000000" stroke="none" 
	d="
M1309.605103,198.166580 
	C1306.936890,200.254822 1304.151123,201.862228 1302.495972,204.252625 
	C1300.040039,207.799316 1301.180298,211.534500 1305.190918,212.898682 
	C1312.353760,215.335022 1319.795288,216.941193 1327.085815,219.015289 
	C1340.954712,222.960831 1353.366211,229.023529 1356.873657,244.633987 
	C1360.035278,258.705078 1356.354004,272.011322 1348.531738,283.647644 
	C1337.911377,299.446411 1322.308960,308.720520 1303.734253,311.766235 
	C1292.095215,313.674744 1279.988037,314.596283 1268.268433,313.682800 
	C1252.817261,312.478455 1238.261353,307.126923 1224.922607,297.557922 
	C1230.544434,289.270538 1236.118774,281.003387 1241.750122,272.775085 
	C1244.137329,269.286591 1246.060669,264.000244 1249.272461,263.003448 
	C1252.070679,262.135040 1256.357178,266.204498 1260.033569,267.994385 
	C1269.303833,272.507721 1278.764160,277.093384 1289.342041,275.766388 
	C1293.861206,275.199432 1298.639038,272.800873 1302.256592,269.923645 
	C1306.800781,266.309601 1305.644043,259.782990 1300.149902,257.797852 
	C1291.513672,254.677368 1282.464600,252.721970 1273.692261,249.950653 
	C1262.487183,246.410889 1251.786499,241.543777 1250.003662,228.283630 
	C1249.050415,221.193558 1249.459839,213.539886 1251.063843,206.556213 
	C1256.338745,183.590042 1272.946655,171.587509 1294.192261,165.133621 
	C1306.784546,161.308426 1319.672852,160.284256 1333.012451,161.740540 
	C1344.820923,163.029663 1356.042725,165.447388 1367.573853,170.608459 
	C1359.873657,181.934814 1352.354370,192.995316 1344.957397,203.875671 
	C1333.500244,198.448761 1322.276001,195.064102 1309.605103,198.166580 
z"/>
<path fill="#006FBA" opacity="1.000000" stroke="none" 
	d="
M1382.745728,165.999466 
	C1387.823486,166.564819 1386.098022,162.462494 1386.399658,160.823776 
	C1388.670166,148.486893 1390.463623,136.062210 1392.461060,123.314964 
	C1409.244751,123.314964 1426.317139,123.314964 1444.195312,123.314964 
	C1442.035767,137.403381 1439.886108,151.427139 1437.657715,165.965149 
	C1447.438110,165.965149 1456.531128,165.965149 1466.103394,165.965149 
	C1464.942261,173.812241 1463.895996,181.175034 1462.751343,188.522507 
	C1461.900269,193.985458 1460.576416,199.400314 1460.127808,204.890900 
	C1459.851807,208.268936 1458.613647,209.110565 1455.533936,209.046921 
	C1448.374756,208.899017 1441.209717,209.057541 1434.048584,208.970078 
	C1431.472412,208.938614 1430.281616,209.610275 1429.910645,212.527695 
	C1428.450562,224.004822 1426.729004,235.451553 1424.923584,246.880981 
	C1423.427002,256.355011 1421.576050,265.772858 1420.064209,275.244690 
	C1418.242188,286.658661 1416.612427,298.103302 1414.866577,309.753754 
	C1397.631592,309.753754 1380.543579,309.753754 1362.947266,309.753754 
	C1368.276367,276.224701 1373.576660,242.876236 1378.944702,209.102386 
	C1373.748291,209.102386 1368.653198,209.102386 1362.581299,209.102386 
	C1364.839478,194.501968 1367.013184,180.447769 1369.247803,165.999924 
	C1373.676636,165.999924 1377.976196,165.999924 1382.745728,165.999466 
z"/>
<path fill="#000000" opacity="1.000000" stroke="none" 
	d="
M2365.270996,299.377869 
	C2378.382080,223.429047 2391.259521,147.861526 2404.156250,72.181656 
	C2418.453613,72.181656 2432.554199,72.181656 2447.353027,72.181656 
	C2433.853760,151.183685 2420.404053,229.894608 2406.922607,308.791321 
	C2392.713379,308.791321 2378.606445,308.791321 2364.049072,308.791321 
	C2364.383789,305.732758 2364.710693,302.745972 2365.270996,299.377869 
z"/>
<path fill="#006FBA" opacity="1.000000" stroke="none" 
	d="
M1179.995117,283.876526 
	C1178.555054,292.671997 1177.119019,301.020966 1175.626343,309.698944 
	C1158.772705,309.698944 1141.689453,309.698944 1124.097778,309.698944 
	C1124.809326,304.288086 1125.397339,298.875732 1126.252686,293.505981 
	C1128.095703,281.937286 1130.086060,270.392120 1131.997925,258.834351 
	C1134.281860,245.026825 1136.605347,231.225494 1138.801636,217.404007 
	C1140.617554,205.977234 1142.289551,194.527405 1143.992188,183.082886 
	C1144.712158,178.243332 1145.168945,173.354080 1146.161377,168.573807 
	C1146.378540,167.527695 1148.361572,166.123978 1149.544067,166.111893 
	C1165.508301,165.948502 1181.474854,166.002274 1197.875977,166.002274 
	C1197.504639,172.094971 1197.152710,177.872040 1196.800659,183.649094 
	C1197.121826,183.971069 1197.442993,184.293045 1197.764160,184.615021 
	C1213.171631,167.398819 1232.655518,162.267929 1255.204224,164.347214 
	C1252.623535,180.795135 1250.066772,197.090393 1247.652710,212.475677 
	C1240.155029,211.270813 1233.107422,209.313995 1226.020630,209.159271 
	C1207.316528,208.750931 1194.480835,217.940613 1189.183960,235.629913 
	C1185.848877,246.767792 1184.265747,258.437286 1182.033691,269.895020 
	C1181.162109,274.369019 1180.666260,278.916199 1179.995117,283.876526 
z"/>
<path fill="#000000" opacity="1.000000" stroke="none" 
	d="
M1852.746338,312.999939 
	C1839.801270,313.306671 1827.652954,312.370483 1815.952515,307.121521 
	C1799.623291,299.796021 1788.518433,287.698853 1784.230591,270.708893 
	C1777.692993,244.804520 1784.263062,221.424194 1800.838989,200.571869 
	C1813.189453,185.035172 1828.982056,174.785980 1847.917603,169.665939 
	C1867.537964,164.360687 1886.948853,164.588516 1905.692261,174.905243 
	C1903.498779,187.826889 1901.304443,200.753708 1899.237061,212.933243 
	C1893.215454,209.224548 1887.736328,204.591843 1881.409790,202.214981 
	C1868.191162,197.248825 1855.891602,200.939224 1845.177979,209.432678 
	C1831.574585,220.217102 1824.958008,234.546188 1826.074707,251.955048 
	C1826.885010,264.589172 1835.394897,274.765137 1848.543945,277.938019 
	C1863.308228,281.500641 1875.946411,276.617004 1887.246094,267.246063 
	C1887.836914,266.756195 1888.473999,266.322021 1890.257690,264.988770 
	C1889.197021,271.492828 1888.361816,276.771088 1887.470581,282.039886 
	C1886.337280,288.739655 1885.246094,295.449066 1883.925049,302.112366 
	C1883.665161,303.423065 1882.671143,305.318909 1881.626831,305.627045 
	C1873.794312,307.937988 1865.867554,309.930908 1857.961914,311.991425 
	C1856.400024,312.398499 1854.802246,312.667358 1852.746338,312.999939 
z"/>
<path fill="#006FBA" opacity="1.000000" stroke="none" 
	d="
M712.999023,503.000000 
	C681.517029,503.000000 650.534546,502.947174 619.552917,503.074402 
	C616.114075,503.088501 614.322998,502.180481 612.875122,498.863556 
	C606.724670,484.774078 607.361450,470.805664 613.508850,457.103638 
	C619.880737,442.901367 630.456238,432.196045 642.598755,422.581238 
	C655.321960,412.506744 669.228882,404.556946 683.411316,396.931610 
	C684.085083,396.569336 684.804565,396.292114 685.672974,395.898071 
	C692.010376,435.544769 706.535034,471.342224 732.451599,503.000000 
	C725.399963,503.000000 719.449402,503.000000 712.999023,503.000000 
z"/>
<path fill="#006FBA" opacity="1.000000" stroke="none" 
	d="
M1097.001953,166.000000 
	C1108.811401,166.000000 1120.120972,166.000000 1131.697021,166.000000 
	C1124.077637,214.103745 1116.504517,261.916290 1108.922729,309.783081 
	C1091.422241,309.783081 1074.327515,309.783081 1056.920288,309.783081 
	C1059.953613,291.749634 1063.035889,273.992126 1065.901855,256.199738 
	C1068.077759,242.691452 1069.884644,229.123947 1072.026733,215.609940 
	C1074.216187,201.798676 1076.480835,187.996323 1078.971313,174.236923 
	C1080.469482,165.959763 1080.691772,166.000000 1089.010010,166.000000 
	C1091.507446,166.000000 1094.004883,166.000000 1097.001953,166.000000 
z"/>
<path fill="#006FBA" opacity="1.000000" stroke="none" 
	d="
M1168.000000,391.000000 
	C1247.799805,391.009613 1327.099731,391.019012 1406.399536,391.037231 
	C1406.714478,391.037323 1407.029419,391.164185 1407.671387,391.302063 
	C1407.671387,395.290466 1407.671387,399.349976 1407.671387,403.708313 
	C1241.348389,403.708313 1075.002930,403.708313 908.328613,403.708313 
	C908.328613,399.713257 908.328613,395.652527 908.328613,391.000000 
	C994.703247,391.000000 1081.101685,391.000000 1168.000000,391.000000 
z"/>
<path fill="#000000" opacity="1.000000" stroke="none" 
	d="
M2177.002686,438.770813 
	C2175.684326,453.661499 2174.368408,468.126282 2173.035400,482.778076 
	C2166.260010,482.778076 2159.831299,482.778076 2153.100098,482.778076 
	C2156.060547,458.878632 2159.007324,435.090088 2161.991455,411.000153 
	C2168.302979,411.000153 2174.294922,410.723297 2180.232910,411.170197 
	C2181.995850,411.302887 2184.193848,413.114014 2185.192871,414.762054 
	C2193.251953,428.056610 2201.071777,441.496002 2209.531006,455.851868 
	C2211.452393,440.543030 2213.274170,426.026184 2215.127930,411.255768 
	C2221.219727,411.255768 2227.317627,411.255768 2234.391602,411.255768 
	C2231.510498,435.017670 2228.638184,458.708893 2225.693848,482.993317 
	C2219.128662,482.993317 2212.353516,483.060120 2205.583252,482.910034 
	C2204.721191,482.890930 2203.581299,481.919373 2203.082031,481.083252 
	C2195.662842,468.665863 2188.314941,456.205902 2180.992920,443.730927 
	C2179.802002,441.701843 2178.820312,439.550262 2177.719727,437.467041 
	C2177.688721,437.408478 2177.296875,437.429352 2177.257812,437.506287 
	C2177.128418,437.762909 2177.082764,438.062042 2177.002686,438.770813 
z"/>
<path fill="#000000" opacity="1.000000" stroke="none" 
	d="
M1685.789307,479.420258 
	C1679.874390,470.572418 1674.148682,462.062408 1668.326904,453.409790 
	C1667.105835,463.165741 1665.889038,472.886658 1664.647949,482.801392 
	C1658.207031,482.801392 1651.770142,482.801392 1645.311768,482.801392 
	C1648.263672,458.881866 1651.201294,435.078674 1654.144775,411.227539 
	C1660.525269,411.227539 1666.613770,411.227539 1673.281616,411.227539 
	C1672.342041,419.856445 1671.433105,428.202423 1670.437500,437.345367 
	C1671.750244,436.701660 1673.093628,436.476166 1673.679810,435.687683 
	C1678.879517,428.692719 1683.745972,421.438873 1689.180908,414.636993 
	C1690.669434,412.773956 1693.674927,411.366882 1696.103638,411.161194 
	C1701.970093,410.664368 1707.907104,411.000000 1714.748291,411.000000 
	C1705.232910,423.683228 1696.327026,435.554016 1687.207642,447.709473 
	C1695.225952,459.174500 1703.397461,470.858582 1711.888672,482.999603 
	C1704.445435,482.999603 1697.358887,483.181274 1690.295898,482.852539 
	C1688.811890,482.783447 1687.415405,480.838562 1685.789307,479.420258 
z"/>
<path fill="#000000" opacity="1.000000" stroke="none" 
	d="
M1908.518555,427.441833 
	C1899.297241,427.053772 1890.192627,427.053772 1881.058228,427.053772 
	C1881.843018,421.164093 1882.550415,415.855286 1883.295166,410.266357 
	C1902.693726,410.266357 1922.240479,410.266357 1943.019653,410.266357 
	C1929.843018,429.426361 1917.130005,447.912292 1904.124878,466.822937 
	C1914.770752,466.822937 1925.118286,466.822937 1936.085693,466.822937 
	C1935.355591,472.463440 1934.687500,477.624481 1934.009399,482.862854 
	C1912.585449,482.862854 1891.618164,482.862854 1870.221558,482.862854 
	C1878.481079,471.047119 1886.649658,459.370667 1894.808105,447.687042 
	C1899.425781,441.074066 1904.026611,434.449310 1908.518555,427.441833 
z"/>
<path fill="#000000" opacity="1.000000" stroke="none" 
	d="
M1763.199707,436.524414 
	C1765.462158,443.253448 1767.535034,449.595490 1769.868286,456.734314 
	C1773.471313,450.288055 1776.816772,444.395996 1780.061890,438.449127 
	C1781.313599,436.155121 1782.617188,434.697021 1785.704712,434.899384 
	C1791.176147,435.257996 1796.688110,435.000000 1802.945190,435.000000 
	C1800.498535,439.220123 1798.266968,443.107422 1795.999268,446.973511 
	C1789.578979,457.918945 1783.022461,468.787506 1776.804565,479.846527 
	C1775.338013,482.455078 1773.707275,483.194031 1770.976562,483.045685 
	C1767.504639,482.857117 1764.014648,483.000000 1760.546021,483.000000 
	C1758.369141,474.965790 1756.248779,467.140472 1753.892944,458.446014 
	C1750.269531,465.329102 1746.944702,471.408661 1743.853760,477.604950 
	C1741.974121,481.373016 1739.770874,483.431213 1734.973755,483.151947 
	C1725.936523,482.625763 1725.908447,483.002411 1723.155029,474.517334 
	C1719.348022,462.785095 1715.546021,451.051270 1711.758545,439.312714 
	C1711.368408,438.103210 1711.093140,436.856537 1710.669434,435.271423 
	C1717.188232,435.271423 1723.276367,435.271423 1729.647217,435.271423 
	C1731.947266,442.345856 1734.304443,449.596405 1736.901733,457.585144 
	C1740.062012,451.874481 1743.133301,446.579193 1745.957275,441.155090 
	C1749.264771,434.802216 1755.908081,432.762115 1763.199707,436.524414 
z"/>
<path fill="#006FBA" opacity="1.000000" stroke="none" 
	d="
M1085.000000,116.891754 
	C1085.271240,94.325256 1107.069458,78.011314 1127.334839,84.056152 
	C1139.989868,87.830963 1146.872070,100.698952 1142.773315,114.935539 
	C1137.563354,133.031708 1120.308594,144.590439 1100.593140,138.834015 
	C1090.509888,135.889954 1085.893555,127.638565 1085.000000,116.891754 
z"/>
<path fill="#000000" opacity="1.000000" stroke="none" 
	d="
M1808.651123,446.815002 
	C1815.247681,434.421082 1829.568237,430.972321 1842.097534,435.917694 
	C1843.218262,436.360077 1844.820923,435.510986 1846.210571,435.360352 
	C1847.839722,435.183807 1849.479980,435.032745 1851.116821,435.015839 
	C1855.582153,434.969727 1860.048340,435.000000 1865.392456,435.000000 
	C1863.435791,451.129883 1861.526001,466.873047 1859.558472,483.092010 
	C1853.320312,482.032074 1846.633545,484.756592 1840.664185,481.660767 
	C1835.101929,482.415375 1829.281494,483.626099 1823.417236,483.901550 
	C1814.700684,484.310944 1809.796631,479.021240 1806.879639,471.402649 
	C1803.688599,463.068054 1804.834595,455.006927 1808.651123,446.815002 
M1836.409180,468.998108 
	C1843.669678,467.437592 1844.759033,459.254669 1843.906860,454.089233 
	C1843.334473,450.619995 1838.718750,448.593170 1833.434082,449.000458 
	C1828.415039,449.387360 1824.299683,455.857788 1824.756470,461.555969 
	C1825.157715,466.563232 1830.060303,470.507538 1836.409180,468.998108 
z"/>
<path fill="#000000" opacity="1.000000" stroke="none" 
	d="
M2407.731445,458.604431 
	C2406.545410,466.776306 2405.591064,474.552612 2404.624756,482.425964 
	C2396.208740,484.238098 2386.815430,483.275665 2385.579102,480.162964 
	C2378.568604,484.949615 2370.924316,484.970154 2363.072510,483.041168 
	C2355.978027,481.298248 2352.789062,475.612976 2351.157471,469.475525 
	C2348.535645,459.615265 2349.722412,449.819824 2357.150635,442.312500 
	C2360.778564,438.646057 2365.882080,435.445679 2370.830566,434.350281 
	C2376.153809,433.171906 2382.283936,432.808197 2387.647461,436.089539 
	C2388.432861,436.569885 2389.940674,435.940979 2391.094238,435.720490 
	C2391.820312,435.581696 2392.506592,435.041351 2393.214355,435.033691 
	C2398.677734,434.974274 2404.141846,435.000977 2410.204346,435.000977 
	C2409.430176,443.014374 2408.696533,450.611603 2407.731445,458.604431 
M2388.988037,454.141632 
	C2386.653564,452.427795 2384.518799,449.695343 2381.947266,449.191223 
	C2374.260986,447.684448 2370.637207,453.084381 2369.810303,459.464478 
	C2369.052979,465.307648 2373.718994,470.050629 2379.545410,469.155914 
	C2386.805420,468.041046 2389.000977,464.751495 2388.988037,454.141632 
z"/>
<path fill="#000000" opacity="1.000000" stroke="none" 
	d="
M2302.000000,438.001740 
	C2300.734863,448.149078 2299.414795,457.820862 2298.226562,467.508789 
	C2297.612061,472.520721 2297.231445,477.561279 2296.747314,482.567566 
	C2284.872559,484.040619 2278.903809,483.341614 2277.727295,480.106995 
	C2270.716064,484.796783 2263.111572,484.999481 2255.234619,483.080750 
	C2248.137939,481.352112 2244.838867,475.760040 2243.167969,469.642059 
	C2240.477051,459.788849 2242.053955,450.423096 2248.932617,442.290558 
	C2252.724609,437.807251 2257.387207,434.598633 2263.092285,434.163422 
	C2268.689209,433.736450 2274.606934,432.827209 2279.902588,436.290375 
	C2280.537842,436.705627 2282.063477,435.498077 2283.186768,435.471191 
	C2289.275635,435.325317 2295.368408,435.293884 2301.458252,435.352570 
	C2301.645752,435.354370 2301.819580,436.774170 2302.000000,438.001740 
M2263.959229,453.460052 
	C2263.635010,454.017578 2263.255615,454.550598 2262.995361,455.136414 
	C2260.545654,460.642700 2261.774902,466.026978 2266.036133,468.547119 
	C2269.250488,470.448120 2276.551514,469.002502 2278.594238,465.852142 
	C2281.634521,461.162598 2282.628174,453.715607 2277.999268,450.354126 
	C2274.569336,447.863373 2269.116211,448.528473 2263.959229,453.460052 
z"/>
<path fill="#000000" opacity="1.000000" stroke="none" 
	d="
M2869.768066,465.618896 
	C2863.869629,477.263885 2854.756592,483.040039 2842.026611,483.004486 
	C2833.542725,482.980804 2825.058838,483.000000 2816.150391,483.000000 
	C2816.830322,476.042053 2817.367188,469.312531 2818.176025,462.615875 
	C2818.974365,456.006744 2820.161133,449.444885 2820.972412,442.837067 
	C2822.085449,433.770569 2822.942383,424.672272 2824.100830,415.612152 
	C2824.222412,414.661743 2825.662354,413.104462 2826.443359,413.132599 
	C2835.317383,413.452759 2844.350098,413.131744 2853.007568,414.756592 
	C2864.159912,416.849701 2869.997314,425.601410 2872.769775,435.827759 
	C2875.463623,445.765961 2874.480469,455.805450 2869.768066,465.618896 
M2848.439697,471.079865 
	C2851.225586,469.250000 2854.801270,468.000580 2856.650879,465.483002 
	C2862.559570,457.439392 2864.808594,448.235901 2861.904297,438.448212 
	C2860.167969,432.596039 2857.163086,426.864136 2850.822754,425.200989 
	C2845.557617,423.819946 2839.859619,424.090698 2834.351318,423.629547 
	C2832.278809,440.500397 2830.302979,456.585602 2828.218262,473.555450 
	C2834.862793,472.917328 2841.359619,472.293365 2848.439697,471.079865 
z"/>
<path fill="#000000" opacity="1.000000" stroke="none" 
	d="
M2054.235840,435.000000 
	C2059.352783,435.000000 2063.997314,435.000000 2068.892334,435.000000 
	C2067.568115,444.402649 2065.860107,453.452454 2065.346436,462.569519 
	C2065.232666,464.588989 2069.052734,468.125946 2071.572266,468.692688 
	C2075.309082,469.533234 2078.964111,467.241882 2079.904297,463.008240 
	C2080.918701,458.440857 2081.394775,453.747406 2081.978760,449.093018 
	C2082.425781,445.528961 2082.419678,441.886749 2083.148193,438.390381 
	C2083.417480,437.097412 2085.146729,435.236023 2086.316650,435.154144 
	C2091.410400,434.797638 2096.543213,435.001007 2102.378662,435.001007 
	C2101.446289,443.558929 2100.633301,451.636444 2099.649902,459.693176 
	C2099.340088,462.229095 2098.407227,464.685425 2098.044678,467.218933 
	C2096.453369,478.340454 2088.439697,482.896606 2078.934082,483.823944 
	C2072.799561,484.422455 2066.412109,483.874237 2060.295654,482.875305 
	C2051.276855,481.402344 2044.788574,472.705322 2046.765747,461.333374 
	C2047.993164,454.273163 2048.397217,447.059143 2048.949707,439.897125 
	C2049.197021,436.694763 2049.887207,434.408997 2054.235840,435.000000 
z"/>
<path fill="#000000" opacity="1.000000" stroke="none" 
	d="
M1965.204590,465.555298 
	C1967.931641,468.716766 1970.706055,469.589783 1974.504028,468.082184 
	C1979.343384,466.161163 1979.199219,461.735474 1979.871338,458.030670 
	C1981.003784,451.787750 1981.323853,445.398224 1982.006714,439.072632 
	C1982.269897,436.634216 1982.905762,434.786713 1986.101440,434.940216 
	C1990.893066,435.170380 1995.703857,435.000092 2001.220459,435.000092 
	C2000.793945,440.010864 2000.575195,444.698181 1999.957764,449.332306 
	C1999.059570,456.073578 1998.453613,462.934937 1996.671997,469.457977 
	C1994.116943,478.813354 1988.208130,482.637543 1978.095703,483.802185 
	C1971.822021,484.524689 1965.190308,484.040222 1958.965088,482.831940 
	C1949.960815,481.084259 1943.845459,472.691132 1945.737061,461.467743 
	C1946.819336,455.044800 1947.242920,448.512024 1948.013184,442.034607 
	C1948.279297,439.796661 1948.697021,437.576782 1949.070435,435.189087 
	C1955.351807,435.189087 1961.470215,435.189087 1967.863892,435.189087 
	C1966.568481,444.380524 1965.255249,453.443146 1964.072021,462.522736 
	C1963.963013,463.359802 1964.683838,464.304993 1965.204590,465.555298 
z"/>
<path fill="#000000" opacity="1.000000" stroke="none" 
	d="
M2019.035278,405.126404 
	C2025.261597,404.348755 2031.457275,404.042603 2038.499878,403.694611 
	C2035.223999,430.469421 2032.048340,456.424683 2028.834595,482.692566 
	C2022.718018,482.692566 2016.505249,482.692566 2009.981445,482.692566 
	C2010.686035,475.606903 2011.263306,468.656799 2012.097168,461.737579 
	C2012.931152,454.815948 2014.054688,447.929718 2014.992188,441.019928 
	C2016.345337,431.046021 2017.678467,421.069031 2018.937256,411.082916 
	C2019.164429,409.280365 2018.992432,407.427490 2019.035278,405.126404 
z"/>
<path fill="#000000" opacity="1.000000" stroke="none" 
	d="
M2444.000000,432.038574 
	C2442.738281,442.162445 2441.425537,451.818604 2440.232666,461.489532 
	C2439.374512,468.446198 2438.676514,475.422638 2437.873779,482.696045 
	C2431.714844,482.696045 2425.500000,482.696045 2418.805664,482.696045 
	C2422.005859,456.552429 2425.183838,430.593384 2428.402100,404.303467 
	C2434.182617,404.303467 2440.261475,404.303467 2447.351318,404.303467 
	C2446.237793,413.366150 2445.118896,422.471680 2444.000000,432.038574 
z"/>
<path fill="#000000" opacity="1.000000" stroke="none" 
	d="
M2527.000000,459.862213 
	C2525.949707,467.826569 2524.899170,475.325104 2523.840576,482.883118 
	C2520.169434,482.883118 2516.876465,482.883118 2513.214600,482.883118 
	C2513.859375,476.061920 2514.358154,469.339233 2515.166260,462.654022 
	C2515.944336,456.221069 2517.178955,449.843628 2517.967285,443.411682 
	C2519.096436,434.196838 2519.942871,424.947174 2521.091064,415.734955 
	C2521.213867,414.752197 2522.539551,413.143677 2523.317871,413.137146 
	C2532.103271,413.064026 2541.058594,412.103271 2549.343262,416.117035 
	C2557.188721,419.917938 2560.716064,430.915222 2557.520508,441.006744 
	C2554.915771,449.231689 2547.152100,454.969818 2538.573730,454.998016 
	C2534.928223,455.010010 2531.282959,455.000000 2527.258789,455.000000 
	C2527.166748,456.561798 2527.083252,457.979095 2527.000000,459.862213 
M2547.044678,431.411194 
	C2545.340820,424.832977 2540.215576,422.660004 2531.220215,424.613800 
	C2530.413574,431.713928 2529.611816,438.768005 2528.803711,445.878540 
	C2544.195801,446.101776 2547.386475,441.589996 2547.044678,431.411194 
z"/>
<path fill="#000000" opacity="1.000000" stroke="none" 
	d="
M2339.019531,426.247009 
	C2338.843018,429.277435 2338.683105,431.855927 2338.493408,434.913879 
	C2341.334229,434.913879 2344.571045,434.913879 2347.843994,434.913879 
	C2347.182373,439.830475 2346.585693,444.263733 2345.948486,449.000000 
	C2344.355713,449.000000 2343.023438,449.169586 2341.749023,448.969696 
	C2337.048340,448.232269 2336.034912,450.235107 2335.823242,454.792175 
	C2335.431641,463.232086 2334.106201,471.641907 2332.827881,480.012054 
	C2332.652344,481.161102 2330.571777,482.776611 2329.283936,482.864014 
	C2324.343994,483.199188 2319.367920,482.999695 2313.614014,482.999695 
	C2314.883301,471.592926 2316.103760,460.622864 2317.367188,449.267426 
	C2314.765625,449.106323 2312.684570,448.977478 2310.138428,448.819824 
	C2310.511230,444.993988 2310.563965,441.123718 2311.443848,437.451630 
	C2311.707764,436.350250 2314.278564,435.137970 2315.794189,435.135742 
	C2319.131104,435.130890 2320.071289,433.854706 2320.085449,430.664368 
	C2320.101807,426.935181 2320.763916,423.208771 2321.169922,419.244568 
	C2327.299805,419.244568 2333.393311,419.244568 2340.251709,419.244568 
	C2339.829346,421.520294 2339.432861,423.657715 2339.019531,426.247009 
z"/>
<path fill="#000000" opacity="1.000000" stroke="none" 
	d="
M2627.003906,413.528076 
	C2631.303467,422.516449 2635.321045,431.182159 2639.552490,440.308868 
	C2644.261230,433.092834 2648.848145,426.305847 2653.170410,419.354156 
	C2655.991211,414.816986 2659.147705,411.485077 2665.134521,412.948914 
	C2666.542969,413.293335 2668.107422,413.000000 2670.510498,413.000000 
	C2666.559814,419.068268 2663.007080,424.660828 2659.314209,430.159149 
	C2655.630127,435.644257 2652.073486,441.248413 2647.963867,446.404175 
	C2644.168701,451.165375 2643.543945,456.613068 2642.985596,462.247162 
	C2642.375244,468.408295 2641.773193,474.576477 2640.849365,480.693573 
	C2640.712891,481.597565 2638.885010,482.761017 2637.734131,482.894592 
	C2634.961670,483.216370 2632.126465,482.998871 2629.258301,482.998871 
	C2630.199463,475.483307 2630.238770,468.050232 2632.196533,461.162445 
	C2635.338135,450.111237 2628.002930,442.413269 2624.659912,433.519623 
	C2622.249756,427.108765 2618.314697,421.272980 2615.103271,415.157867 
	C2614.900879,414.772491 2615.076660,414.188629 2615.076660,413.205353 
	C2618.975342,413.205353 2622.848633,413.205353 2627.003906,413.528076 
z"/>
<path fill="#000000" opacity="1.000000" stroke="none" 
	d="
M2809.835449,413.000000 
	C2811.440674,413.000000 2812.564941,413.000000 2814.325684,413.000000 
	C2813.788574,416.940247 2813.320068,420.378082 2812.827148,423.995728 
	C2807.499268,423.995728 2802.536865,423.995728 2797.248047,423.995728 
	C2794.812988,443.647949 2792.400146,463.120117 2789.963867,482.783295 
	C2786.357178,482.783295 2782.921875,482.783295 2778.939697,482.783295 
	C2781.319824,463.250336 2783.685303,443.837799 2786.100830,424.013184 
	C2780.590332,424.013184 2775.487305,424.013184 2769.707031,424.013184 
	C2770.220459,420.120636 2770.673828,416.682587 2771.159668,413.000000 
	C2784.084473,413.000000 2796.719727,413.000000 2809.835449,413.000000 
z"/>
<path fill="#000000" opacity="1.000000" stroke="none" 
	d="
M2586.999023,476.788574 
	C2586.520996,479.086212 2586.044189,480.927795 2585.541016,482.871826 
	C2582.200928,482.871826 2578.906250,482.871826 2574.941895,482.871826 
	C2577.322754,463.322723 2579.687256,443.906860 2582.099854,424.095276 
	C2576.707764,424.095276 2571.604248,424.095276 2565.725342,424.095276 
	C2566.227539,420.202667 2566.670898,416.764343 2567.132812,413.184387 
	C2581.425049,413.184387 2595.518799,413.184387 2610.270508,413.184387 
	C2609.781006,416.887421 2609.326660,420.324127 2608.847656,423.949036 
	C2603.573730,423.949036 2598.609131,423.949036 2593.150391,423.949036 
	C2591.087891,441.516052 2589.043945,458.924255 2586.999023,476.788574 
z"/>
<path fill="#000000" opacity="1.000000" stroke="none" 
	d="
M2746.016602,483.000000 
	C2741.874756,483.000000 2738.229004,483.000000 2734.157715,483.000000 
	C2734.827148,476.058411 2735.348145,469.338867 2736.156006,462.653992 
	C2736.953369,456.056824 2738.158447,449.509247 2738.971436,442.913605 
	C2740.087402,433.862579 2740.906982,424.773865 2742.134521,415.739471 
	C2742.275635,414.701599 2744.108398,413.354034 2745.340088,413.121460 
	C2747.586914,412.697327 2749.971191,413.000977 2753.487061,413.000977 
	C2751.117920,432.954620 2748.772217,452.708221 2746.373779,472.908142 
	C2752.665771,472.908142 2759.223145,472.908142 2765.877686,472.908142 
	C2765.447021,476.410767 2765.075195,479.434570 2764.636719,483.000000 
	C2758.727295,483.000000 2752.619873,483.000000 2746.016602,483.000000 
z"/>
<path fill="#000000" opacity="1.000000" stroke="none" 
	d="
M2678.024414,470.997620 
	C2681.601562,458.570374 2683.494873,446.412323 2681.010254,433.929779 
	C2679.533936,426.513428 2677.942139,419.118439 2676.281738,411.740997 
	C2675.362061,407.654510 2678.714111,408.003143 2680.855225,406.962250 
	C2682.910645,405.962891 2684.063232,405.655884 2685.093994,408.539886 
	C2690.240723,422.937500 2692.035156,437.851929 2690.833740,452.894501 
	C2689.486084,469.770294 2684.064453,485.573212 2675.038330,500.058258 
	C2672.454102,504.205200 2670.347412,500.719482 2668.118164,499.967743 
	C2665.627441,499.127899 2665.768555,497.776917 2666.935059,495.429260 
	C2670.855469,487.539642 2674.346191,479.436584 2678.024414,470.997620 
z"/>
<path fill="#000000" opacity="1.000000" stroke="none" 
	d="
M2492.000000,470.867493 
	C2493.642578,480.664917 2495.285156,489.979584 2497.107666,500.313507 
	C2497.780273,499.375031 2497.648193,499.782288 2497.416016,499.850677 
	C2488.739258,502.409454 2488.136963,502.204773 2486.061279,493.030182 
	C2479.873291,465.674835 2481.833496,439.221680 2495.383545,414.182373 
	C2496.906738,411.367859 2498.684326,408.691132 2500.467529,405.746368 
	C2503.110840,407.351135 2505.547607,408.830597 2508.308105,410.506470 
	C2496.712646,428.901611 2490.198975,448.541290 2492.000000,470.867493 
z"/>
<path fill="#000000" opacity="1.000000" stroke="none" 
	d="
M2114.040527,447.010742 
	C2123.511963,446.546356 2132.948730,446.546356 2142.446777,446.546356 
	C2141.925781,450.991302 2141.367188,455.758118 2140.780762,460.760681 
	C2131.343994,460.760681 2121.906250,460.760681 2112.279541,460.760681 
	C2112.857666,456.310577 2113.431641,451.892853 2114.040527,447.010742 
z"/>
<path fill="#FFFFFF" opacity="1.000000" stroke="none" 
	d="
M2680.760254,202.000031 
	C2694.579102,203.517761 2703.800781,214.214783 2706.170166,227.233597 
	C2710.094727,248.799210 2691.674805,273.376678 2671.946045,276.785065 
	C2655.135742,279.689331 2641.798096,271.726562 2637.875977,253.575119 
	C2633.247559,232.153656 2650.945068,206.060654 2674.320557,202.058090 
	C2676.262939,201.725525 2678.309814,202.004944 2680.760254,202.000031 
z"/>
<path fill="#FFFFFF" opacity="1.000000" stroke="none" 
	d="
M2251.621582,254.153046 
	C2247.477295,230.492767 2264.920166,209.262558 2281.562500,203.681686 
	C2301.984619,196.833160 2319.618408,211.358490 2320.268066,231.680679 
	C2320.826904,249.178177 2306.395264,272.164795 2287.176025,276.305573 
	C2269.772461,280.055176 2255.519775,272.163513 2251.621582,254.153046 
z"/>
<path fill="#FFFFFF" opacity="1.000000" stroke="none" 
	d="
M2484.750732,217.744385 
	C2492.942139,208.041656 2502.623291,202.154037 2515.359619,201.959839 
	C2526.322510,201.792694 2537.520996,209.663498 2541.078125,220.610947 
	C2545.756104,235.008087 2542.227051,247.658615 2533.940186,259.526611 
	C2528.076660,267.924286 2520.310059,273.778320 2510.276611,276.209229 
	C2490.643555,280.965851 2475.473145,269.572845 2473.984131,249.937698 
	C2473.064453,237.807816 2476.905273,227.304886 2484.750732,217.744385 
z"/>
<path fill="#FFFFFF" opacity="1.000000" stroke="none" 
	d="
M1712.253540,195.000031 
	C1729.511719,193.080948 1738.278687,207.687393 1737.614746,220.833145 
	C1719.584229,220.833145 1701.544556,220.833145 1683.310181,220.833145 
	C1688.655884,207.505539 1696.565918,197.237564 1712.253540,195.000031 
z"/>
<path fill="#FFFFFF" opacity="1.000000" stroke="none" 
	d="
M1836.012207,468.999939 
	C1830.060303,470.507538 1825.157715,466.563232 1824.756470,461.555969 
	C1824.299683,455.857788 1828.415039,449.387360 1833.434082,449.000458 
	C1838.718750,448.593170 1843.334473,450.619995 1843.906860,454.089233 
	C1844.759033,459.254669 1843.669678,467.437592 1836.012207,468.999939 
z"/>
<path fill="#FFFFFF" opacity="1.000000" stroke="none" 
	d="
M2388.993652,454.566498 
	C2389.000977,464.751495 2386.805420,468.041046 2379.545410,469.155914 
	C2373.718994,470.050629 2369.052979,465.307648 2369.810303,459.464478 
	C2370.637207,453.084381 2374.260986,447.684448 2381.947266,449.191223 
	C2384.518799,449.695343 2386.653564,452.427795 2388.993652,454.566498 
z"/>
<path fill="#FFFFFF" opacity="1.000000" stroke="none" 
	d="
M2263.996826,453.065002 
	C2269.116211,448.528473 2274.569336,447.863373 2277.999268,450.354126 
	C2282.628174,453.715607 2281.634521,461.162598 2278.594238,465.852142 
	C2276.551514,469.002502 2269.250488,470.448120 2266.036133,468.547119 
	C2261.774902,466.026978 2260.545654,460.642700 2262.995361,455.136414 
	C2263.255615,454.550598 2263.635010,454.017578 2263.996826,453.065002 
z"/>
<path fill="#FFFFFF" opacity="1.000000" stroke="none" 
	d="
M2848.147949,471.374634 
	C2841.359619,472.293365 2834.862793,472.917328 2828.218262,473.555450 
	C2830.302979,456.585602 2832.278809,440.500397 2834.351318,423.629547 
	C2839.859619,424.090698 2845.557617,423.819946 2850.822754,425.200989 
	C2857.163086,426.864136 2860.167969,432.596039 2861.904297,438.448212 
	C2864.808594,448.235901 2862.559570,457.439392 2856.650879,465.483002 
	C2854.801270,468.000580 2851.225586,469.250000 2848.147949,471.374634 
z"/>
<path fill="#FFFFFF" opacity="1.000000" stroke="none" 
	d="
M2547.297852,431.724518 
	C2547.386475,441.589996 2544.195801,446.101776 2528.803711,445.878540 
	C2529.611816,438.768005 2530.413574,431.713928 2531.220215,424.613800 
	C2540.215576,422.660004 2545.340820,424.832977 2547.297852,431.724518 
z"/>
</svg>