<svg xmlns="http://www.w3.org/2000/svg" xml:space="preserve" viewBox="0 0 3004 579"><path fill="#FFF" d="M2249 580H1V1h3004v579h-756M653.984 278.5177c-15.1476 8.1931-30.2017 16.5652-45.468 24.5305-16.2903 8.4994-32.6669 16.8507-49.2124 24.8388-21.792 10.5213-43.6013 21.0435-65.7385 30.8046-28.6077 12.614-57.3295 25.0258-86.3996 36.5197-34.1588 13.5058-68.4257 26.878-103.2213 38.5996-47.6986 16.0683-95.8294 30.8889-143.9914 45.5326-25.2357 7.673-50.9337 13.825-76.4213 20.6699-5.0426 1.3542-10.0778 2.736-15.1164 4.105l.2195.6157h493.4787c-2.7208-5.9329-5.504-11.4123-7.7819-17.0943-4.4536-11.11-8.0025-22.7578-7.042-34.6576.9341-11.5704 3.5652-23.1337 6.6412-34.3744 6.61-24.1547 21.8828-42.615 41.0345-57.9205 17.5727-14.0433 37.1593-25.065 56.9588-35.6217 10.1985-5.4376 20.7238-10.2602 30.9606-15.6292 1.737-.911 3.5707-3.0059 3.9752-4.8564 1.8725-8.5675 3.0324-17.2898 4.8788-25.8638 1.8258-8.4785 4.1679-16.8458 6.391-25.6895-14.8406 8.5342-29.1906 16.7862-44.1456 25.491m1977.951 58.94c-1.6407-4.4256-3.281-8.8512-4.9134-13.2543h-43.7241c-1.89 16.6118 2.6513 30.4059 15.622 41.3205 11.1983 9.4234 24.2596 14.1553 38.429 15.2673 9.6597.758 19.549.18 29.2019-.9472 13.174-1.5385 25.1833-6.8606 35.3496-15.3636 16.7761-14.0313 25.4233-33.1446 29.868-53.8382 5.2619-24.4994 8.9694-49.3363 13.1945-74.0536 3.7083-21.6931 7.201-43.423 10.8633-65.5886h-31.8054c-11.9849 0-11.9849 0-13.4878 12.099-1.7466-2.1159-3.0408-4.2143-4.8194-5.7533-12.3523-10.6896-27.1486-12.8098-42.4157-10.1706-26.9773 4.6635-46.3164 20.2618-59.3409 44.1004-8.4936 15.5453-11.8654 32.13-11.0048 49.7564.5158 10.566 3.2148 20.4953 8.9655 29.243 14.9983 22.814 44.113 27.6098 67.3575 18.801 7.5227-2.8508 14.3754-7.4699 21.7402-11.3896-.6245 3.7795-.9622 8.0894-2.095 12.179-2.002 7.2245-3.6916 14.7055-6.9602 21.369-4.7888 9.7633-13.2263 14.6514-24.3518 15.9614-10.3586 1.2196-18.7773-1.0702-25.673-9.738M932.0084 261.7133c-1.5301 10.1481-3.0599 20.2963-4.5904 30.4444-.8813 5.8433-1.7638 11.6864-2.6929 17.8416 18.1387 0 35.2824.0588 52.4236-.118 1.2896-.0133 3.5043-1.5401 3.6982-2.643 2.2267-12.6666 4.1812-25.3818 6.136-38.0951 2.1476-13.9665 4.22-27.9444 6.3592-42.1432h5.2113c16.8231 0 33.6472.0729 50.4682-.114 1.663-.0184 4.5789-1.409 4.7694-2.5278 2.4963-14.6567 4.6062-29.3792 6.879-44.5246h-59.7692L1006.3408 146h5.1394c18.822 0 37.6443-.0521 56.4655.0595 2.6408.0157 4.5403-.3856 5.0008-3.264.4125-2.578.6637-5.1817 1.061-7.7626 1.8337-11.915 3.6937-23.8259 5.5588-35.8316H958.2514c-.444 1.9053-.9737 3.6163-1.228 5.3673-1.102 7.5875-2.0075 15.205-3.2009 22.7774-1.8487 11.7306-3.9377 23.4232-5.8055 35.151-1.794 11.2639-3.371 22.5623-5.1614 33.8268-2.222 13.9806-4.5405 27.9461-6.8663 41.91-1.2554 7.5373-2.613 15.0577-3.9808 23.4795m1087.9074-94.318c-18.8385-3.2658-36.3042.5622-52.3682 11.6345l-.771-1.5285c5.9866-35.051 11.9733-70.1022 18.0192-105.4991-13.6155 0-27.2605-.054-40.903.114-.9731.012-2.601 1.5285-2.7867 2.552-2.4864 13.6969-4.831 27.4205-7.0862 41.158-2.1007 12.7964-3.9237 25.6391-6.102 38.4217-2.8528 16.7408-5.993 33.4324-8.8966 50.1648-1.8559 10.6949-3.4285 21.4388-5.2712 32.136-2.1689 12.5913-4.5433 25.147-6.7343 37.7346-1.9926 11.4477-3.8587 22.9173-5.8373 34.7158 13.5348 0 27.0149.0642 40.4917-.1176 1.1205-.015 3.0033-1.5427 3.2065-2.618 2.193-11.6076 4.0946-23.27 6.1264-34.9086 2.6417-15.1327 4.7075-30.4012 8.1654-45.3465 3.7077-16.0256 12.825-27.9231 30.742-27.1892 9.9747.4086 16.3387 7.0335 15.937 16.173-.4063 9.25-1.8083 18.4812-3.1978 27.6565-1.6467 10.873-3.7519 21.6766-5.6485 32.512-1.9502 11.143-3.8885 22.288-5.9028 33.8379 13.6876 0 27.321.0538 40.952-.1117.9908-.012 2.6516-1.4896 2.8373-2.4998 2.1663-11.7806 4.1533-23.595 6.0983-35.4151 2.1048-12.7915 3.757-25.6693 6.267-38.379 2.5286-12.8038 4.0582-25.5758 1.6976-38.4932-2.6507-14.5065-13.8573-24.4223-29.0348-26.7044M782.7665 273.0675c8.6621-1.477 17.303-3.0958 25.9916-4.3956 11.296-1.69 22.6003-3.4094 33.9558-4.5894 10.621-1.1037 21.3134-1.5196 32.211-2.2541l29.893-162.3409c-8.7155 7.719-16.4564 14.8739-24.5164 21.649-15.2926 12.8546-30.3835 25.9951-46.2492 38.112-31.1437 23.7852-63.3019 46.1608-96.476 67.067-2.85 1.796-5.3862 5.2994-6.43 8.5376-4.0174 12.4632-7.666 25.0667-10.8397 37.771-1.5463 6.1895-1.7418 12.7165-2.4467 18.2843 21.7206-5.8973 42.9345-11.6569 64.9066-17.8409m1428.6688 5.8828c7.7283 16.7138 20.8748 26.6258 38.5432 31.1136 14.189 3.604 28.3279 3.895 42.6858.9921 20.8333-4.212 38.5105-13.5585 52.0713-30.253 14.7312-18.1357 21.4885-38.6023 19.3174-62.0396-1.9224-20.7512-12.1463-35.7451-30.6782-44.8322-13.177-6.4614-27.2186-8.067-41.95-7.1201-18.2761 1.1747-34.7822 6.4608-49.5124 17.219-13.4385 9.8147-23.5428 22.3425-29.406 37.9987-6.9417 18.5346-8.8936 37.2878-1.0711 56.9215m365.5396-88.2387c-6.0171-6.4885-12.0472-12.8817-20.2803-16.7792-18.0625-8.551-37.0366-9.343-56.0904-5.603-22.228 4.363-40.8447 15.5673-54.257 34.0768-5.1905 7.163-10.4397 15.0484-12.6739 23.4037-3.1062 11.617-5.9377 23.5518-3.8794 36.1766 2.5506 15.6423 8.7207 28.6259 21.6683 38.086 18.6699 13.6408 39.958 15.0177 61.548 11.6517 16.6612-2.5976 31.833-9.4206 44.9344-20.883 11.0642-9.6799 18.7014-21.2846 24.039-34.66 4.7437-11.887 6.0533-24.2661 5.071-37.0096-.7882-10.2283-3.9399-19.4706-10.0797-28.46m239.0312 151.778c4.6003-6.635 9.2585-13.2308 13.7905-19.9122 20.1822-29.753 40.2852-59.56 60.5066-89.2863 9.7151-14.2821 19.6863-28.3901 29.4295-42.6535 4.2902-6.2809 8.3007-12.7526 12.7622-19.6376-15.6944 0-30.5222-.0784-45.3462.1207-1.4907.02-3.4634 1.3777-4.3574 2.695-7.0547 10.3907-13.8855 20.933-20.815 31.409-9.1699 13.8625-18.3664 27.7073-27.9458 42.1544-7.304-25.9492-14.405-51.1778-21.455-76.2241h-48.532c.0908.9706-.0042 1.8334.265 2.5616 7.2186 19.5192 14.4852 39.0207 21.7223 58.533 6.1267 16.5185 12.0293 33.1249 18.4895 49.5116 1.4587 3.7003 1.426 6.0598-.8826 9.2689-6.5894 9.1583-12.7058 18.655-19.1301 27.9343-10.0176 14.4697-20.185 28.8356-30.188 43.3154-4.1717 6.0386-8.0842 12.256-12.3301 18.7201 15.382 0 30.1985.0369 45.0137-.0644 1.2942-.0088 3.1408-.5399 3.7883-1.4785 8.3306-12.0782 16.4898-24.2745 25.2146-36.9673M1634.0308 233.8194c-.017.9995.1605 2.0489-.0808 2.991-2.7337 10.668-2.8553 21.4468-.8984 32.1906 2.5052 13.7536 9.008 25.1748 20.9444 32.9839 17.6551 11.5504 37.324 13.2424 57.268 9.678 18.335-3.2768 34.6951-11.5437 47.2632-25.8252 4.2548-4.8347 7.6161-10.4558 11.7805-16.2684-5.5496-.9054-9.5409-1.6099-13.549-2.1992-7.8714-1.1572-15.74-2.3558-23.6413-3.2632-1.2732-.1462-3.1722.7564-3.996 1.7967-6.22 7.8554-13.5229 14.2729-23.6982 15.8122-10.5036 1.589-22.2073-.349-26.47-13.4911-1.6646-5.1318-1.2618-10.9152-1.9836-16.3777-.6025-4.5596.983-5.996 5.739-5.9591 28.9951.2244 57.9927.1121 86.9895.1121h5.3395c0-2.183-.3053-3.7583.048-5.1685 2.9681-11.8441 2.7217-23.7928-.2272-35.4352-4.4438-17.5446-14.7911-30.1363-32.809-35.437-13.4964-3.9706-27.0227-4.433-40.9237-2.0806-15.3908 2.6045-29.0208 8.6551-40.4532 19.0933-13.6405 12.4543-21.8355 28.2478-26.6417 46.8474M2105.481 171h-31.3753l-23.4997 137.7682h43.0456c1.812-9.961 3.6201-19.6604 5.3345-29.3764 3.0354-17.2018 5.613-34.4971 9.1701-51.5893 2.037-9.787 5.583-19.2532 14.7188-25.1997 8.6548-5.6336 22.8767-5.101 28.5623 1.3673 5.6716 6.4522 3.9992 14.5158 3.3066 21.7562-1.1062 11.5649-3.72 22.9881-5.7554 34.4608-1.9494 10.986-4.0337 21.9483-5.9397 32.9417-.8962 5.17-1.5139 10.3884-2.279 15.7348h42.86c1.4698-8.0293 3.0318-15.9288 4.344-23.8695 2.431-14.7108 4.6366-29.459 7.084-44.167 2.3411-14.0656 6.5123-27.9129 3.9869-42.4708-1.6797-9.682-4.648-18.6901-13.2703-24.313-14.7551-9.622-30.9922-9.5625-47.1079-4.9763-7.9907 2.2741-15.2803 7.0128-22.6558 10.5264l1.0577-8.5934h-11.5874M833.9905 484.3897c2.1015-12.0084 4.0972-24.0366 6.3329-36.02 2.4406-13.0823 5.1853-26.1076 7.6482-39.1859 2.9757-15.8017 5.715-31.648 8.727-47.4426.975-5.113.0493-6.7986-5.1413-6.7018-11.0876.2067-22.1733.5732-33.255.9986-3.4324.1317-6.887.4529-10.2665 1.0537-10.5497 1.8755-21.2348 3.3008-31.5606 6.0523-16.3898 4.3672-32.5549 9.5913-48.7309 14.718-1.232.3904-2.8546 3.1877-2.5175 4.351 6.5617 22.6441 15.0964 44.47 27.9091 64.4162 12.2158 19.017 26.7309 36.067 43.8719 50.8253 2.4202 2.0839 5.1299 5.0627 7.8948 5.2862 8.5587.6916 17.2087.2527 25.4505.2527 1.2667-6.283 2.4203-12.0055 3.6374-18.6037m751.012-336.7273c-.4588 3.381-.8226 6.7782-1.3936 10.14-2.1665 12.755-4.4003 25.4985-6.609 38.2463-1.8499 10.6776-3.7124 21.353-5.5456 32.0336-1.8336 10.6837-3.618 21.3759-5.4597 32.0582-1.8408 10.677-3.7605 21.3405-5.578 32.0215-.9347 5.4924-1.7223 11.0098-2.5931 16.625h45.1527c2.363-13.9135 4.7118-27.633 7.0183-41.3597 1.7972-10.6966 3.4999-21.4092 5.321-32.1017 1.846-10.8392 3.8094-21.6584 5.678-32.4939 1.8147-10.5239 3.5562-21.0604 5.363-31.5857 1.8604-10.8384 3.905-21.6481 5.5562-32.5179.4972-3.2725 1.2473-4.8841 5.016-4.8133 12.1552.2286 24.3182-.0044 36.476.1395 3.672.0435 5.7866-.2826 5.7856-4.9953-.0008-4.4316 1.6807-8.8454 2.4268-13.2997.9732-5.8101 1.754-11.6525 2.6236-17.5219h-136.241c-2.0078 11.9466-3.9797 23.6806-6.0203 35.8238h45.5515c-.8948 4.5593-1.6942 8.6336-2.5283 13.6012m-275.0093 50.3736c12.2827-2.9719 23.507.4128 34.9641 5.8397l22.6165-33.2672c-11.5312-5.1611-22.753-7.5788-34.5614-8.868-13.3396-1.4562-26.228-.432-38.8202 3.3931-21.2456 6.454-37.8536 18.4564-43.1285 41.4226-1.604 6.9837-2.0134 14.6374-1.0601 21.7274 1.7828 13.2602 12.4835 18.1273 23.6886 21.667 8.7723 2.7714 17.8214 4.7268 26.4576 7.8473 5.4941 1.985 6.6509 8.5117 2.1067 12.1257-3.6176 2.8773-8.3954 5.2758-12.9146 5.8428-10.5778 1.327-20.0382-3.2587-29.3084-7.772-3.6764-1.7899-7.963-5.8594-10.7611-4.991-3.2118.9968-5.1352 6.2832-7.5224 9.7717-5.6313 8.2283-11.2057 16.4954-16.8275 24.7828 13.3388 9.569 27.8947 14.9206 43.3458 16.1249 11.7196.9135 23.8268-.008 35.4659-1.9166 18.5747-3.0457 34.177-12.3198 44.7974-28.1186 7.8223-11.6363 11.5036-24.9425 8.342-39.0136-3.5075-15.6105-15.919-21.6732-29.7879-25.6187-7.2905-2.0741-14.732-3.6803-21.8949-6.1166-4.0106-1.3642-5.1509-5.0994-2.695-8.646 1.6552-2.3905 4.441-3.9979 7.4974-6.2167M1382.2756 166h-13.0278l-6.6665 43.1024h16.3634l-15.9974 100.6514h51.9193c1.7458-11.6505 3.3756-23.0951 5.1976-34.5091 1.5118-9.4718 3.3628-18.8897 4.8594-28.3637 1.8054-11.4294 3.527-22.8762 4.987-34.3533.371-2.9174 1.5618-3.589 4.138-3.5576 7.1611.0874 14.3262-.071 21.4853.0768 3.0797.0637 4.318-.778 4.594-4.156.4485-5.4906 1.7724-10.9054 2.6234-16.3684 1.1447-7.3475 2.191-14.7103 3.352-22.5574h-28.4456l6.5376-42.6501h-51.7342c-1.9975 12.7472-3.791 25.1719-6.0614 37.5088-.3017 1.6387 1.4238 5.741-4.124 5.1761m982.7617 133.7593c-.3267 2.9868-.6536 5.9736-.9883 9.0321h42.8735c13.4815-78.8967 26.9312-157.6076 40.4304-236.6096h-43.1968c-12.8967 75.6798-25.7741 151.2473-39.1188 227.5775M1179.9993 283.43c.667-4.5139 1.1628-9.061 2.0344-13.535 2.232-11.4578 3.8152-23.1273 7.1503-34.2652 5.2968-17.6893 18.1325-26.879 36.8366-26.4706 7.0868.1547 14.1344 2.1115 21.6321 3.3164l7.5515-48.1285c-22.5487-2.0793-42.0326 3.0516-57.44 20.2678l-.9635-.966 1.0753-17.6467c-16.4011 0-32.3677-.0538-48.332.1096-1.1824.012-3.1655 1.4158-3.3826 2.462-.9925 4.7802-1.4492 9.6694-2.1692 14.509-1.7026 11.4445-3.3746 22.8943-5.1906 34.3211-2.1963 13.8215-4.5197 27.6228-6.8037 41.4304-1.9118 11.5577-3.9022 23.1029-5.7452 34.6716-.8554 5.3697-1.4434 10.782-2.155 16.193h51.5286c1.4927-8.678 2.9288-17.027 4.373-26.269M1853.2209 313c1.5813-.3326 3.1791-.6015 4.741-1.0086 7.9057-2.0605 15.8324-4.0534 23.665-6.3644 1.0442-.308 2.0383-2.204 2.2981-3.5146 1.321-6.6633 2.4123-13.3727 3.5456-20.0725.8912-5.2688 1.7264-10.547 2.787-17.0511-1.7836 1.3332-2.4207 1.7674-3.0115 2.2573-11.2997 9.3709-23.9379 14.2545-38.7022 10.692-13.149-3.173-21.6589-13.349-22.4692-25.983-1.1167-17.409 5.4999-31.738 19.1033-42.5224 10.7136-8.4935 23.0132-12.1839 36.2318-7.2177 6.3265 2.3768 11.8057 7.0095 17.8273 10.7182 2.0673-12.1795 4.2617-25.1063 6.4552-38.028-18.7434-10.3167-38.1543-10.5445-57.7747-5.2393-18.9355 5.12-34.7281 15.3693-47.0786 30.906-16.576 20.8523-23.146 44.2326-16.6084 70.137 4.2878 16.99 15.3927 29.0871 31.722 36.4126 11.7004 5.249 23.8487 6.1852 37.2683 5.8784M713.4988 503h18.9528c-25.9166-31.6578-40.4412-67.4552-46.7786-107.102-.8684.3941-1.588.6713-2.2617 1.0336-14.1824 7.6253-28.0893 15.5751-40.8125 25.6496-12.1426 9.6148-22.718 20.3202-29.09 34.5224-6.1473 13.702-6.7841 27.6705-.6337 41.76 1.4479 3.3169 3.239 4.2249 6.6778 4.2108 30.9816-.1272 61.9641-.0744 93.9459-.0744m383.0035-337h-7.4923c-8.3182 0-8.5405-.0402-10.0387 8.237-2.4905 13.7593-4.7551 27.5617-6.9446 41.373-2.142 13.514-3.949 27.0815-6.1248 40.5897-2.866 17.7924-5.9483 35.55-8.9816 53.5834h52.0024L1131.697 166h-35.1947M1167.5 391H908.3286v12.7083h499.3428v-12.4062c-.642-.138-.957-.2648-1.2719-.2649-79.2998-.0182-158.5997-.0276-238.8995-.0372m1009.5051 47.3449c.0777-.2829.1233-.582.2527-.8386.039-.077.431-.0978.462-.0393 1.1005 2.0833 2.0822 4.2348 3.2731 6.264 7.322 12.4749 14.67 24.9349 22.0891 37.3523.4993.836 1.6392 1.8076 2.5013 1.8267 6.7702.1501 13.5454.0833 20.1105.0833l8.6978-71.7375h-19.2637c-1.8537 14.7704-3.6755 29.2872-5.5969 44.596-8.4592-14.3558-16.279-27.7952-24.3381-41.0897-.999-1.648-3.197-3.4592-4.96-3.5919-5.938-.4469-11.93-.17-18.2414-.17-2.9842 24.0899-5.931 47.8784-8.8914 71.7779h19.9353c1.333-14.6518 2.649-29.1166 3.9697-44.4332m-491.0266 41.4132c1.437 1.0805 2.8334 3.0253 4.3174 3.0944 7.063.3288 14.1495.1471 21.5928.1471l-24.681-35.2901c9.1193-12.1555 18.0252-24.0263 27.5406-36.7095-6.8412 0-12.7782-.3356-18.6447.1612-2.4287.2057-5.4342 1.6128-6.9227 3.4758-5.435 6.8019-10.3014 14.0557-15.501 21.0507-.5863.7885-1.9297 1.014-3.2424 1.6577l2.8441-26.1179h-19.1368l-8.833 71.5739h19.3361c1.2411-9.9147 2.458-19.6357 3.679-29.3916 5.8218 8.6526 11.5475 17.1626 17.6516 26.3483m222.6566-51.9282c-4.6085 6.6194-9.2093 13.2442-13.827 19.8571-8.1584 11.6837-16.327 23.3601-24.5865 35.1759h63.7878l2.0763-16.04h-31.9608l38.8948-56.5565h-59.7245l-2.237 16.7874c9.1344 0 18.239 0 27.577.776m-145.625 8.3077c-7.1021-3.3754-13.7454-1.3353-17.053 5.0176-2.8239 5.424-5.8952 10.7194-9.0555 16.43l-7.2545-22.3137h-18.9778c.4237 1.5851.699 2.8318 1.0891 4.0413 3.7875 11.7386 7.5895 23.4724 11.3965 35.2046 2.7534 8.4851 2.7815 8.1085 11.8188 8.6346 4.797.2793 7.0003-1.7789 8.88-5.547 3.0909-6.1962 6.4157-12.2758 10.0391-19.1589L1760.546 483c3.4686 0 6.9586-.1429 10.4306.0457 2.7307.1483 4.3614-.5906 5.828-3.1992 6.2179-11.059 12.7744-21.9276 19.1947-32.873 2.2677-3.866 4.4992-7.7534 6.9459-11.9735-6.257 0-11.769.258-17.2405-.1006-3.0875-.2024-4.3911 1.2557-5.6428 3.5497-3.2451 5.9469-6.5906 11.839-10.1936 18.2852-2.3333-7.1388-4.4061-13.4809-6.8582-20.5968M1085 117.3412c.8936 10.2974 5.5099 18.5488 15.5931 21.4928 19.7155 5.7564 36.9703-5.8023 42.1802-23.8985 4.0988-14.2365-2.7834-27.1045-15.4385-30.8793-20.2653-6.0449-42.0636 10.269-42.3348 33.285m723.3688 329.747c-3.5342 7.9187-4.6802 15.9799-1.4892 24.3144 2.917 7.6186 7.821 12.9083 16.5376 12.499 5.8643-.2755 11.6847-1.4862 17.247-2.2408 5.9693 3.0958 12.6561.3713 18.8943 1.4312l5.834-48.092c-5.3442 0-9.8103-.0303-14.2757.0158-1.6368.017-3.277.168-4.9062.3446-1.3897.1506-2.9923.9997-4.113.5573-12.5294-4.9454-26.85-1.4966-33.7288 11.1706m599.5938 11.1205c.734-7.5972 1.4676-15.1944 2.2417-23.2078-6.0625 0-11.5266-.0267-16.99.0327-.7077.0077-1.394.548-2.12.6868-1.1536.2205-2.6614.8494-3.4468.369-5.3636-3.2813-11.4937-2.9176-16.817-1.7392-4.9484 1.0954-10.052 4.2958-13.6799 7.9622-7.4282 7.5073-8.615 17.3028-5.9931 27.163 1.6316 6.1375 4.8205 11.8227 11.915 13.5657 7.8518 1.929 15.4961 1.9084 22.5066-2.8782 1.2363 3.1127 10.6296 4.0751 19.0457 2.263.9663-7.8734 1.9206-15.6497 3.3378-24.2172m-105.9628-20.6759c-.1802-.7587-.354-2.1785-.5415-2.1803-6.0899-.0587-12.1827-.0273-18.2715.1186-1.1233.0269-2.649 1.2344-3.2842.8192-5.2957-3.4632-11.2134-2.554-16.8103-2.127-5.705.4352-10.3677 3.6439-14.1597 8.1272-6.8786 8.1325-8.4555 17.4982-5.7646 27.3515 1.6709 6.118 4.97 11.71 12.0666 13.4386 7.877 1.9188 15.4815 1.716 22.4927-2.9737 1.1765 3.2346 7.1453 3.9336 19.02 2.4606.4841-5.0063.8648-10.0469 1.4793-15.0588 1.1882-9.688 2.5083-19.3597 3.7732-29.9759m567.9738 27.7538c4.5069-9.4812 5.49-19.5207 2.7962-29.459-2.7725-10.2263-8.6099-18.978-19.7622-21.0711-8.6575-1.6249-17.6902-1.3038-26.5642-1.624-.781-.0281-2.221 1.5291-2.3426 2.4796-1.1584 9.06-2.0154 18.1584-3.1284 27.2249-.8113 6.6078-1.998 13.1696-2.7964 19.7788-.8088 6.6966-1.3457 13.4262-2.0256 20.3841 8.9084 0 17.3923-.0192 25.8762.0045 12.73.0355 21.843-5.7406 27.947-17.7178M2053.764 435c-3.8767-.591-4.5669 1.6948-4.8142 4.8971-.5525 7.162-.9565 14.376-2.184 21.4363-1.9771 11.372 4.5112 20.069 13.53 21.542 6.1164.9988 12.5039 1.547 18.6384.9485 9.5056-.9273 17.5193-5.4834 19.1106-16.605.3625-2.5335 1.2954-4.9898 1.6052-7.5257.9834-8.0568 1.7964-16.1343 2.7288-24.6922-5.8355 0-10.9683-.2034-16.062.1531-1.17.082-2.8992 1.9433-3.1685 3.2363-.7285 3.4963-.7224 7.1386-1.1694 10.7026-.584 4.6544-1.0601 9.3479-2.0745 13.9152-.9402 4.2337-4.5952 6.525-8.332 5.6845-2.5196-.5668-6.3396-4.1037-6.2259-6.1232.5137-9.117 2.2217-18.1669 3.546-27.5695h-15.1285m-88.7445 30.2c-.3356-.895-1.0564-1.8402-.9474-2.6773 1.1832-9.0796 2.4965-18.1422 3.7919-27.3336h-18.7935c-.3734 2.3877-.7911 4.6076-1.0572 6.8455-.7703 6.4774-1.1939 13.0102-2.2761 19.4331-1.8916 11.2234 4.2237 19.6166 13.228 21.3642 6.2252 1.2083 12.857 1.6928 19.1306.9703 10.1124-1.1647 16.0212-4.9888 18.5763-14.3442 1.7816-6.523 2.3876-13.3844 3.2858-20.1257.6174-4.6341.8361-9.3214 1.2627-14.3322-5.5166 0-10.3274.1703-15.119-.0599-3.1957-.1535-3.8316 1.694-4.0948 4.1324-.6828 6.3256-1.003 12.7151-2.1354 18.958-.672 3.7049-.528 8.1306-5.3673 10.0516-3.798 1.5076-6.5724.6346-9.4846-2.8822m53.9854-59.6022c-.0124 1.8297.1596 3.6826-.0675 5.4851-1.2588 9.9861-2.592 19.9631-3.9451 29.937-.9375 6.9098-2.061 13.796-2.895 20.7177-.8339 6.9192-1.4112 13.8693-2.1158 20.955h18.8532c3.2137-26.268 6.3894-52.2232 9.6653-78.998-7.0426.348-13.2383.6542-19.4951 1.9032M2444 431.5772l3.3513-27.2737h-18.9492c-3.2183 26.2899-6.3962 52.249-9.5964 78.3925h19.068c.8028-7.2734 1.5008-14.2498 2.359-21.2065 1.1928-9.6709 2.5056-19.327 3.7673-29.9123m82.9998 27.8192.259-4.3964c4.0242 0 7.6694.01 11.315-.002 8.5783-.0282 16.342-5.7663 18.9467-13.9913 3.1956-10.0915-.3318-21.0888-8.1772-24.8897-8.2847-4.0137-17.24-3.053-26.0254-2.9799-.7783.0066-2.104 1.6151-2.2268 2.5979-1.1482 9.2122-1.9947 18.4618-3.1238 27.6767-.7883 6.432-2.023 12.8094-2.801 19.2423-.8081 6.6852-1.307 13.408-1.9517 20.2291h10.626c1.0586-7.558 2.1091-15.0565 3.1592-23.4867m-187.9637-33.6013c.3968-2.1374.7932-4.2748 1.2156-6.5505H2321.17c-.406 3.9642-1.068 7.6906-1.0845 11.4198-.0141 3.1903-.9543 4.4665-4.2912 4.4713-1.5156.0023-4.0864 1.2146-4.3504 2.316-.8798 3.672-.9326 7.5423-1.3054 11.3681l7.2288.4476c-1.2634 11.3555-2.4839 22.3255-3.7532 33.7323 5.754 0 10.73.1995 15.67-.1357 1.2878-.0874 3.3683-1.7029 3.5439-2.852 1.2783-8.37 2.6037-16.78 2.9953-25.2198.2117-4.557 1.2251-6.56 5.9258-5.8225 1.2744.1999 2.6067.0303 4.1995.0303.6372-4.7363 1.2339-9.1695 1.8955-14.0861h-9.3506c.1897-3.058.3496-5.6365.5427-9.1188m287.6858-12.5897h-11.6452c0 .9832-.1758 1.567.0266 1.9525 3.2114 6.115 7.1465 11.9509 9.5566 18.3617 3.343 8.8937 10.6782 16.5916 7.5366 27.6428-1.9577 6.8878-1.997 14.321-2.9382 21.8365 2.8682 0 5.7034.2175 8.4758-.1043 1.151-.1336 2.9788-1.297 3.1153-2.201.9238-6.1171 1.5258-12.2853 2.1362-18.4464.5583-5.6341 1.1831-11.0818 4.9783-15.843 4.1096-5.1558 7.6662-10.76 11.3503-16.245 3.6929-5.4984 7.2456-11.091 11.1963-17.1592-2.403 0-3.9675.2933-5.376-.051-5.9868-1.464-9.1433 1.868-11.964 6.4052-4.3224 6.9516-8.9093 13.7386-13.618 20.9547-4.2315-9.1267-8.249-17.7925-12.8306-27.1035M2809.355 413h-38.1952c-.4859 3.6826-.9392 7.1206-1.4527 11.0132h16.3938c-2.4155 19.8246-4.781 39.2371-7.1611 58.7701h11.0242c2.4362-19.6632 4.849-39.1354 7.2841-58.7876h15.5791L2814.3257 413h-4.9707M2587 476.3325l6.1504-52.3835h15.6973c.479-3.6249.9333-7.0616 1.4228-10.7646h-43.1377l-1.4075 10.9109H2582.1c-2.4126 19.8116-4.7771 39.2274-7.158 58.7765h10.5991c.5032-1.944.98-3.7856 1.459-6.5393M2746.5125 483h18.1242l1.241-10.0919h-19.504c2.3985-20.1999 4.7442-39.9535 7.1134-59.9071-3.516 0-5.9002-.3037-8.147.1205-1.2317.2325-3.0645 1.5801-3.2056 2.618-1.2275 9.0344-2.0471 18.123-3.163 27.1741-.813 6.5956-2.0181 13.1432-2.8155 19.7404-.8079 6.6849-1.3289 13.4044-1.9983 20.346h12.3548m-68.511-11.5848c-3.6553 8.0214-7.146 16.1244-11.0664 24.014-1.1665 2.3477-1.3077 3.6987 1.183 4.5385 2.2293.7518 4.336 4.2375 6.9202.0906 9.0262-14.485 14.4478-30.288 15.7954-47.1638 1.2015-15.0426-.593-29.957-5.7397-44.3546-1.0308-2.884-2.1834-2.577-4.2388-1.5777-2.141 1.041-5.4931.6923-4.5735 4.7788 1.6604 7.3774 3.2522 14.7724 4.7286 22.1888 2.4846 12.4825.5913 24.6406-3.0088 37.4854M2492 470.3848c-1.801-21.8435 4.7126-41.4832 16.3081-59.8783l-7.8406-4.7601c-1.7832 2.9447-3.5608 5.6215-5.084 8.436-13.55 25.0393-15.5102 51.4924-9.3222 78.8478 2.0757 9.1746 2.678 9.3793 11.3547 6.8205.2322-.0684.3643-.4757-.3083.4628-1.8225-10.334-3.4651-19.6486-5.1077-29.9287m-377.9944-22.9097c-.574 4.4178-1.148 8.8355-1.726 13.2856h28.5012l1.666-14.2143c-9.498 0-18.9348 0-28.4412.9287z"/><path fill="#006FBA" d="M654.2864 278.2913c14.6525-8.4784 29.0025-16.7304 43.8432-25.2646-2.2232 8.8437-4.5653 17.211-6.3911 25.6895-1.8464 8.574-3.0063 17.2963-4.8788 25.8638-.4045 1.8505-2.2381 3.9453-3.9752 4.8564-10.2368 5.369-20.7621 10.1916-30.9606 15.6292-19.7995 10.5567-39.3861 21.5784-56.9588 35.6217-19.1517 15.3054-34.4246 33.7658-41.0345 57.9205-3.076 11.2407-5.707 22.804-6.6411 34.3744-.9606 11.8998 2.5883 23.5476 7.042 34.6576 2.2778 5.682 5.061 11.1614 7.7818 17.0943H68.6346l-.2195-.6157c5.0386-1.369 10.0738-2.7508 15.1164-4.105 25.4876-6.845 51.1856-12.997 76.4213-20.6699 48.162-14.6437 96.2928-29.4643 143.9914-45.5326 34.7956-11.7216 69.0625-25.0938 103.2213-38.5996 29.07-11.4939 57.7919-23.9057 86.3996-36.5197 22.1372-9.761 43.9464-20.2833 65.7385-30.8046 16.5455-7.9881 32.9221-16.3394 49.2123-24.8388 15.2664-7.9653 30.3205-16.3374 45.7705-24.7569z"/><path d="M2631.9778 337.8373c6.8528 8.2882 15.2715 10.578 25.6301 9.3584 11.1255-1.31 19.563-6.1981 24.3518-15.9614 3.2686-6.6635 4.9583-14.1445 6.9602-21.369 1.1328-4.0896 1.4705-8.3995 2.095-12.179-7.3648 3.9197-14.2175 8.5388-21.7402 11.3896-23.2444 8.8088-52.3592 4.013-67.3575-18.801-5.7507-8.7477-8.4497-18.677-8.9655-29.243-.8606-17.6263 2.5112-34.211 11.0048-49.7564 13.0245-23.8386 32.3636-39.4369 59.3409-44.1004 15.267-2.6392 30.0634-.519 42.4157 10.1706 1.7786 1.539 3.0728 3.6374 4.8194 5.7533C2712.0354 171 2712.0354 171 2724.0203 171h31.8054c-3.6624 22.1655-7.155 43.8955-10.8633 65.5886-4.225 24.7173-7.9326 49.5542-13.1946 74.0536-4.4446 20.6936-13.0918 39.8069-29.8679 53.8382-10.1663 8.503-22.1755 13.825-35.3496 15.3636-9.6528 1.1272-19.5422 1.7052-29.202.9472-14.1693-1.112-27.2306-5.844-38.4289-15.2673-12.9707-10.9146-17.512-24.7087-15.622-41.3205h43.724c1.6324 4.4031 3.2728 8.8287 4.9564 13.634M2680.308 202c-1.9983.005-4.0452-.2745-5.9875.058-23.3755 4.0027-41.073 30.0957-36.4446 51.5171 3.9221 18.1515 17.2597 26.1142 34.07 23.21 19.7288-3.4084 38.1487-27.9859 34.2242-49.5515-2.3694-13.0188-11.5911-23.7158-25.862-25.2336z"/><path fill="#006FBA" d="M932.0366 261.2664c1.3397-7.9749 2.6973-15.4953 3.9527-23.0326 2.3258-13.9639 4.6443-27.9294 6.8663-41.91 1.7903-11.2645 3.3675-22.563 5.1614-33.8268 1.8678-11.7278 3.9568-23.4204 5.8055-35.151 1.1934-7.5725 2.099-15.1899 3.2009-22.7774.2543-1.751.784-3.462 1.228-5.3673h121.3149c-1.8651 12.0057-3.7251 23.9167-5.5589 35.8316-.3972 2.5809-.6484 5.1845-1.0609 7.7626-.4605 2.8784-2.36 3.2797-5.0008 3.264-18.8212-.1116-37.6436-.0595-56.4655-.0595h-5.1394l-5.4399 33.8336h59.7691c-2.2727 15.1454-4.3826 29.8679-6.8789 44.5246-.1905 1.1189-3.1064 2.5094-4.7694 2.5278-16.821.1869-33.645.114-50.4682.114h-5.2113c-2.1391 14.1988-4.2116 28.1767-6.3591 42.1432-1.9549 12.7133-3.9094 25.4285-6.1361 38.0951-.1939 1.1029-2.4086 2.6297-3.6982 2.643-17.1412.1768-34.285.118-52.4236.118.9291-6.1552 1.8116-11.9983 2.6929-17.8416 1.5305-10.148 3.0603-20.2963 4.6185-30.8913z"/><path d="M2020.263 167.6726c14.8304 2.0049 26.037 11.9207 28.6877 26.4272 2.3606 12.9174.831 25.6894-1.6976 38.4932-2.51 12.7097-4.1622 25.5875-6.267 38.379-1.945 11.8201-3.932 23.6345-6.0983 35.415-.1857 1.0103-1.8465 2.488-2.8374 2.5-13.6308.1654-27.2643.1116-40.9519.1116 2.0143-11.5499 3.9526-22.6949 5.9028-33.8379 1.8966-10.8354 4.0018-21.639 5.6485-32.512 1.3895-9.1753 2.7915-18.4065 3.1979-27.6565.4016-9.1395-5.9624-15.7644-15.937-16.173-17.9172-.734-27.0344 11.1636-30.7421 27.1892-3.458 14.9453-5.5237 30.2138-8.1654 45.3465-2.0318 11.6386-3.9334 23.301-6.1264 34.9087-.2032 1.0752-2.086 2.6028-3.2065 2.6179-13.4768.1818-26.957.1176-40.4917.1176 1.9786-11.7985 3.8447-23.2681 5.8373-34.7158 2.191-12.5876 4.5654-25.1433 6.7343-37.7345 1.8427-10.6973 3.4153-21.4412 5.2712-32.136 2.9036-16.7325 6.0438-33.4241 8.8966-50.1649 2.1783-12.7826 4.0013-25.6253 6.102-38.4217 2.2551-13.7375 4.5998-27.4611 7.0862-41.158.1857-1.0235 1.8136-2.54 2.7866-2.552 13.6426-.168 27.2876-.114 40.9031-.114l-18.0193 105.4991.7711 1.5285c16.064-11.0723 33.5297-14.9003 52.7152-11.3572z"/><path fill="#006FBA" d="M782.3873 273.2797c-21.593 5.9718-42.8068 11.7314-64.5274 17.6287.7049-5.5678.9004-12.0948 2.4467-18.2844 3.1737-12.7042 6.8223-25.3077 10.8397-37.7709 1.0438-3.2382 3.58-6.7415 6.43-8.5376 33.1741-20.9062 65.3323-43.2818 96.476-67.067 15.8657-12.1169 30.9566-25.2574 46.2492-38.112 8.06-6.7751 15.801-13.93 24.5164-21.649l-29.893 162.3409c-10.8976.7345-21.59 1.1504-32.211 2.254-11.3555 1.18-22.6599 2.8996-33.9558 4.5895-8.6886 1.2998-17.3295 2.9186-26.3708 4.6078z"/><path d="M2211.231 278.6108c-7.6182-19.2942-5.6663-38.0474 1.2753-56.582 5.8633-15.6562 15.9676-28.184 29.406-37.9988 14.7303-10.7581 31.2364-16.0442 49.5125-17.219 14.7315-.9468 28.773.6588 41.95 7.1202 18.532 9.087 28.7558 24.081 30.6782 44.8322 2.1711 23.4373-4.5862 43.904-19.3174 62.0396-13.5608 16.6945-31.238 26.041-52.0713 30.253-14.3579 2.9029-28.4968 2.6118-42.6858-.9921-17.6684-4.4878-30.815-14.3998-38.7475-31.4531m40.7019-24.14c3.5869 17.6927 17.8396 25.5844 35.2431 21.8348 19.2193-4.1408 33.6509-27.1274 33.092-44.625-.6496-20.3221-18.2834-34.8474-38.7055-27.999-16.6423 5.581-34.0852 26.8112-29.6296 50.7891zM2577.0076 191.0796c6.1071 8.6214 9.2588 17.8637 10.047 28.092.9823 12.7435-.3273 25.1226-5.071 37.0096-5.3376 13.3754-12.9748 24.9801-24.039 34.66-13.1013 11.4624-28.2732 18.2854-44.9343 20.883-21.5901 3.366-42.8782 1.989-61.5481-11.6517-12.9476-9.4601-19.1177-22.4437-21.6683-38.086-2.0583-12.6248.7732-24.5597 3.8794-36.1766 2.2342-8.3553 7.4834-16.2407 12.6739-23.4037 13.4123-18.5095 32.029-29.7138 54.257-34.0768 19.0538-3.74 38.0279-2.948 56.0904 5.603 8.2331 3.8975 14.2632 10.2907 20.313 17.1472m-92.5152 26.9252c-7.5871 9.3-11.428 19.803-10.5083 31.9329 1.489 19.6351 16.6595 31.0282 36.2925 26.2715 10.0335-2.4309 17.8-8.285 23.6636-16.6826 8.2869-11.868 11.8159-24.5185 7.138-38.9157-3.5572-10.9474-14.7557-18.8182-25.7186-18.651-12.7363.1941-22.4175 6.0818-30.8672 16.0449zM2815.7451 342.7528c-8.4639 12.4297-16.623 24.626-24.9536 36.7042-.6475.9386-2.4941 1.4697-3.7883 1.4785-14.8152.1013-29.6316.0644-45.0137.0644 4.2459-6.464 8.1584-12.6815 12.33-18.72 10.003-14.4799 20.1705-28.8458 30.188-43.3155 6.4244-9.2793 12.5408-18.776 19.1302-27.9343 2.3086-3.209 2.3413-5.5686.8826-9.2689-6.4602-16.3867-12.3628-32.993-18.4895-49.5116-7.2371-19.5123-14.5037-39.0138-21.7222-58.533-.2693-.7282-.1743-1.591-.2651-2.5616h48.532c7.05 25.0463 14.151 50.2749 21.455 76.2241 9.5794-14.447 18.7759-28.2919 27.9458-42.1544 6.9295-10.476 13.7603-21.0183 20.815-31.409.894-1.3173 2.8667-2.675 4.3574-2.695 14.824-.199 29.6518-.1207 45.3462-.1207-4.4615 6.885-8.472 13.3567-12.7622 19.6376-9.7432 14.2634-19.7144 28.3714-29.4295 42.6535-20.2214 29.7264-40.3244 59.5333-60.5066 89.2863-4.532 6.6814-9.1902 13.2771-14.0515 20.1754zM1634.2306 233.4365c4.6064-18.2167 12.8014-34.0102 26.4419-46.4645 11.4324-10.4382 25.0624-16.4888 40.4532-19.0933 13.901-2.3523 27.4273-1.89 40.9237 2.0806 18.0179 5.3007 28.3652 17.8924 32.809 35.437 2.9489 11.6424 3.1953 23.5911.2273 35.4352-.3534 1.4102-.0481 2.9855-.0481 5.1685h-5.3395c-28.9968 0-57.9944.1123-86.9895-.1121-4.756-.0368-6.3415 1.3995-5.739 5.9591.7218 5.4625.319 11.246 1.9836 16.3777 4.2627 13.1422 15.9664 15.08 26.47 13.491 10.1753-1.5392 17.4782-7.9567 23.6983-15.812.8237-1.0404 2.7227-1.943 3.996-1.7968 7.9012.9074 15.7698 2.106 23.6412 3.2632 4.0081.5893 7.9994 1.2938 13.549 2.1992-4.1644 5.8126-7.5257 11.4337-11.7805 16.2684-12.568 14.2815-28.9282 22.5484-47.2632 25.8252-19.944 3.5644-39.6129 1.8724-57.268-9.678-11.9364-7.809-18.4392-19.2303-20.9444-32.9839-1.9569-10.7438-1.8353-21.5225.8984-32.1907.2413-.942.0638-1.9914.2806-3.3738m77.5677-38.4364c-15.2324 2.2375-23.1424 12.5054-28.4881 25.833h54.3045c.664-13.1457-8.103-27.7522-25.8164-25.833zM2105.977 171h11.0914l-1.0577 8.5934c7.3755-3.5136 14.665-8.2523 22.6558-10.5264 16.1157-4.5862 32.3528-4.6457 47.108 4.9763 8.6222 5.6229 11.5905 14.631 13.2702 24.313 2.5254 14.558-1.6458 28.4052-3.9868 42.4708-2.4475 14.708-4.6531 29.4562-7.084 44.167-1.3123 7.9407-2.8743 15.8402-4.344 23.8695h-42.8601c.7651-5.3464 1.3828-10.5648 2.279-15.7348 1.906-10.9934 3.9903-21.9557 5.9397-32.9417 2.0354-11.4727 4.6492-22.896 5.7554-34.4608.6926-7.2404 2.365-15.304-3.3066-21.7562-5.6856-6.4684-19.9075-7.001-28.5623-1.3673-9.1357 5.9465-12.6819 15.4126-14.7188 25.1997-3.557 17.0922-6.1347 34.3875-9.1701 51.5893-1.7144 9.716-3.5225 19.4153-5.3345 29.3764h-43.0456c7.845-45.9906 15.6591-91.8022 23.4997-137.7682h31.8714z"/><path fill="#006FBA" d="M833.9587 484.8275c-1.1853 6.1604-2.339 11.883-3.6056 18.166-8.2418 0-16.8918.4388-25.4505-.2528-2.7649-.2235-5.4746-3.2023-7.8948-5.2862-17.141-14.7583-31.6561-31.8084-43.8719-50.8253-12.8127-19.9462-21.3474-41.772-27.909-64.4162-.3372-1.1633 1.2855-3.9606 2.5174-4.351 16.176-5.1267 32.3411-10.3508 48.7309-14.718 10.3258-2.7515 21.0109-4.1768 31.5606-6.0523 3.3794-.6008 6.834-.922 10.2665-1.0537 11.0817-.4254 22.1674-.7919 33.255-.9986 5.1906-.0968 6.1163 1.5888 5.1413 6.7018-3.012 15.7945-5.7513 31.641-8.727 47.4426-2.4629 13.0783-5.2076 26.1036-7.6482 39.1858-2.2357 11.9835-4.2314 24.0117-6.3647 36.458z"/><path d="M1585.0198 147.2158c.8169-4.521 1.6163-8.5953 2.511-13.1546h-45.5514l6.0202-35.8238h136.2411c-.8696 5.8694-1.6504 11.7118-2.6236 17.5219-.7461 4.4543-2.4276 8.868-2.4268 13.2997.001 4.7127-2.1136 5.0388-5.7856 4.9953-12.1578-.144-24.3208.089-36.476-.1395-3.7687-.0708-4.5188 1.5408-5.016 4.8133-1.6512 10.8698-3.6958 21.6795-5.5561 32.5179-1.807 10.5253-3.5484 21.0618-5.3632 31.5857-1.8685 10.8355-3.8319 21.6547-5.6778 32.494-1.8212 10.6924-3.5239 21.405-5.321 32.1016-2.3066 13.7267-4.6555 27.4462-7.0184 41.3597h-45.1527c.8708-5.6152 1.6584-11.1326 2.5931-16.625 1.8175-10.681 3.7372-21.3445 5.578-32.0215 1.8417-10.6823 3.6261-21.3745 5.4597-32.0582 1.8332-10.6806 3.6957-21.356 5.5456-32.0336 2.2087-12.7478 4.4425-25.4913 6.609-38.2462.571-3.362.9348-6.7591 1.4109-10.5867z"/><path fill="#006FBA" d="M1309.6051 198.1666c-2.6682 2.0882-5.454 3.6956-7.1091 6.086-2.456 3.5467-1.3157 7.2819 2.695 8.646 7.1628 2.4364 14.6043 4.0426 21.8948 6.1167 13.869 3.9455 26.2804 10.0082 29.7879 25.6187 3.1616 14.071-.5197 27.3773-8.342 39.0136-10.6203 15.7988-26.2227 25.073-44.7974 28.1186-11.639 1.9085-23.7463 2.83-35.4659 1.9166-15.4511-1.2043-30.007-6.5559-43.3458-16.1249 5.6218-8.2874 11.1962-16.5545 16.8275-24.7828 2.3872-3.4885 4.3106-8.7749 7.5224-9.7717 2.7982-.8684 7.0847 3.2011 10.761 4.991 9.2703 4.5133 18.7307 9.099 29.3085 7.772 4.5192-.567 9.297-2.9655 12.9146-5.8428 4.5442-3.614 3.3874-10.1406-2.1067-12.1257-8.6362-3.1205-17.6853-5.076-26.4576-7.8472-11.2051-3.5398-21.9058-8.407-23.6886-21.667-.9533-7.0901-.5439-14.7438 1.0601-21.7275 5.275-22.9662 21.8829-34.9687 43.1285-41.4226 12.5922-3.8252 25.4806-4.8493 38.8202-3.393 11.8084 1.289 23.0302 3.7068 34.5614 8.8679l-22.6165 33.2672c-11.4572-5.427-22.6814-8.8116-35.3523-5.7091z"/><path fill="#006FBA" d="M1382.7457 165.9995c5.0778.5653 3.3523-3.537 3.654-5.1757 2.2705-12.337 4.064-24.7616 6.0614-37.5088h51.7342l-6.5376 42.6501h28.4457c-1.1611 7.8471-2.2074 15.21-3.352 22.5574-.8511 5.463-2.175 10.8778-2.6236 16.3684-.276 3.378-1.5142 4.2197-4.5939 4.156-7.1591-.1479-14.3242.0106-21.4853-.0768-2.5762-.0315-3.767.6402-4.138 3.5576-1.46 11.4771-3.1816 22.9239-4.987 34.3533-1.4966 9.474-3.3476 18.8919-4.8594 28.3637-1.822 11.414-3.4518 22.8586-5.1976 34.509h-51.9193l15.9974-100.6513h-16.3634l6.6665-43.1025c4.4288 0 8.7284 0 13.498-.0004z"/><path d="M2365.271 299.3779c13.111-75.9489 25.9885-151.5164 38.8852-227.1962h43.1968c-13.4992 79.002-26.949 157.713-40.4304 236.6096h-42.8735c.3347-3.0585.6616-6.0453 1.2219-9.4134z"/><path fill="#006FBA" d="M1179.9951 283.8765c-1.44 8.7955-2.876 17.1445-4.3688 25.8224h-51.5285c.7115-5.4108 1.2995-10.8232 2.1549-16.193 1.843-11.5686 3.8334-23.1138 5.7452-34.6715 2.284-13.8076 4.6074-27.609 6.8037-41.4304 1.816-11.4268 3.488-22.8766 5.1906-34.3211.72-4.8396 1.1767-9.7288 2.1692-14.509.2171-1.0462 2.2002-2.45 3.3827-2.462 15.9642-.1634 31.9308-.1096 48.3319-.1096-.3714 6.0927-.7233 11.8697-1.0753 17.6468l.9635.966c15.4074-17.2163 34.8913-22.3472 57.44-20.2679-2.5807 16.448-5.1374 32.7432-7.5515 48.1285-7.4977-1.2049-14.5453-3.1617-21.632-3.3164-18.7042-.4084-31.5399 8.7813-36.8367 26.4706-3.3351 11.1379-4.9183 22.8074-7.1503 34.2651-.8716 4.474-1.3674 9.0212-2.0386 13.9815z"/><path d="M1852.7463 313c-12.945.3067-25.0933-.6295-36.7938-5.8785-16.3292-7.3255-27.434-19.4226-31.722-36.4126-6.5375-25.9044.0326-49.2847 16.6085-70.137 12.3505-15.5367 28.143-25.786 47.0786-30.906 19.6204-5.3052 39.0313-5.0774 57.7747 5.2393-2.1935 12.9217-4.3879 25.8485-6.4552 38.028-6.0216-3.7087-11.5008-8.3414-17.8273-10.7182-13.2186-4.9662-25.5182-1.2758-36.2318 7.2177-13.6034 10.7844-20.22 25.1135-19.1033 42.5223.8103 12.6342 9.3202 22.8101 22.4692 25.983 14.7643 3.5626 27.4025-1.321 38.7022-10.692.5908-.4898 1.2279-.924 3.0116-2.2572-1.0607 6.504-1.8959 11.7823-2.7871 17.051-1.1333 6.6999-2.2245 13.4093-3.5456 20.0726-.2598 1.3107-1.2539 3.2065-2.2982 3.5146-7.8325 2.311-15.7592 4.304-23.6649 6.3644-1.5619.4071-3.1597.676-5.2156 1.0085z"/><path fill="#006FBA" d="M712.999 503c-31.482 0-62.4645-.0528-93.446.0744-3.439.0141-5.23-.894-6.6779-4.2108-6.1504-14.0895-5.5136-28.058.6338-41.76 6.3718-14.2022 16.9473-24.9076 29.0899-34.5224 12.7232-10.0745 26.63-18.0243 40.8125-25.6496.6738-.3623 1.3933-.6395 2.2617-1.0335 6.3374 39.6467 20.862 75.4441 46.7786 107.1019H712.999zM1097.002 166h34.695l-22.7743 143.783h-52.0024c3.0333-18.0334 6.1156-35.7909 8.9816-53.5833 2.1759-13.5082 3.9827-27.0758 6.1248-40.5898 2.1895-13.8112 4.4541-27.6136 6.9446-41.373 1.4982-8.2771 1.7205-8.2369 10.0387-8.2369h7.992zM1168 391c79.7998.0096 159.0997.019 238.3995.0372.315.0001.63.127 1.2719.2649v12.4062H908.3286V391H1168z"/><path d="M2177.0027 438.7708c-1.3184 14.8907-2.6343 29.3555-3.9673 44.0073h-19.9353c2.9604-23.8995 5.9072-47.688 8.8914-71.778 6.3115 0 12.3034-.2768 18.2414.1701 1.763.1327 3.961 1.9438 4.96 3.5919 8.059 13.2945 15.8789 26.7339 24.3381 41.0898l5.597-44.5961h19.2636l-8.6978 71.7375c-6.5651 0-13.3403.0668-20.1105-.0833-.8621-.019-2.002-.9906-2.5013-1.8267-7.4192-12.4174-14.767-24.8774-22.089-37.3524-1.191-2.029-2.1727-4.1806-3.2733-6.2639-.031-.0585-.4228-.0376-.4619.0393-.1294.2566-.175.5557-.2551 1.2645zM1685.7893 479.4203c-5.915-8.8479-11.6406-17.3579-17.4624-26.0105-1.221 9.756-2.4379 19.4769-3.679 29.3916h-19.3361l8.833-71.5739h19.1368l-2.8441 26.1179c1.3127-.6437 2.6561-.8692 3.2423-1.6577 5.1997-6.995 10.0662-14.2488 15.5011-21.0507 1.4885-1.863 4.494-3.2701 6.9227-3.4758 5.8665-.4968 11.8035-.1612 18.6447-.1612l-27.5407 36.7095 24.681 35.2901c-7.4432 0-14.5297.1817-21.5927-.147-1.484-.0692-2.8805-2.014-4.5066-3.4323zM1908.5186 427.4418c-9.2214-.388-18.326-.388-27.4604-.388l2.237-16.7874h59.7245l-38.8948 56.5565h31.9608l-2.0763 16.04h-63.7878c8.2595-11.8158 16.428-23.4922 24.5865-35.1759 4.6177-6.613 9.2185-13.2377 13.7105-20.2452z"/><path d="M1763.1997 436.5244c2.2625 6.729 4.3353 13.071 6.6686 20.21 3.603-6.4463 6.9485-12.3384 10.1936-18.2853 1.2517-2.294 2.5553-3.752 5.6428-3.5497 5.4714.3586 10.9834.1006 17.2405.1006-2.4467 4.2201-4.6782 8.1074-6.946 11.9735-6.4202 10.9454-12.9767 21.814-19.1946 32.873-1.4666 2.6086-3.0973 3.3475-5.828 3.1992-3.472-.1886-6.962-.0457-10.4306-.0457l-6.653-24.554c-3.6235 6.8831-6.9483 12.9627-10.0392 19.159-1.8797 3.768-4.083 5.8262-8.88 5.547-9.0373-.5262-9.0654-.1496-11.8188-8.6347-3.807-11.7322-7.609-23.466-11.3965-35.2046-.39-1.2095-.6654-2.4562-1.089-4.0413h18.9777l7.2545 22.3137c3.1603-5.7106 6.2316-11.006 9.0556-16.43 3.3075-6.3529 9.9508-8.393 17.2424-4.6307z"/><path fill="#006FBA" d="M1085 116.8918c.2712-22.5665 22.0695-38.8805 42.3348-32.8356 12.655 3.7748 19.5373 16.6428 15.4385 30.8793-5.21 18.0962-22.4647 29.655-42.1802 23.8985-10.0832-2.944-14.6995-11.1954-15.5931-21.9422z"/><path d="M1808.6511 446.815c6.5966-12.394 20.9171-15.8427 33.4464-10.8973 1.1208.4424 2.7234-.4067 4.113-.5573 1.6292-.1766 3.2695-.3277 4.9063-.3446 4.4654-.046 8.9315-.0158 14.2757-.0158l-5.834 48.092c-6.2382-1.06-12.925 1.6646-18.8943-1.4312-5.5623.7546-11.3827 1.9653-17.247 2.2407-8.7165.4094-13.6206-4.8803-16.5376-12.4989-3.191-8.3345-2.045-16.3957 1.7715-24.5876m27.758 22.1831c7.2606-1.5605 8.35-9.7434 7.4978-14.9089-.5724-3.4692-5.1881-5.496-10.4728-5.0887-5.019.3869-9.1344 6.8573-8.6776 12.5555.4012 5.0072 5.3038 8.9515 11.6527 7.4421zM2407.7314 458.6044c-1.186 8.172-2.1403 15.9482-3.1066 23.8216-8.416 1.8121-17.8094.8497-19.0457-2.263-7.0105 4.7866-14.6548 4.8072-22.5066 2.8782-7.0945-1.743-10.2834-7.4282-11.915-13.5657-2.6219-9.8602-1.435-19.6557 5.9931-27.163 3.628-3.6664 8.7315-6.8668 13.68-7.9622 5.3232-1.1784 11.4533-1.5421 16.8169 1.7392.7854.4804 2.2932-.1485 3.4467-.369.7261-.1388 1.4124-.6791 2.1202-.6868 5.4633-.0594 10.9274-.0327 16.99-.0327-.7742 8.0134-1.5079 15.6106-2.473 23.6034m-18.7434-4.4628c-2.3344-1.7138-4.4692-4.4463-7.0407-4.9504-7.6863-1.5068-11.31 3.8932-12.137 10.2733-.7573 5.8431 3.9087 10.5861 9.7351 9.6914 7.26-1.1149 9.4556-4.4044 9.4426-15.0143zM2302 438.0017c-1.2651 10.1474-2.5852 19.8192-3.7734 29.507-.6145 5.012-.9952 10.0526-1.4793 15.0589-11.8747 1.473-17.8435.774-19.02-2.4606-7.0112 4.6898-14.6157 4.8925-22.4927 2.9737-7.0967-1.7286-10.3957-7.3207-12.0666-13.4386-2.691-9.8533-1.114-19.219 5.7646-27.3515 3.792-4.4833 8.4546-7.692 14.1597-8.1272 5.597-.427 11.5146-1.3362 16.8103 2.127.6352.4152 2.1609-.7923 3.2842-.8192 6.0888-.1459 12.1816-.1773 18.2715-.1186.1875.0018.3613 1.4216.5417 2.6491m-38.0408 15.4584c-.3242.5575-.7036 1.0905-.9638 1.6763-2.4497 5.5063-1.2205 10.8906 3.0407 13.4107 3.2144 1.901 10.5154.4554 12.5581-2.695 3.0403-4.6895 4.034-12.1365-.595-15.498-3.4299-2.4907-8.883-1.8256-14.04 3.106zM2869.768 465.6189c-5.8984 11.645-15.0114 17.4211-27.7414 17.3856-8.4839-.0237-16.9678-.0045-25.8762-.0045.68-6.958 1.2168-13.6875 2.0256-20.3841.7984-6.6092 1.9851-13.171 2.7964-19.7788 1.113-9.0665 1.97-18.1648 3.1284-27.225.1216-.9504 1.5616-2.5076 2.3426-2.4795 8.874.3202 17.9067-.0009 26.5642 1.624 11.1523 2.0931 16.9897 10.8448 19.7622 21.0712 2.6938 9.9382 1.7107 19.9776-3.0017 29.7911m-21.3284 5.461c2.7859-1.8299 6.3616-3.0793 8.2112-5.5969 5.9087-8.0436 8.1577-17.2471 5.2534-27.0348-1.7363-5.8522-4.7412-11.584-11.0815-13.2472-5.2652-1.381-10.9632-1.1103-16.4715-1.5715l-6.133 49.926c6.6445-.6382 13.1413-1.2621 20.2214-2.4756zM2054.2358 435h14.6565c-1.3242 9.4026-3.0322 18.4525-3.5459 27.5695-.1137 2.0195 3.7063 5.5564 6.2259 6.1232 3.7368.8405 7.3918-1.4508 8.332-5.6845 1.0144-4.5673 1.4905-9.2608 2.0745-13.9152.447-3.564.4409-7.2063 1.1694-10.7026.2693-1.293 1.9985-3.1544 3.1685-3.2363 5.0937-.3565 10.2265-.153 16.062-.153-.9324 8.5578-1.7454 16.6353-2.7288 24.692-.3098 2.536-1.2427 4.9923-1.6052 7.5258-1.5913 11.1216-9.605 15.6777-19.1106 16.605-6.1345.5986-12.522.0503-18.6384-.9486-9.0188-1.473-15.5071-10.17-13.53-21.542 1.2275-7.0601 1.6315-14.2742 2.184-21.4362.2473-3.2023.9375-5.4881 5.2861-4.8971zM1965.2046 465.5553c2.727 3.1615 5.5015 4.0345 9.2994 2.5269 4.8394-1.921 4.6952-6.3467 5.3673-10.0515 1.1325-6.243 1.4526-12.6325 2.1354-18.958.2632-2.4385.899-4.286 4.0947-4.1325 4.7917.2302 9.6025.0599 15.119.0599-.4265 5.0108-.6452 9.698-1.2626 14.3322-.8982 6.7413-1.5042 13.6026-3.2858 20.1257-2.555 9.3554-8.4639 13.1795-18.5763 14.3442-6.2737.7225-12.9054.238-19.1306-.9703-9.0043-1.7476-15.1196-10.1408-13.228-21.3642 1.0822-6.4229 1.5058-12.9557 2.276-19.433.2662-2.238.684-4.458 1.0573-6.8456h18.7935c-1.2954 9.1914-2.6087 18.254-3.7919 27.3336-.109.8371.6118 1.7823 1.1326 3.0326zM2019.0353 405.1264c6.2263-.7776 12.422-1.0838 19.4646-1.4318-3.2759 26.7748-6.4516 52.73-9.6653 78.998h-18.8532c.7046-7.0857 1.282-14.0358 2.1158-20.955.834-6.9217 1.9575-13.8079 2.895-20.7177 1.3531-9.9739 2.6863-19.9509 3.945-29.937.2272-1.8025.0552-3.6554.098-5.9565zM2444 432.0386c-1.2617 10.1238-2.5745 19.78-3.7673 29.451-.8582 6.9566-1.5562 13.933-2.359 21.2064h-19.068c3.2002-26.1436 6.3781-52.1026 9.5964-78.3925h18.9492c-1.1135 9.0627-2.2324 18.1682-3.3513 27.735zM2527 459.8622c-1.0503 7.9644-2.1008 15.4629-3.1594 23.021h-10.626c.6448-6.8213 1.1436-13.544 1.9517-20.2292.778-6.433 2.0127-12.8104 2.801-19.2423 1.1291-9.2149 1.9756-18.4645 3.1238-27.6767.1228-.9828 1.4485-2.5913 2.2268-2.5979 8.7854-.073 17.7407-1.0338 26.0254 2.98 7.8454 3.8008 11.3728 14.7981 8.1772 24.8896-2.6047 8.225-10.3684 13.9631-18.9468 13.9913-3.6455.012-7.2907.002-11.315.002-.092 1.5618-.1754 2.979-.2587 4.8622m20.0447-28.451c-1.7039-6.5782-6.8291-8.7512-15.8245-6.7974-.8066 7.1001-1.6084 14.1542-2.4165 21.2647 15.3921.2233 18.5828-4.2885 18.241-14.4673zM2339.0195 426.247c-.1765 3.0304-.3364 5.609-.526 8.6669h9.3505c-.6616 4.9166-1.2583 9.3498-1.8955 14.0861-1.5928 0-2.925.1696-4.1995-.0303-4.7007-.7374-5.714 1.2654-5.9258 5.8225-.3916 8.4399-1.717 16.8497-2.9953 25.2199-.1756 1.149-2.2561 2.7645-3.544 2.852-4.94.335-9.916.1356-15.6699.1356 1.2693-11.4068 2.4898-22.3768 3.7532-33.7323l-7.2288-.4476c.3728-3.8258.4256-7.696 1.3054-11.3682.264-1.1013 2.8348-2.3136 4.3504-2.3159 3.3369-.0048 4.277-1.281 4.2912-4.4713.0164-3.7292.6785-7.4556 1.0845-11.4198h19.0818c-.4224 2.2757-.8188 4.4131-1.2322 7.0024zM2627.004 413.528c4.2995 8.9884 8.317 17.6542 12.5485 26.7809 4.7087-7.216 9.2956-14.003 13.618-20.9547 2.8207-4.5372 5.9772-7.8691 11.964-6.4053 1.4085.3444 2.973.0511 5.376.0511-3.9507 6.0683-7.5034 11.6608-11.1963 17.1591-3.684 5.4852-7.2407 11.0893-11.3503 16.245-3.7952 4.7613-4.42 10.209-4.9783 15.843-.6104 6.1612-1.2124 12.3294-2.1362 18.4465-.1365.904-1.9644 2.0674-3.1153 2.201-2.7724.3218-5.6076.1043-8.4758.1043.9412-7.5156.9805-14.9487 2.9382-21.8365 3.1416-11.0512-4.1936-18.7491-7.5366-27.6428-2.4101-6.4108-6.3452-12.2466-9.5566-18.3617-.2024-.3854-.0266-.9693-.0266-1.9525 3.8986 0 7.772 0 11.9272.3227zM2809.8354 413h4.4903l-1.4986 10.9957h-15.579c-2.4351 19.6522-4.848 39.1244-7.2842 58.7876h-11.0242c2.3801-19.533 4.7456-38.9455 7.1611-58.7701h-16.3938c.5135-3.8926.9668-7.3306 1.4527-11.0132h38.6757zM2586.999 476.7886c-.478 2.2976-.9548 4.1392-1.458 6.0832h-10.5991c2.3809-19.549 4.7454-38.965 7.158-58.7765h-16.3746l1.4075-10.911h43.1377c-.4895 3.7031-.9438 7.1398-1.4228 10.7647h-15.6973c-2.0625 17.567-4.1065 34.9753-6.1514 52.8396zM2746.0166 483h-11.8589c.6694-6.9416 1.1904-13.6611 1.9983-20.346.7974-6.5972 2.0024-13.1448 2.8154-19.7404 1.116-9.051 1.9356-18.1397 3.1631-27.1741.1411-1.0379 1.9739-2.3855 3.2056-2.618 2.2468-.4242 4.631-.1205 8.147-.1205-2.3692 19.9536-4.7149 39.7072-7.1133 59.9071h19.5039L2764.6367 483h-18.6201zM2678.0244 470.9976c3.5772-12.4272 5.4705-24.5853 2.9859-37.0678-1.4764-7.4164-3.0682-14.8114-4.7286-22.1888-.9196-4.0865 2.4324-3.7379 4.5735-4.7788 2.0554-.9993 3.208-1.3063 4.2388 1.5777 5.1467 14.3976 6.9412 29.312 5.7397 44.3546-1.3476 16.8758-6.7692 32.6787-15.7954 47.1638-2.5842 4.1469-4.6909.6612-6.9201-.0906-2.4908-.8398-2.3496-2.1908-1.1831-4.5384 3.9204-7.8897 7.411-15.9927 11.0893-24.4317zM2492 470.8675c1.6426 9.7974 3.2852 19.112 5.1077 29.446.6726-.9385.5405-.5312.3083-.4628-8.6767 2.5588-9.279 2.354-11.3547-6.8205-6.188-27.3554-4.2278-53.8085 9.3222-78.8478 1.5232-2.8145 3.3008-5.4913 5.084-8.436l7.8406 4.76c-11.5955 18.3952-18.1091 38.0349-16.3081 60.361zM2114.0405 447.0107c9.4715-.4643 18.9082-.4643 28.4063-.4643l-1.666 14.2143h-28.5013c.5782-4.4501 1.1521-8.8678 1.761-13.75z"/><path fill="#FFF" d="M2680.7603 202c13.8188 1.5178 23.0405 12.2148 25.4099 25.2336 3.9245 21.5656-14.4954 46.143-34.2242 49.5515-16.8103 2.9042-30.1479-5.0585-34.07-23.21-4.6284-21.4214 13.069-47.5144 36.4446-51.517 1.9423-.3326 3.9892-.0532 6.4397-.058zM2251.6216 254.153c-4.1443-23.6602 13.2986-44.8904 29.9409-50.4713 20.4221-6.8485 38.056 7.6768 38.7056 27.999.5588 17.4975-13.8728 40.4841-33.092 44.6249-17.4036 3.7496-31.6563-4.142-35.5545-22.1526zM2484.7507 217.7444c8.1914-9.7027 17.8726-15.5904 30.609-15.7846 10.9628-.1671 22.1613 7.7037 25.7184 18.6511 4.678 14.3972 1.149 27.0477-7.138 38.9157-5.8634 8.3977-13.63 14.2517-23.6635 16.6826-19.633 4.7567-34.8035-6.6364-36.2925-26.2715-.9196-12.1299 2.9212-22.6328 10.7666-32.1933zM1712.2535 195c17.2582-1.919 26.0252 12.6874 25.3612 25.8331h-54.3045c5.3457-13.3276 13.2557-23.5955 28.9433-25.833zM1836.0122 469c-5.9519 1.5075-10.8545-2.4368-11.2557-7.444-.4568-5.6982 3.6585-12.1686 8.6776-12.5555 5.2847-.4073 9.9004 1.6195 10.4728 5.0887.8521 5.1655-.2372 13.3484-7.8947 14.9107zM2388.9937 454.5665c.0073 10.185-2.1883 13.4745-9.4483 14.5894-5.8264.8947-10.4924-3.8483-9.7351-9.6914.827-6.3801 4.4507-11.78 12.137-10.2733 2.5715.5041 4.7063 3.2366 7.0464 5.3753zM2263.9968 453.065c5.1194-4.5365 10.5725-5.2016 14.0025-2.7109 4.6289 3.3615 3.6352 10.8085.595 15.498-2.0428 3.1504-9.3438 4.596-12.5582 2.695-4.2612-2.5201-5.4904-7.9044-3.0407-13.4107.2602-.5858.6396-1.1188 1.0014-2.0714zM2848.148 471.3746c-6.7884.9188-13.2852 1.5427-19.9297 2.1809l6.133-49.926c5.5083.4612 11.2063.1904 16.4715 1.5715 6.3403 1.6631 9.3452 7.395 11.0815 13.2472 2.9043 9.7877.6553 18.9912-5.2534 27.0348-1.8496 2.5176-5.4253 3.767-8.503 5.8916zM2547.2979 431.7245c.0886 9.8655-3.1021 14.3773-18.4942 14.154.8081-7.1105 1.6099-14.1646 2.4165-21.2647 8.9954-1.9538 14.1206.2192 16.0777 7.1107z"/></svg>